G04 #@! TF.GenerationSoftware,KiCad,Pcbnew,(5.1.6-0-10_14)*
G04 #@! TF.CreationDate,2020-10-10T00:55:13+02:00*
G04 #@! TF.ProjectId,ka3005p_displaydriver,6b613330-3035-4705-9f64-6973706c6179,rev?*
G04 #@! TF.SameCoordinates,Original*
G04 #@! TF.FileFunction,Soldermask,Top*
G04 #@! TF.FilePolarity,Negative*
%FSLAX46Y46*%
G04 Gerber Fmt 4.6, Leading zero omitted, Abs format (unit mm)*
G04 Created by KiCad (PCBNEW (5.1.6-0-10_14)) date 2020-10-10 00:55:13*
%MOMM*%
%LPD*%
G01*
G04 APERTURE LIST*
%ADD10C,3.600000*%
%ADD11C,1.624000*%
%ADD12R,1.624000X1.624000*%
%ADD13R,1.000000X0.900000*%
%ADD14R,1.900000X1.900000*%
%ADD15C,1.900000*%
%ADD16R,1.600000X2.100000*%
%ADD17R,3.900000X2.100000*%
%ADD18R,1.800000X1.800000*%
%ADD19O,1.800000X1.800000*%
G04 APERTURE END LIST*
D10*
X102500000Y-112600000D03*
X196600000Y-112600000D03*
X196600000Y-72500000D03*
X102500000Y-72500000D03*
G36*
G01*
X189105000Y-89648262D02*
X189105000Y-88691738D01*
G75*
G02*
X189376738Y-88420000I271738J0D01*
G01*
X190083262Y-88420000D01*
G75*
G02*
X190355000Y-88691738I0J-271738D01*
G01*
X190355000Y-89648262D01*
G75*
G02*
X190083262Y-89920000I-271738J0D01*
G01*
X189376738Y-89920000D01*
G75*
G02*
X189105000Y-89648262I0J271738D01*
G01*
G37*
G36*
G01*
X187055000Y-89648262D02*
X187055000Y-88691738D01*
G75*
G02*
X187326738Y-88420000I271738J0D01*
G01*
X188033262Y-88420000D01*
G75*
G02*
X188305000Y-88691738I0J-271738D01*
G01*
X188305000Y-89648262D01*
G75*
G02*
X188033262Y-89920000I-271738J0D01*
G01*
X187326738Y-89920000D01*
G75*
G02*
X187055000Y-89648262I0J271738D01*
G01*
G37*
D11*
X137400000Y-72500000D03*
X134860000Y-72500000D03*
X132320000Y-72500000D03*
X129780000Y-72500000D03*
X127240000Y-72500000D03*
X124700000Y-72500000D03*
X137400000Y-85200000D03*
X134860000Y-85200000D03*
X132320000Y-85200000D03*
X129780000Y-85200000D03*
X127240000Y-85200000D03*
D12*
X124700000Y-85200000D03*
G36*
G01*
X188471738Y-109200000D02*
X189428262Y-109200000D01*
G75*
G02*
X189700000Y-109471738I0J-271738D01*
G01*
X189700000Y-110178262D01*
G75*
G02*
X189428262Y-110450000I-271738J0D01*
G01*
X188471738Y-110450000D01*
G75*
G02*
X188200000Y-110178262I0J271738D01*
G01*
X188200000Y-109471738D01*
G75*
G02*
X188471738Y-109200000I271738J0D01*
G01*
G37*
G36*
G01*
X188471738Y-107150000D02*
X189428262Y-107150000D01*
G75*
G02*
X189700000Y-107421738I0J-271738D01*
G01*
X189700000Y-108128262D01*
G75*
G02*
X189428262Y-108400000I-271738J0D01*
G01*
X188471738Y-108400000D01*
G75*
G02*
X188200000Y-108128262I0J271738D01*
G01*
X188200000Y-107421738D01*
G75*
G02*
X188471738Y-107150000I271738J0D01*
G01*
G37*
G36*
G01*
X190671738Y-109200000D02*
X191628262Y-109200000D01*
G75*
G02*
X191900000Y-109471738I0J-271738D01*
G01*
X191900000Y-110178262D01*
G75*
G02*
X191628262Y-110450000I-271738J0D01*
G01*
X190671738Y-110450000D01*
G75*
G02*
X190400000Y-110178262I0J271738D01*
G01*
X190400000Y-109471738D01*
G75*
G02*
X190671738Y-109200000I271738J0D01*
G01*
G37*
G36*
G01*
X190671738Y-107150000D02*
X191628262Y-107150000D01*
G75*
G02*
X191900000Y-107421738I0J-271738D01*
G01*
X191900000Y-108128262D01*
G75*
G02*
X191628262Y-108400000I-271738J0D01*
G01*
X190671738Y-108400000D01*
G75*
G02*
X190400000Y-108128262I0J271738D01*
G01*
X190400000Y-107421738D01*
G75*
G02*
X190671738Y-107150000I271738J0D01*
G01*
G37*
G36*
G01*
X192871738Y-109200000D02*
X193828262Y-109200000D01*
G75*
G02*
X194100000Y-109471738I0J-271738D01*
G01*
X194100000Y-110178262D01*
G75*
G02*
X193828262Y-110450000I-271738J0D01*
G01*
X192871738Y-110450000D01*
G75*
G02*
X192600000Y-110178262I0J271738D01*
G01*
X192600000Y-109471738D01*
G75*
G02*
X192871738Y-109200000I271738J0D01*
G01*
G37*
G36*
G01*
X192871738Y-107150000D02*
X193828262Y-107150000D01*
G75*
G02*
X194100000Y-107421738I0J-271738D01*
G01*
X194100000Y-108128262D01*
G75*
G02*
X193828262Y-108400000I-271738J0D01*
G01*
X192871738Y-108400000D01*
G75*
G02*
X192600000Y-108128262I0J271738D01*
G01*
X192600000Y-107421738D01*
G75*
G02*
X192871738Y-107150000I271738J0D01*
G01*
G37*
D13*
X175950000Y-110650000D03*
X177950000Y-109700000D03*
X177950000Y-111600000D03*
D11*
X137420000Y-94000000D03*
X134880000Y-94000000D03*
X132340000Y-94000000D03*
X129800000Y-94000000D03*
X127260000Y-94000000D03*
X124720000Y-94000000D03*
X137420000Y-106700000D03*
X134880000Y-106700000D03*
X132340000Y-106700000D03*
X129800000Y-106700000D03*
X127260000Y-106700000D03*
D12*
X124720000Y-106700000D03*
D13*
X180350000Y-110650000D03*
X182350000Y-109700000D03*
X182350000Y-111600000D03*
D14*
X161340000Y-81800000D03*
D15*
X158800000Y-81800000D03*
D14*
X184640000Y-73650000D03*
D15*
X182100000Y-73650000D03*
D14*
X184640000Y-97500000D03*
D15*
X182100000Y-97500000D03*
D14*
X161340000Y-105300000D03*
D15*
X158800000Y-105300000D03*
D14*
X184640000Y-89600000D03*
D15*
X182100000Y-89600000D03*
D14*
X161340000Y-89600000D03*
D15*
X158800000Y-89600000D03*
D14*
X161340000Y-73900000D03*
D15*
X158800000Y-73900000D03*
D14*
X184640000Y-81800000D03*
D15*
X182100000Y-81800000D03*
D14*
X184640000Y-105300000D03*
D15*
X182100000Y-105300000D03*
G36*
G01*
X196075000Y-107421738D02*
X196075000Y-108378262D01*
G75*
G02*
X195803262Y-108650000I-271738J0D01*
G01*
X195096738Y-108650000D01*
G75*
G02*
X194825000Y-108378262I0J271738D01*
G01*
X194825000Y-107421738D01*
G75*
G02*
X195096738Y-107150000I271738J0D01*
G01*
X195803262Y-107150000D01*
G75*
G02*
X196075000Y-107421738I0J-271738D01*
G01*
G37*
G36*
G01*
X198125000Y-107421738D02*
X198125000Y-108378262D01*
G75*
G02*
X197853262Y-108650000I-271738J0D01*
G01*
X197146738Y-108650000D01*
G75*
G02*
X196875000Y-108378262I0J271738D01*
G01*
X196875000Y-107421738D01*
G75*
G02*
X197146738Y-107150000I271738J0D01*
G01*
X197853262Y-107150000D01*
G75*
G02*
X198125000Y-107421738I0J-271738D01*
G01*
G37*
G36*
G01*
X186271738Y-109200000D02*
X187228262Y-109200000D01*
G75*
G02*
X187500000Y-109471738I0J-271738D01*
G01*
X187500000Y-110178262D01*
G75*
G02*
X187228262Y-110450000I-271738J0D01*
G01*
X186271738Y-110450000D01*
G75*
G02*
X186000000Y-110178262I0J271738D01*
G01*
X186000000Y-109471738D01*
G75*
G02*
X186271738Y-109200000I271738J0D01*
G01*
G37*
G36*
G01*
X186271738Y-107150000D02*
X187228262Y-107150000D01*
G75*
G02*
X187500000Y-107421738I0J-271738D01*
G01*
X187500000Y-108128262D01*
G75*
G02*
X187228262Y-108400000I-271738J0D01*
G01*
X186271738Y-108400000D01*
G75*
G02*
X186000000Y-108128262I0J271738D01*
G01*
X186000000Y-107421738D01*
G75*
G02*
X186271738Y-107150000I271738J0D01*
G01*
G37*
D13*
X162750000Y-110650000D03*
X164750000Y-109700000D03*
X164750000Y-111600000D03*
X171550000Y-110650000D03*
X173550000Y-109700000D03*
X173550000Y-111600000D03*
X167150000Y-110650000D03*
X169150000Y-109700000D03*
X169150000Y-111600000D03*
D16*
X187550000Y-86850000D03*
X192150000Y-86850000D03*
X189850000Y-86850000D03*
D17*
X189850000Y-80550000D03*
G36*
G01*
X166150000Y-106578262D02*
X166150000Y-105621738D01*
G75*
G02*
X166421738Y-105350000I271738J0D01*
G01*
X167128262Y-105350000D01*
G75*
G02*
X167400000Y-105621738I0J-271738D01*
G01*
X167400000Y-106578262D01*
G75*
G02*
X167128262Y-106850000I-271738J0D01*
G01*
X166421738Y-106850000D01*
G75*
G02*
X166150000Y-106578262I0J271738D01*
G01*
G37*
G36*
G01*
X164100000Y-106578262D02*
X164100000Y-105621738D01*
G75*
G02*
X164371738Y-105350000I271738J0D01*
G01*
X165078262Y-105350000D01*
G75*
G02*
X165350000Y-105621738I0J-271738D01*
G01*
X165350000Y-106578262D01*
G75*
G02*
X165078262Y-106850000I-271738J0D01*
G01*
X164371738Y-106850000D01*
G75*
G02*
X164100000Y-106578262I0J271738D01*
G01*
G37*
G36*
G01*
X166155000Y-91178262D02*
X166155000Y-90221738D01*
G75*
G02*
X166426738Y-89950000I271738J0D01*
G01*
X167133262Y-89950000D01*
G75*
G02*
X167405000Y-90221738I0J-271738D01*
G01*
X167405000Y-91178262D01*
G75*
G02*
X167133262Y-91450000I-271738J0D01*
G01*
X166426738Y-91450000D01*
G75*
G02*
X166155000Y-91178262I0J271738D01*
G01*
G37*
G36*
G01*
X164105000Y-91178262D02*
X164105000Y-90221738D01*
G75*
G02*
X164376738Y-89950000I271738J0D01*
G01*
X165083262Y-89950000D01*
G75*
G02*
X165355000Y-90221738I0J-271738D01*
G01*
X165355000Y-91178262D01*
G75*
G02*
X165083262Y-91450000I-271738J0D01*
G01*
X164376738Y-91450000D01*
G75*
G02*
X164105000Y-91178262I0J271738D01*
G01*
G37*
G36*
G01*
X166155000Y-93378262D02*
X166155000Y-92421738D01*
G75*
G02*
X166426738Y-92150000I271738J0D01*
G01*
X167133262Y-92150000D01*
G75*
G02*
X167405000Y-92421738I0J-271738D01*
G01*
X167405000Y-93378262D01*
G75*
G02*
X167133262Y-93650000I-271738J0D01*
G01*
X166426738Y-93650000D01*
G75*
G02*
X166155000Y-93378262I0J271738D01*
G01*
G37*
G36*
G01*
X164105000Y-93378262D02*
X164105000Y-92421738D01*
G75*
G02*
X164376738Y-92150000I271738J0D01*
G01*
X165083262Y-92150000D01*
G75*
G02*
X165355000Y-92421738I0J-271738D01*
G01*
X165355000Y-93378262D01*
G75*
G02*
X165083262Y-93650000I-271738J0D01*
G01*
X164376738Y-93650000D01*
G75*
G02*
X164105000Y-93378262I0J271738D01*
G01*
G37*
G36*
G01*
X166155000Y-95578262D02*
X166155000Y-94621738D01*
G75*
G02*
X166426738Y-94350000I271738J0D01*
G01*
X167133262Y-94350000D01*
G75*
G02*
X167405000Y-94621738I0J-271738D01*
G01*
X167405000Y-95578262D01*
G75*
G02*
X167133262Y-95850000I-271738J0D01*
G01*
X166426738Y-95850000D01*
G75*
G02*
X166155000Y-95578262I0J271738D01*
G01*
G37*
G36*
G01*
X164105000Y-95578262D02*
X164105000Y-94621738D01*
G75*
G02*
X164376738Y-94350000I271738J0D01*
G01*
X165083262Y-94350000D01*
G75*
G02*
X165355000Y-94621738I0J-271738D01*
G01*
X165355000Y-95578262D01*
G75*
G02*
X165083262Y-95850000I-271738J0D01*
G01*
X164376738Y-95850000D01*
G75*
G02*
X164105000Y-95578262I0J271738D01*
G01*
G37*
G36*
G01*
X166155000Y-97778262D02*
X166155000Y-96821738D01*
G75*
G02*
X166426738Y-96550000I271738J0D01*
G01*
X167133262Y-96550000D01*
G75*
G02*
X167405000Y-96821738I0J-271738D01*
G01*
X167405000Y-97778262D01*
G75*
G02*
X167133262Y-98050000I-271738J0D01*
G01*
X166426738Y-98050000D01*
G75*
G02*
X166155000Y-97778262I0J271738D01*
G01*
G37*
G36*
G01*
X164105000Y-97778262D02*
X164105000Y-96821738D01*
G75*
G02*
X164376738Y-96550000I271738J0D01*
G01*
X165083262Y-96550000D01*
G75*
G02*
X165355000Y-96821738I0J-271738D01*
G01*
X165355000Y-97778262D01*
G75*
G02*
X165083262Y-98050000I-271738J0D01*
G01*
X164376738Y-98050000D01*
G75*
G02*
X164105000Y-97778262I0J271738D01*
G01*
G37*
G36*
G01*
X166155000Y-99978262D02*
X166155000Y-99021738D01*
G75*
G02*
X166426738Y-98750000I271738J0D01*
G01*
X167133262Y-98750000D01*
G75*
G02*
X167405000Y-99021738I0J-271738D01*
G01*
X167405000Y-99978262D01*
G75*
G02*
X167133262Y-100250000I-271738J0D01*
G01*
X166426738Y-100250000D01*
G75*
G02*
X166155000Y-99978262I0J271738D01*
G01*
G37*
G36*
G01*
X164105000Y-99978262D02*
X164105000Y-99021738D01*
G75*
G02*
X164376738Y-98750000I271738J0D01*
G01*
X165083262Y-98750000D01*
G75*
G02*
X165355000Y-99021738I0J-271738D01*
G01*
X165355000Y-99978262D01*
G75*
G02*
X165083262Y-100250000I-271738J0D01*
G01*
X164376738Y-100250000D01*
G75*
G02*
X164105000Y-99978262I0J271738D01*
G01*
G37*
G36*
G01*
X166155000Y-102178262D02*
X166155000Y-101221738D01*
G75*
G02*
X166426738Y-100950000I271738J0D01*
G01*
X167133262Y-100950000D01*
G75*
G02*
X167405000Y-101221738I0J-271738D01*
G01*
X167405000Y-102178262D01*
G75*
G02*
X167133262Y-102450000I-271738J0D01*
G01*
X166426738Y-102450000D01*
G75*
G02*
X166155000Y-102178262I0J271738D01*
G01*
G37*
G36*
G01*
X164105000Y-102178262D02*
X164105000Y-101221738D01*
G75*
G02*
X164376738Y-100950000I271738J0D01*
G01*
X165083262Y-100950000D01*
G75*
G02*
X165355000Y-101221738I0J-271738D01*
G01*
X165355000Y-102178262D01*
G75*
G02*
X165083262Y-102450000I-271738J0D01*
G01*
X164376738Y-102450000D01*
G75*
G02*
X164105000Y-102178262I0J271738D01*
G01*
G37*
G36*
G01*
X166155000Y-104378262D02*
X166155000Y-103421738D01*
G75*
G02*
X166426738Y-103150000I271738J0D01*
G01*
X167133262Y-103150000D01*
G75*
G02*
X167405000Y-103421738I0J-271738D01*
G01*
X167405000Y-104378262D01*
G75*
G02*
X167133262Y-104650000I-271738J0D01*
G01*
X166426738Y-104650000D01*
G75*
G02*
X166155000Y-104378262I0J271738D01*
G01*
G37*
G36*
G01*
X164105000Y-104378262D02*
X164105000Y-103421738D01*
G75*
G02*
X164376738Y-103150000I271738J0D01*
G01*
X165083262Y-103150000D01*
G75*
G02*
X165355000Y-103421738I0J-271738D01*
G01*
X165355000Y-104378262D01*
G75*
G02*
X165083262Y-104650000I-271738J0D01*
G01*
X164376738Y-104650000D01*
G75*
G02*
X164105000Y-104378262I0J271738D01*
G01*
G37*
G36*
G01*
X166150000Y-88978262D02*
X166150000Y-88021738D01*
G75*
G02*
X166421738Y-87750000I271738J0D01*
G01*
X167128262Y-87750000D01*
G75*
G02*
X167400000Y-88021738I0J-271738D01*
G01*
X167400000Y-88978262D01*
G75*
G02*
X167128262Y-89250000I-271738J0D01*
G01*
X166421738Y-89250000D01*
G75*
G02*
X166150000Y-88978262I0J271738D01*
G01*
G37*
G36*
G01*
X164100000Y-88978262D02*
X164100000Y-88021738D01*
G75*
G02*
X164371738Y-87750000I271738J0D01*
G01*
X165078262Y-87750000D01*
G75*
G02*
X165350000Y-88021738I0J-271738D01*
G01*
X165350000Y-88978262D01*
G75*
G02*
X165078262Y-89250000I-271738J0D01*
G01*
X164371738Y-89250000D01*
G75*
G02*
X164100000Y-88978262I0J271738D01*
G01*
G37*
G36*
G01*
X166155000Y-75778262D02*
X166155000Y-74821738D01*
G75*
G02*
X166426738Y-74550000I271738J0D01*
G01*
X167133262Y-74550000D01*
G75*
G02*
X167405000Y-74821738I0J-271738D01*
G01*
X167405000Y-75778262D01*
G75*
G02*
X167133262Y-76050000I-271738J0D01*
G01*
X166426738Y-76050000D01*
G75*
G02*
X166155000Y-75778262I0J271738D01*
G01*
G37*
G36*
G01*
X164105000Y-75778262D02*
X164105000Y-74821738D01*
G75*
G02*
X164376738Y-74550000I271738J0D01*
G01*
X165083262Y-74550000D01*
G75*
G02*
X165355000Y-74821738I0J-271738D01*
G01*
X165355000Y-75778262D01*
G75*
G02*
X165083262Y-76050000I-271738J0D01*
G01*
X164376738Y-76050000D01*
G75*
G02*
X164105000Y-75778262I0J271738D01*
G01*
G37*
G36*
G01*
X166145000Y-77978262D02*
X166145000Y-77021738D01*
G75*
G02*
X166416738Y-76750000I271738J0D01*
G01*
X167123262Y-76750000D01*
G75*
G02*
X167395000Y-77021738I0J-271738D01*
G01*
X167395000Y-77978262D01*
G75*
G02*
X167123262Y-78250000I-271738J0D01*
G01*
X166416738Y-78250000D01*
G75*
G02*
X166145000Y-77978262I0J271738D01*
G01*
G37*
G36*
G01*
X164095000Y-77978262D02*
X164095000Y-77021738D01*
G75*
G02*
X164366738Y-76750000I271738J0D01*
G01*
X165073262Y-76750000D01*
G75*
G02*
X165345000Y-77021738I0J-271738D01*
G01*
X165345000Y-77978262D01*
G75*
G02*
X165073262Y-78250000I-271738J0D01*
G01*
X164366738Y-78250000D01*
G75*
G02*
X164095000Y-77978262I0J271738D01*
G01*
G37*
G36*
G01*
X166155000Y-80178262D02*
X166155000Y-79221738D01*
G75*
G02*
X166426738Y-78950000I271738J0D01*
G01*
X167133262Y-78950000D01*
G75*
G02*
X167405000Y-79221738I0J-271738D01*
G01*
X167405000Y-80178262D01*
G75*
G02*
X167133262Y-80450000I-271738J0D01*
G01*
X166426738Y-80450000D01*
G75*
G02*
X166155000Y-80178262I0J271738D01*
G01*
G37*
G36*
G01*
X164105000Y-80178262D02*
X164105000Y-79221738D01*
G75*
G02*
X164376738Y-78950000I271738J0D01*
G01*
X165083262Y-78950000D01*
G75*
G02*
X165355000Y-79221738I0J-271738D01*
G01*
X165355000Y-80178262D01*
G75*
G02*
X165083262Y-80450000I-271738J0D01*
G01*
X164376738Y-80450000D01*
G75*
G02*
X164105000Y-80178262I0J271738D01*
G01*
G37*
G36*
G01*
X166145000Y-82378262D02*
X166145000Y-81421738D01*
G75*
G02*
X166416738Y-81150000I271738J0D01*
G01*
X167123262Y-81150000D01*
G75*
G02*
X167395000Y-81421738I0J-271738D01*
G01*
X167395000Y-82378262D01*
G75*
G02*
X167123262Y-82650000I-271738J0D01*
G01*
X166416738Y-82650000D01*
G75*
G02*
X166145000Y-82378262I0J271738D01*
G01*
G37*
G36*
G01*
X164095000Y-82378262D02*
X164095000Y-81421738D01*
G75*
G02*
X164366738Y-81150000I271738J0D01*
G01*
X165073262Y-81150000D01*
G75*
G02*
X165345000Y-81421738I0J-271738D01*
G01*
X165345000Y-82378262D01*
G75*
G02*
X165073262Y-82650000I-271738J0D01*
G01*
X164366738Y-82650000D01*
G75*
G02*
X164095000Y-82378262I0J271738D01*
G01*
G37*
G36*
G01*
X166155000Y-73578262D02*
X166155000Y-72621738D01*
G75*
G02*
X166426738Y-72350000I271738J0D01*
G01*
X167133262Y-72350000D01*
G75*
G02*
X167405000Y-72621738I0J-271738D01*
G01*
X167405000Y-73578262D01*
G75*
G02*
X167133262Y-73850000I-271738J0D01*
G01*
X166426738Y-73850000D01*
G75*
G02*
X166155000Y-73578262I0J271738D01*
G01*
G37*
G36*
G01*
X164105000Y-73578262D02*
X164105000Y-72621738D01*
G75*
G02*
X164376738Y-72350000I271738J0D01*
G01*
X165083262Y-72350000D01*
G75*
G02*
X165355000Y-72621738I0J-271738D01*
G01*
X165355000Y-73578262D01*
G75*
G02*
X165083262Y-73850000I-271738J0D01*
G01*
X164376738Y-73850000D01*
G75*
G02*
X164105000Y-73578262I0J271738D01*
G01*
G37*
G36*
G01*
X164095000Y-84578262D02*
X164095000Y-83621738D01*
G75*
G02*
X164366738Y-83350000I271738J0D01*
G01*
X165073262Y-83350000D01*
G75*
G02*
X165345000Y-83621738I0J-271738D01*
G01*
X165345000Y-84578262D01*
G75*
G02*
X165073262Y-84850000I-271738J0D01*
G01*
X164366738Y-84850000D01*
G75*
G02*
X164095000Y-84578262I0J271738D01*
G01*
G37*
G36*
G01*
X166145000Y-84578262D02*
X166145000Y-83621738D01*
G75*
G02*
X166416738Y-83350000I271738J0D01*
G01*
X167123262Y-83350000D01*
G75*
G02*
X167395000Y-83621738I0J-271738D01*
G01*
X167395000Y-84578262D01*
G75*
G02*
X167123262Y-84850000I-271738J0D01*
G01*
X166416738Y-84850000D01*
G75*
G02*
X166145000Y-84578262I0J271738D01*
G01*
G37*
G36*
G01*
X166145000Y-86778262D02*
X166145000Y-85821738D01*
G75*
G02*
X166416738Y-85550000I271738J0D01*
G01*
X167123262Y-85550000D01*
G75*
G02*
X167395000Y-85821738I0J-271738D01*
G01*
X167395000Y-86778262D01*
G75*
G02*
X167123262Y-87050000I-271738J0D01*
G01*
X166416738Y-87050000D01*
G75*
G02*
X166145000Y-86778262I0J271738D01*
G01*
G37*
G36*
G01*
X164095000Y-86778262D02*
X164095000Y-85821738D01*
G75*
G02*
X164366738Y-85550000I271738J0D01*
G01*
X165073262Y-85550000D01*
G75*
G02*
X165345000Y-85821738I0J-271738D01*
G01*
X165345000Y-86778262D01*
G75*
G02*
X165073262Y-87050000I-271738J0D01*
G01*
X164366738Y-87050000D01*
G75*
G02*
X164095000Y-86778262I0J271738D01*
G01*
G37*
G36*
G01*
X175825000Y-92680000D02*
X175825000Y-92330000D01*
G75*
G02*
X176000000Y-92155000I175000J0D01*
G01*
X177700000Y-92155000D01*
G75*
G02*
X177875000Y-92330000I0J-175000D01*
G01*
X177875000Y-92680000D01*
G75*
G02*
X177700000Y-92855000I-175000J0D01*
G01*
X176000000Y-92855000D01*
G75*
G02*
X175825000Y-92680000I0J175000D01*
G01*
G37*
G36*
G01*
X175825000Y-93950000D02*
X175825000Y-93600000D01*
G75*
G02*
X176000000Y-93425000I175000J0D01*
G01*
X177700000Y-93425000D01*
G75*
G02*
X177875000Y-93600000I0J-175000D01*
G01*
X177875000Y-93950000D01*
G75*
G02*
X177700000Y-94125000I-175000J0D01*
G01*
X176000000Y-94125000D01*
G75*
G02*
X175825000Y-93950000I0J175000D01*
G01*
G37*
G36*
G01*
X175825000Y-95220000D02*
X175825000Y-94870000D01*
G75*
G02*
X176000000Y-94695000I175000J0D01*
G01*
X177700000Y-94695000D01*
G75*
G02*
X177875000Y-94870000I0J-175000D01*
G01*
X177875000Y-95220000D01*
G75*
G02*
X177700000Y-95395000I-175000J0D01*
G01*
X176000000Y-95395000D01*
G75*
G02*
X175825000Y-95220000I0J175000D01*
G01*
G37*
G36*
G01*
X175825000Y-96490000D02*
X175825000Y-96140000D01*
G75*
G02*
X176000000Y-95965000I175000J0D01*
G01*
X177700000Y-95965000D01*
G75*
G02*
X177875000Y-96140000I0J-175000D01*
G01*
X177875000Y-96490000D01*
G75*
G02*
X177700000Y-96665000I-175000J0D01*
G01*
X176000000Y-96665000D01*
G75*
G02*
X175825000Y-96490000I0J175000D01*
G01*
G37*
G36*
G01*
X175825000Y-97760000D02*
X175825000Y-97410000D01*
G75*
G02*
X176000000Y-97235000I175000J0D01*
G01*
X177700000Y-97235000D01*
G75*
G02*
X177875000Y-97410000I0J-175000D01*
G01*
X177875000Y-97760000D01*
G75*
G02*
X177700000Y-97935000I-175000J0D01*
G01*
X176000000Y-97935000D01*
G75*
G02*
X175825000Y-97760000I0J175000D01*
G01*
G37*
G36*
G01*
X175825000Y-99030000D02*
X175825000Y-98680000D01*
G75*
G02*
X176000000Y-98505000I175000J0D01*
G01*
X177700000Y-98505000D01*
G75*
G02*
X177875000Y-98680000I0J-175000D01*
G01*
X177875000Y-99030000D01*
G75*
G02*
X177700000Y-99205000I-175000J0D01*
G01*
X176000000Y-99205000D01*
G75*
G02*
X175825000Y-99030000I0J175000D01*
G01*
G37*
G36*
G01*
X175825000Y-100300000D02*
X175825000Y-99950000D01*
G75*
G02*
X176000000Y-99775000I175000J0D01*
G01*
X177700000Y-99775000D01*
G75*
G02*
X177875000Y-99950000I0J-175000D01*
G01*
X177875000Y-100300000D01*
G75*
G02*
X177700000Y-100475000I-175000J0D01*
G01*
X176000000Y-100475000D01*
G75*
G02*
X175825000Y-100300000I0J175000D01*
G01*
G37*
G36*
G01*
X175825000Y-101570000D02*
X175825000Y-101220000D01*
G75*
G02*
X176000000Y-101045000I175000J0D01*
G01*
X177700000Y-101045000D01*
G75*
G02*
X177875000Y-101220000I0J-175000D01*
G01*
X177875000Y-101570000D01*
G75*
G02*
X177700000Y-101745000I-175000J0D01*
G01*
X176000000Y-101745000D01*
G75*
G02*
X175825000Y-101570000I0J175000D01*
G01*
G37*
G36*
G01*
X170875000Y-101570000D02*
X170875000Y-101220000D01*
G75*
G02*
X171050000Y-101045000I175000J0D01*
G01*
X172750000Y-101045000D01*
G75*
G02*
X172925000Y-101220000I0J-175000D01*
G01*
X172925000Y-101570000D01*
G75*
G02*
X172750000Y-101745000I-175000J0D01*
G01*
X171050000Y-101745000D01*
G75*
G02*
X170875000Y-101570000I0J175000D01*
G01*
G37*
G36*
G01*
X170875000Y-100300000D02*
X170875000Y-99950000D01*
G75*
G02*
X171050000Y-99775000I175000J0D01*
G01*
X172750000Y-99775000D01*
G75*
G02*
X172925000Y-99950000I0J-175000D01*
G01*
X172925000Y-100300000D01*
G75*
G02*
X172750000Y-100475000I-175000J0D01*
G01*
X171050000Y-100475000D01*
G75*
G02*
X170875000Y-100300000I0J175000D01*
G01*
G37*
G36*
G01*
X170875000Y-99030000D02*
X170875000Y-98680000D01*
G75*
G02*
X171050000Y-98505000I175000J0D01*
G01*
X172750000Y-98505000D01*
G75*
G02*
X172925000Y-98680000I0J-175000D01*
G01*
X172925000Y-99030000D01*
G75*
G02*
X172750000Y-99205000I-175000J0D01*
G01*
X171050000Y-99205000D01*
G75*
G02*
X170875000Y-99030000I0J175000D01*
G01*
G37*
G36*
G01*
X170875000Y-97760000D02*
X170875000Y-97410000D01*
G75*
G02*
X171050000Y-97235000I175000J0D01*
G01*
X172750000Y-97235000D01*
G75*
G02*
X172925000Y-97410000I0J-175000D01*
G01*
X172925000Y-97760000D01*
G75*
G02*
X172750000Y-97935000I-175000J0D01*
G01*
X171050000Y-97935000D01*
G75*
G02*
X170875000Y-97760000I0J175000D01*
G01*
G37*
G36*
G01*
X170875000Y-96490000D02*
X170875000Y-96140000D01*
G75*
G02*
X171050000Y-95965000I175000J0D01*
G01*
X172750000Y-95965000D01*
G75*
G02*
X172925000Y-96140000I0J-175000D01*
G01*
X172925000Y-96490000D01*
G75*
G02*
X172750000Y-96665000I-175000J0D01*
G01*
X171050000Y-96665000D01*
G75*
G02*
X170875000Y-96490000I0J175000D01*
G01*
G37*
G36*
G01*
X170875000Y-95220000D02*
X170875000Y-94870000D01*
G75*
G02*
X171050000Y-94695000I175000J0D01*
G01*
X172750000Y-94695000D01*
G75*
G02*
X172925000Y-94870000I0J-175000D01*
G01*
X172925000Y-95220000D01*
G75*
G02*
X172750000Y-95395000I-175000J0D01*
G01*
X171050000Y-95395000D01*
G75*
G02*
X170875000Y-95220000I0J175000D01*
G01*
G37*
G36*
G01*
X170875000Y-93950000D02*
X170875000Y-93600000D01*
G75*
G02*
X171050000Y-93425000I175000J0D01*
G01*
X172750000Y-93425000D01*
G75*
G02*
X172925000Y-93600000I0J-175000D01*
G01*
X172925000Y-93950000D01*
G75*
G02*
X172750000Y-94125000I-175000J0D01*
G01*
X171050000Y-94125000D01*
G75*
G02*
X170875000Y-93950000I0J175000D01*
G01*
G37*
G36*
G01*
X170875000Y-92680000D02*
X170875000Y-92330000D01*
G75*
G02*
X171050000Y-92155000I175000J0D01*
G01*
X172750000Y-92155000D01*
G75*
G02*
X172925000Y-92330000I0J-175000D01*
G01*
X172925000Y-92680000D01*
G75*
G02*
X172750000Y-92855000I-175000J0D01*
G01*
X171050000Y-92855000D01*
G75*
G02*
X170875000Y-92680000I0J175000D01*
G01*
G37*
G36*
G01*
X175800000Y-77480000D02*
X175800000Y-77130000D01*
G75*
G02*
X175975000Y-76955000I175000J0D01*
G01*
X177675000Y-76955000D01*
G75*
G02*
X177850000Y-77130000I0J-175000D01*
G01*
X177850000Y-77480000D01*
G75*
G02*
X177675000Y-77655000I-175000J0D01*
G01*
X175975000Y-77655000D01*
G75*
G02*
X175800000Y-77480000I0J175000D01*
G01*
G37*
G36*
G01*
X175800000Y-78750000D02*
X175800000Y-78400000D01*
G75*
G02*
X175975000Y-78225000I175000J0D01*
G01*
X177675000Y-78225000D01*
G75*
G02*
X177850000Y-78400000I0J-175000D01*
G01*
X177850000Y-78750000D01*
G75*
G02*
X177675000Y-78925000I-175000J0D01*
G01*
X175975000Y-78925000D01*
G75*
G02*
X175800000Y-78750000I0J175000D01*
G01*
G37*
G36*
G01*
X175800000Y-80020000D02*
X175800000Y-79670000D01*
G75*
G02*
X175975000Y-79495000I175000J0D01*
G01*
X177675000Y-79495000D01*
G75*
G02*
X177850000Y-79670000I0J-175000D01*
G01*
X177850000Y-80020000D01*
G75*
G02*
X177675000Y-80195000I-175000J0D01*
G01*
X175975000Y-80195000D01*
G75*
G02*
X175800000Y-80020000I0J175000D01*
G01*
G37*
G36*
G01*
X175800000Y-81290000D02*
X175800000Y-80940000D01*
G75*
G02*
X175975000Y-80765000I175000J0D01*
G01*
X177675000Y-80765000D01*
G75*
G02*
X177850000Y-80940000I0J-175000D01*
G01*
X177850000Y-81290000D01*
G75*
G02*
X177675000Y-81465000I-175000J0D01*
G01*
X175975000Y-81465000D01*
G75*
G02*
X175800000Y-81290000I0J175000D01*
G01*
G37*
G36*
G01*
X175800000Y-82560000D02*
X175800000Y-82210000D01*
G75*
G02*
X175975000Y-82035000I175000J0D01*
G01*
X177675000Y-82035000D01*
G75*
G02*
X177850000Y-82210000I0J-175000D01*
G01*
X177850000Y-82560000D01*
G75*
G02*
X177675000Y-82735000I-175000J0D01*
G01*
X175975000Y-82735000D01*
G75*
G02*
X175800000Y-82560000I0J175000D01*
G01*
G37*
G36*
G01*
X175800000Y-83830000D02*
X175800000Y-83480000D01*
G75*
G02*
X175975000Y-83305000I175000J0D01*
G01*
X177675000Y-83305000D01*
G75*
G02*
X177850000Y-83480000I0J-175000D01*
G01*
X177850000Y-83830000D01*
G75*
G02*
X177675000Y-84005000I-175000J0D01*
G01*
X175975000Y-84005000D01*
G75*
G02*
X175800000Y-83830000I0J175000D01*
G01*
G37*
G36*
G01*
X175800000Y-85100000D02*
X175800000Y-84750000D01*
G75*
G02*
X175975000Y-84575000I175000J0D01*
G01*
X177675000Y-84575000D01*
G75*
G02*
X177850000Y-84750000I0J-175000D01*
G01*
X177850000Y-85100000D01*
G75*
G02*
X177675000Y-85275000I-175000J0D01*
G01*
X175975000Y-85275000D01*
G75*
G02*
X175800000Y-85100000I0J175000D01*
G01*
G37*
G36*
G01*
X175800000Y-86370000D02*
X175800000Y-86020000D01*
G75*
G02*
X175975000Y-85845000I175000J0D01*
G01*
X177675000Y-85845000D01*
G75*
G02*
X177850000Y-86020000I0J-175000D01*
G01*
X177850000Y-86370000D01*
G75*
G02*
X177675000Y-86545000I-175000J0D01*
G01*
X175975000Y-86545000D01*
G75*
G02*
X175800000Y-86370000I0J175000D01*
G01*
G37*
G36*
G01*
X170850000Y-86370000D02*
X170850000Y-86020000D01*
G75*
G02*
X171025000Y-85845000I175000J0D01*
G01*
X172725000Y-85845000D01*
G75*
G02*
X172900000Y-86020000I0J-175000D01*
G01*
X172900000Y-86370000D01*
G75*
G02*
X172725000Y-86545000I-175000J0D01*
G01*
X171025000Y-86545000D01*
G75*
G02*
X170850000Y-86370000I0J175000D01*
G01*
G37*
G36*
G01*
X170850000Y-85100000D02*
X170850000Y-84750000D01*
G75*
G02*
X171025000Y-84575000I175000J0D01*
G01*
X172725000Y-84575000D01*
G75*
G02*
X172900000Y-84750000I0J-175000D01*
G01*
X172900000Y-85100000D01*
G75*
G02*
X172725000Y-85275000I-175000J0D01*
G01*
X171025000Y-85275000D01*
G75*
G02*
X170850000Y-85100000I0J175000D01*
G01*
G37*
G36*
G01*
X170850000Y-83830000D02*
X170850000Y-83480000D01*
G75*
G02*
X171025000Y-83305000I175000J0D01*
G01*
X172725000Y-83305000D01*
G75*
G02*
X172900000Y-83480000I0J-175000D01*
G01*
X172900000Y-83830000D01*
G75*
G02*
X172725000Y-84005000I-175000J0D01*
G01*
X171025000Y-84005000D01*
G75*
G02*
X170850000Y-83830000I0J175000D01*
G01*
G37*
G36*
G01*
X170850000Y-82560000D02*
X170850000Y-82210000D01*
G75*
G02*
X171025000Y-82035000I175000J0D01*
G01*
X172725000Y-82035000D01*
G75*
G02*
X172900000Y-82210000I0J-175000D01*
G01*
X172900000Y-82560000D01*
G75*
G02*
X172725000Y-82735000I-175000J0D01*
G01*
X171025000Y-82735000D01*
G75*
G02*
X170850000Y-82560000I0J175000D01*
G01*
G37*
G36*
G01*
X170850000Y-81290000D02*
X170850000Y-80940000D01*
G75*
G02*
X171025000Y-80765000I175000J0D01*
G01*
X172725000Y-80765000D01*
G75*
G02*
X172900000Y-80940000I0J-175000D01*
G01*
X172900000Y-81290000D01*
G75*
G02*
X172725000Y-81465000I-175000J0D01*
G01*
X171025000Y-81465000D01*
G75*
G02*
X170850000Y-81290000I0J175000D01*
G01*
G37*
G36*
G01*
X170850000Y-80020000D02*
X170850000Y-79670000D01*
G75*
G02*
X171025000Y-79495000I175000J0D01*
G01*
X172725000Y-79495000D01*
G75*
G02*
X172900000Y-79670000I0J-175000D01*
G01*
X172900000Y-80020000D01*
G75*
G02*
X172725000Y-80195000I-175000J0D01*
G01*
X171025000Y-80195000D01*
G75*
G02*
X170850000Y-80020000I0J175000D01*
G01*
G37*
G36*
G01*
X170850000Y-78750000D02*
X170850000Y-78400000D01*
G75*
G02*
X171025000Y-78225000I175000J0D01*
G01*
X172725000Y-78225000D01*
G75*
G02*
X172900000Y-78400000I0J-175000D01*
G01*
X172900000Y-78750000D01*
G75*
G02*
X172725000Y-78925000I-175000J0D01*
G01*
X171025000Y-78925000D01*
G75*
G02*
X170850000Y-78750000I0J175000D01*
G01*
G37*
G36*
G01*
X170850000Y-77480000D02*
X170850000Y-77130000D01*
G75*
G02*
X171025000Y-76955000I175000J0D01*
G01*
X172725000Y-76955000D01*
G75*
G02*
X172900000Y-77130000I0J-175000D01*
G01*
X172900000Y-77480000D01*
G75*
G02*
X172725000Y-77655000I-175000J0D01*
G01*
X171025000Y-77655000D01*
G75*
G02*
X170850000Y-77480000I0J175000D01*
G01*
G37*
D18*
X193540000Y-92100000D03*
D19*
X191000000Y-92100000D03*
X193540000Y-94640000D03*
X191000000Y-94640000D03*
X193540000Y-97180000D03*
X191000000Y-97180000D03*
X193540000Y-99720000D03*
X191000000Y-99720000D03*
X193540000Y-102260000D03*
X191000000Y-102260000D03*
X193540000Y-104800000D03*
X191000000Y-104800000D03*
D15*
X158800000Y-97450000D03*
D14*
X161340000Y-97450000D03*
M02*
