G04 #@! TF.GenerationSoftware,KiCad,Pcbnew,(5.1.6-0-10_14)*
G04 #@! TF.CreationDate,2020-10-10T00:55:13+02:00*
G04 #@! TF.ProjectId,ka3005p_displaydriver,6b613330-3035-4705-9f64-6973706c6179,rev?*
G04 #@! TF.SameCoordinates,Original*
G04 #@! TF.FileFunction,Copper,L1,Top*
G04 #@! TF.FilePolarity,Positive*
%FSLAX46Y46*%
G04 Gerber Fmt 4.6, Leading zero omitted, Abs format (unit mm)*
G04 Created by KiCad (PCBNEW (5.1.6-0-10_14)) date 2020-10-10 00:55:13*
%MOMM*%
%LPD*%
G01*
G04 APERTURE LIST*
G04 #@! TA.AperFunction,NonConductor*
%ADD10C,0.100000*%
G04 #@! TD*
G04 #@! TA.AperFunction,WasherPad*
%ADD11C,3.500000*%
G04 #@! TD*
G04 #@! TA.AperFunction,ComponentPad*
%ADD12C,1.524000*%
G04 #@! TD*
G04 #@! TA.AperFunction,ComponentPad*
%ADD13R,1.524000X1.524000*%
G04 #@! TD*
G04 #@! TA.AperFunction,SMDPad,CuDef*
%ADD14R,0.900000X0.800000*%
G04 #@! TD*
G04 #@! TA.AperFunction,ComponentPad*
%ADD15R,1.800000X1.800000*%
G04 #@! TD*
G04 #@! TA.AperFunction,ComponentPad*
%ADD16C,1.800000*%
G04 #@! TD*
G04 #@! TA.AperFunction,SMDPad,CuDef*
%ADD17R,1.500000X2.000000*%
G04 #@! TD*
G04 #@! TA.AperFunction,SMDPad,CuDef*
%ADD18R,3.800000X2.000000*%
G04 #@! TD*
G04 #@! TA.AperFunction,ComponentPad*
%ADD19R,1.700000X1.700000*%
G04 #@! TD*
G04 #@! TA.AperFunction,ComponentPad*
%ADD20O,1.700000X1.700000*%
G04 #@! TD*
G04 #@! TA.AperFunction,ViaPad*
%ADD21C,0.800000*%
G04 #@! TD*
G04 #@! TA.AperFunction,ViaPad*
%ADD22C,1.000000*%
G04 #@! TD*
G04 #@! TA.AperFunction,ViaPad*
%ADD23C,1.200000*%
G04 #@! TD*
G04 #@! TA.AperFunction,ViaPad*
%ADD24C,2.000000*%
G04 #@! TD*
G04 #@! TA.AperFunction,Conductor*
%ADD25C,0.500000*%
G04 #@! TD*
G04 #@! TA.AperFunction,Conductor*
%ADD26C,0.400000*%
G04 #@! TD*
G04 #@! TA.AperFunction,Conductor*
%ADD27C,1.000000*%
G04 #@! TD*
G04 #@! TA.AperFunction,Conductor*
%ADD28C,0.254000*%
G04 #@! TD*
G04 APERTURE END LIST*
D10*
G36*
X190470000Y-93430000D02*
G01*
X189990000Y-94000000D01*
X189910000Y-93930000D01*
X190400000Y-93370000D01*
X190470000Y-93430000D01*
G37*
D11*
X102500000Y-112600000D03*
X196600000Y-112600000D03*
X196600000Y-72500000D03*
X102500000Y-72500000D03*
G04 #@! TA.AperFunction,SMDPad,CuDef*
G36*
G01*
X189155000Y-89620001D02*
X189155000Y-88719999D01*
G75*
G02*
X189404999Y-88470000I249999J0D01*
G01*
X190055001Y-88470000D01*
G75*
G02*
X190305000Y-88719999I0J-249999D01*
G01*
X190305000Y-89620001D01*
G75*
G02*
X190055001Y-89870000I-249999J0D01*
G01*
X189404999Y-89870000D01*
G75*
G02*
X189155000Y-89620001I0J249999D01*
G01*
G37*
G04 #@! TD.AperFunction*
G04 #@! TA.AperFunction,SMDPad,CuDef*
G36*
G01*
X187105000Y-89620001D02*
X187105000Y-88719999D01*
G75*
G02*
X187354999Y-88470000I249999J0D01*
G01*
X188005001Y-88470000D01*
G75*
G02*
X188255000Y-88719999I0J-249999D01*
G01*
X188255000Y-89620001D01*
G75*
G02*
X188005001Y-89870000I-249999J0D01*
G01*
X187354999Y-89870000D01*
G75*
G02*
X187105000Y-89620001I0J249999D01*
G01*
G37*
G04 #@! TD.AperFunction*
D12*
X137400000Y-72500000D03*
X134860000Y-72500000D03*
X132320000Y-72500000D03*
X129780000Y-72500000D03*
X127240000Y-72500000D03*
X124700000Y-72500000D03*
X137400000Y-85200000D03*
X134860000Y-85200000D03*
X132320000Y-85200000D03*
X129780000Y-85200000D03*
X127240000Y-85200000D03*
D13*
X124700000Y-85200000D03*
G04 #@! TA.AperFunction,SMDPad,CuDef*
G36*
G01*
X188499999Y-109250000D02*
X189400001Y-109250000D01*
G75*
G02*
X189650000Y-109499999I0J-249999D01*
G01*
X189650000Y-110150001D01*
G75*
G02*
X189400001Y-110400000I-249999J0D01*
G01*
X188499999Y-110400000D01*
G75*
G02*
X188250000Y-110150001I0J249999D01*
G01*
X188250000Y-109499999D01*
G75*
G02*
X188499999Y-109250000I249999J0D01*
G01*
G37*
G04 #@! TD.AperFunction*
G04 #@! TA.AperFunction,SMDPad,CuDef*
G36*
G01*
X188499999Y-107200000D02*
X189400001Y-107200000D01*
G75*
G02*
X189650000Y-107449999I0J-249999D01*
G01*
X189650000Y-108100001D01*
G75*
G02*
X189400001Y-108350000I-249999J0D01*
G01*
X188499999Y-108350000D01*
G75*
G02*
X188250000Y-108100001I0J249999D01*
G01*
X188250000Y-107449999D01*
G75*
G02*
X188499999Y-107200000I249999J0D01*
G01*
G37*
G04 #@! TD.AperFunction*
G04 #@! TA.AperFunction,SMDPad,CuDef*
G36*
G01*
X190699999Y-109250000D02*
X191600001Y-109250000D01*
G75*
G02*
X191850000Y-109499999I0J-249999D01*
G01*
X191850000Y-110150001D01*
G75*
G02*
X191600001Y-110400000I-249999J0D01*
G01*
X190699999Y-110400000D01*
G75*
G02*
X190450000Y-110150001I0J249999D01*
G01*
X190450000Y-109499999D01*
G75*
G02*
X190699999Y-109250000I249999J0D01*
G01*
G37*
G04 #@! TD.AperFunction*
G04 #@! TA.AperFunction,SMDPad,CuDef*
G36*
G01*
X190699999Y-107200000D02*
X191600001Y-107200000D01*
G75*
G02*
X191850000Y-107449999I0J-249999D01*
G01*
X191850000Y-108100001D01*
G75*
G02*
X191600001Y-108350000I-249999J0D01*
G01*
X190699999Y-108350000D01*
G75*
G02*
X190450000Y-108100001I0J249999D01*
G01*
X190450000Y-107449999D01*
G75*
G02*
X190699999Y-107200000I249999J0D01*
G01*
G37*
G04 #@! TD.AperFunction*
G04 #@! TA.AperFunction,SMDPad,CuDef*
G36*
G01*
X192899999Y-109250000D02*
X193800001Y-109250000D01*
G75*
G02*
X194050000Y-109499999I0J-249999D01*
G01*
X194050000Y-110150001D01*
G75*
G02*
X193800001Y-110400000I-249999J0D01*
G01*
X192899999Y-110400000D01*
G75*
G02*
X192650000Y-110150001I0J249999D01*
G01*
X192650000Y-109499999D01*
G75*
G02*
X192899999Y-109250000I249999J0D01*
G01*
G37*
G04 #@! TD.AperFunction*
G04 #@! TA.AperFunction,SMDPad,CuDef*
G36*
G01*
X192899999Y-107200000D02*
X193800001Y-107200000D01*
G75*
G02*
X194050000Y-107449999I0J-249999D01*
G01*
X194050000Y-108100001D01*
G75*
G02*
X193800001Y-108350000I-249999J0D01*
G01*
X192899999Y-108350000D01*
G75*
G02*
X192650000Y-108100001I0J249999D01*
G01*
X192650000Y-107449999D01*
G75*
G02*
X192899999Y-107200000I249999J0D01*
G01*
G37*
G04 #@! TD.AperFunction*
D14*
X175950000Y-110650000D03*
X177950000Y-109700000D03*
X177950000Y-111600000D03*
D12*
X137420000Y-94000000D03*
X134880000Y-94000000D03*
X132340000Y-94000000D03*
X129800000Y-94000000D03*
X127260000Y-94000000D03*
X124720000Y-94000000D03*
X137420000Y-106700000D03*
X134880000Y-106700000D03*
X132340000Y-106700000D03*
X129800000Y-106700000D03*
X127260000Y-106700000D03*
D13*
X124720000Y-106700000D03*
D14*
X180350000Y-110650000D03*
X182350000Y-109700000D03*
X182350000Y-111600000D03*
D15*
X161340000Y-81800000D03*
D16*
X158800000Y-81800000D03*
D15*
X184640000Y-73650000D03*
D16*
X182100000Y-73650000D03*
D15*
X184640000Y-97500000D03*
D16*
X182100000Y-97500000D03*
D15*
X161340000Y-105300000D03*
D16*
X158800000Y-105300000D03*
D15*
X184640000Y-89600000D03*
D16*
X182100000Y-89600000D03*
D15*
X161340000Y-89600000D03*
D16*
X158800000Y-89600000D03*
D15*
X161340000Y-73900000D03*
D16*
X158800000Y-73900000D03*
D15*
X184640000Y-81800000D03*
D16*
X182100000Y-81800000D03*
D15*
X184640000Y-105300000D03*
D16*
X182100000Y-105300000D03*
G04 #@! TA.AperFunction,SMDPad,CuDef*
G36*
G01*
X196025000Y-107449999D02*
X196025000Y-108350001D01*
G75*
G02*
X195775001Y-108600000I-249999J0D01*
G01*
X195124999Y-108600000D01*
G75*
G02*
X194875000Y-108350001I0J249999D01*
G01*
X194875000Y-107449999D01*
G75*
G02*
X195124999Y-107200000I249999J0D01*
G01*
X195775001Y-107200000D01*
G75*
G02*
X196025000Y-107449999I0J-249999D01*
G01*
G37*
G04 #@! TD.AperFunction*
G04 #@! TA.AperFunction,SMDPad,CuDef*
G36*
G01*
X198075000Y-107449999D02*
X198075000Y-108350001D01*
G75*
G02*
X197825001Y-108600000I-249999J0D01*
G01*
X197174999Y-108600000D01*
G75*
G02*
X196925000Y-108350001I0J249999D01*
G01*
X196925000Y-107449999D01*
G75*
G02*
X197174999Y-107200000I249999J0D01*
G01*
X197825001Y-107200000D01*
G75*
G02*
X198075000Y-107449999I0J-249999D01*
G01*
G37*
G04 #@! TD.AperFunction*
G04 #@! TA.AperFunction,SMDPad,CuDef*
G36*
G01*
X186299999Y-109250000D02*
X187200001Y-109250000D01*
G75*
G02*
X187450000Y-109499999I0J-249999D01*
G01*
X187450000Y-110150001D01*
G75*
G02*
X187200001Y-110400000I-249999J0D01*
G01*
X186299999Y-110400000D01*
G75*
G02*
X186050000Y-110150001I0J249999D01*
G01*
X186050000Y-109499999D01*
G75*
G02*
X186299999Y-109250000I249999J0D01*
G01*
G37*
G04 #@! TD.AperFunction*
G04 #@! TA.AperFunction,SMDPad,CuDef*
G36*
G01*
X186299999Y-107200000D02*
X187200001Y-107200000D01*
G75*
G02*
X187450000Y-107449999I0J-249999D01*
G01*
X187450000Y-108100001D01*
G75*
G02*
X187200001Y-108350000I-249999J0D01*
G01*
X186299999Y-108350000D01*
G75*
G02*
X186050000Y-108100001I0J249999D01*
G01*
X186050000Y-107449999D01*
G75*
G02*
X186299999Y-107200000I249999J0D01*
G01*
G37*
G04 #@! TD.AperFunction*
D14*
X162750000Y-110650000D03*
X164750000Y-109700000D03*
X164750000Y-111600000D03*
X171550000Y-110650000D03*
X173550000Y-109700000D03*
X173550000Y-111600000D03*
X167150000Y-110650000D03*
X169150000Y-109700000D03*
X169150000Y-111600000D03*
D17*
X187550000Y-86850000D03*
X192150000Y-86850000D03*
X189850000Y-86850000D03*
D18*
X189850000Y-80550000D03*
G04 #@! TA.AperFunction,SMDPad,CuDef*
G36*
G01*
X166200000Y-106550001D02*
X166200000Y-105649999D01*
G75*
G02*
X166449999Y-105400000I249999J0D01*
G01*
X167100001Y-105400000D01*
G75*
G02*
X167350000Y-105649999I0J-249999D01*
G01*
X167350000Y-106550001D01*
G75*
G02*
X167100001Y-106800000I-249999J0D01*
G01*
X166449999Y-106800000D01*
G75*
G02*
X166200000Y-106550001I0J249999D01*
G01*
G37*
G04 #@! TD.AperFunction*
G04 #@! TA.AperFunction,SMDPad,CuDef*
G36*
G01*
X164150000Y-106550001D02*
X164150000Y-105649999D01*
G75*
G02*
X164399999Y-105400000I249999J0D01*
G01*
X165050001Y-105400000D01*
G75*
G02*
X165300000Y-105649999I0J-249999D01*
G01*
X165300000Y-106550001D01*
G75*
G02*
X165050001Y-106800000I-249999J0D01*
G01*
X164399999Y-106800000D01*
G75*
G02*
X164150000Y-106550001I0J249999D01*
G01*
G37*
G04 #@! TD.AperFunction*
G04 #@! TA.AperFunction,SMDPad,CuDef*
G36*
G01*
X166205000Y-91150001D02*
X166205000Y-90249999D01*
G75*
G02*
X166454999Y-90000000I249999J0D01*
G01*
X167105001Y-90000000D01*
G75*
G02*
X167355000Y-90249999I0J-249999D01*
G01*
X167355000Y-91150001D01*
G75*
G02*
X167105001Y-91400000I-249999J0D01*
G01*
X166454999Y-91400000D01*
G75*
G02*
X166205000Y-91150001I0J249999D01*
G01*
G37*
G04 #@! TD.AperFunction*
G04 #@! TA.AperFunction,SMDPad,CuDef*
G36*
G01*
X164155000Y-91150001D02*
X164155000Y-90249999D01*
G75*
G02*
X164404999Y-90000000I249999J0D01*
G01*
X165055001Y-90000000D01*
G75*
G02*
X165305000Y-90249999I0J-249999D01*
G01*
X165305000Y-91150001D01*
G75*
G02*
X165055001Y-91400000I-249999J0D01*
G01*
X164404999Y-91400000D01*
G75*
G02*
X164155000Y-91150001I0J249999D01*
G01*
G37*
G04 #@! TD.AperFunction*
G04 #@! TA.AperFunction,SMDPad,CuDef*
G36*
G01*
X166205000Y-93350001D02*
X166205000Y-92449999D01*
G75*
G02*
X166454999Y-92200000I249999J0D01*
G01*
X167105001Y-92200000D01*
G75*
G02*
X167355000Y-92449999I0J-249999D01*
G01*
X167355000Y-93350001D01*
G75*
G02*
X167105001Y-93600000I-249999J0D01*
G01*
X166454999Y-93600000D01*
G75*
G02*
X166205000Y-93350001I0J249999D01*
G01*
G37*
G04 #@! TD.AperFunction*
G04 #@! TA.AperFunction,SMDPad,CuDef*
G36*
G01*
X164155000Y-93350001D02*
X164155000Y-92449999D01*
G75*
G02*
X164404999Y-92200000I249999J0D01*
G01*
X165055001Y-92200000D01*
G75*
G02*
X165305000Y-92449999I0J-249999D01*
G01*
X165305000Y-93350001D01*
G75*
G02*
X165055001Y-93600000I-249999J0D01*
G01*
X164404999Y-93600000D01*
G75*
G02*
X164155000Y-93350001I0J249999D01*
G01*
G37*
G04 #@! TD.AperFunction*
G04 #@! TA.AperFunction,SMDPad,CuDef*
G36*
G01*
X166205000Y-95550001D02*
X166205000Y-94649999D01*
G75*
G02*
X166454999Y-94400000I249999J0D01*
G01*
X167105001Y-94400000D01*
G75*
G02*
X167355000Y-94649999I0J-249999D01*
G01*
X167355000Y-95550001D01*
G75*
G02*
X167105001Y-95800000I-249999J0D01*
G01*
X166454999Y-95800000D01*
G75*
G02*
X166205000Y-95550001I0J249999D01*
G01*
G37*
G04 #@! TD.AperFunction*
G04 #@! TA.AperFunction,SMDPad,CuDef*
G36*
G01*
X164155000Y-95550001D02*
X164155000Y-94649999D01*
G75*
G02*
X164404999Y-94400000I249999J0D01*
G01*
X165055001Y-94400000D01*
G75*
G02*
X165305000Y-94649999I0J-249999D01*
G01*
X165305000Y-95550001D01*
G75*
G02*
X165055001Y-95800000I-249999J0D01*
G01*
X164404999Y-95800000D01*
G75*
G02*
X164155000Y-95550001I0J249999D01*
G01*
G37*
G04 #@! TD.AperFunction*
G04 #@! TA.AperFunction,SMDPad,CuDef*
G36*
G01*
X166205000Y-97750001D02*
X166205000Y-96849999D01*
G75*
G02*
X166454999Y-96600000I249999J0D01*
G01*
X167105001Y-96600000D01*
G75*
G02*
X167355000Y-96849999I0J-249999D01*
G01*
X167355000Y-97750001D01*
G75*
G02*
X167105001Y-98000000I-249999J0D01*
G01*
X166454999Y-98000000D01*
G75*
G02*
X166205000Y-97750001I0J249999D01*
G01*
G37*
G04 #@! TD.AperFunction*
G04 #@! TA.AperFunction,SMDPad,CuDef*
G36*
G01*
X164155000Y-97750001D02*
X164155000Y-96849999D01*
G75*
G02*
X164404999Y-96600000I249999J0D01*
G01*
X165055001Y-96600000D01*
G75*
G02*
X165305000Y-96849999I0J-249999D01*
G01*
X165305000Y-97750001D01*
G75*
G02*
X165055001Y-98000000I-249999J0D01*
G01*
X164404999Y-98000000D01*
G75*
G02*
X164155000Y-97750001I0J249999D01*
G01*
G37*
G04 #@! TD.AperFunction*
G04 #@! TA.AperFunction,SMDPad,CuDef*
G36*
G01*
X166205000Y-99950001D02*
X166205000Y-99049999D01*
G75*
G02*
X166454999Y-98800000I249999J0D01*
G01*
X167105001Y-98800000D01*
G75*
G02*
X167355000Y-99049999I0J-249999D01*
G01*
X167355000Y-99950001D01*
G75*
G02*
X167105001Y-100200000I-249999J0D01*
G01*
X166454999Y-100200000D01*
G75*
G02*
X166205000Y-99950001I0J249999D01*
G01*
G37*
G04 #@! TD.AperFunction*
G04 #@! TA.AperFunction,SMDPad,CuDef*
G36*
G01*
X164155000Y-99950001D02*
X164155000Y-99049999D01*
G75*
G02*
X164404999Y-98800000I249999J0D01*
G01*
X165055001Y-98800000D01*
G75*
G02*
X165305000Y-99049999I0J-249999D01*
G01*
X165305000Y-99950001D01*
G75*
G02*
X165055001Y-100200000I-249999J0D01*
G01*
X164404999Y-100200000D01*
G75*
G02*
X164155000Y-99950001I0J249999D01*
G01*
G37*
G04 #@! TD.AperFunction*
G04 #@! TA.AperFunction,SMDPad,CuDef*
G36*
G01*
X166205000Y-102150001D02*
X166205000Y-101249999D01*
G75*
G02*
X166454999Y-101000000I249999J0D01*
G01*
X167105001Y-101000000D01*
G75*
G02*
X167355000Y-101249999I0J-249999D01*
G01*
X167355000Y-102150001D01*
G75*
G02*
X167105001Y-102400000I-249999J0D01*
G01*
X166454999Y-102400000D01*
G75*
G02*
X166205000Y-102150001I0J249999D01*
G01*
G37*
G04 #@! TD.AperFunction*
G04 #@! TA.AperFunction,SMDPad,CuDef*
G36*
G01*
X164155000Y-102150001D02*
X164155000Y-101249999D01*
G75*
G02*
X164404999Y-101000000I249999J0D01*
G01*
X165055001Y-101000000D01*
G75*
G02*
X165305000Y-101249999I0J-249999D01*
G01*
X165305000Y-102150001D01*
G75*
G02*
X165055001Y-102400000I-249999J0D01*
G01*
X164404999Y-102400000D01*
G75*
G02*
X164155000Y-102150001I0J249999D01*
G01*
G37*
G04 #@! TD.AperFunction*
G04 #@! TA.AperFunction,SMDPad,CuDef*
G36*
G01*
X166205000Y-104350001D02*
X166205000Y-103449999D01*
G75*
G02*
X166454999Y-103200000I249999J0D01*
G01*
X167105001Y-103200000D01*
G75*
G02*
X167355000Y-103449999I0J-249999D01*
G01*
X167355000Y-104350001D01*
G75*
G02*
X167105001Y-104600000I-249999J0D01*
G01*
X166454999Y-104600000D01*
G75*
G02*
X166205000Y-104350001I0J249999D01*
G01*
G37*
G04 #@! TD.AperFunction*
G04 #@! TA.AperFunction,SMDPad,CuDef*
G36*
G01*
X164155000Y-104350001D02*
X164155000Y-103449999D01*
G75*
G02*
X164404999Y-103200000I249999J0D01*
G01*
X165055001Y-103200000D01*
G75*
G02*
X165305000Y-103449999I0J-249999D01*
G01*
X165305000Y-104350001D01*
G75*
G02*
X165055001Y-104600000I-249999J0D01*
G01*
X164404999Y-104600000D01*
G75*
G02*
X164155000Y-104350001I0J249999D01*
G01*
G37*
G04 #@! TD.AperFunction*
G04 #@! TA.AperFunction,SMDPad,CuDef*
G36*
G01*
X166200000Y-88950001D02*
X166200000Y-88049999D01*
G75*
G02*
X166449999Y-87800000I249999J0D01*
G01*
X167100001Y-87800000D01*
G75*
G02*
X167350000Y-88049999I0J-249999D01*
G01*
X167350000Y-88950001D01*
G75*
G02*
X167100001Y-89200000I-249999J0D01*
G01*
X166449999Y-89200000D01*
G75*
G02*
X166200000Y-88950001I0J249999D01*
G01*
G37*
G04 #@! TD.AperFunction*
G04 #@! TA.AperFunction,SMDPad,CuDef*
G36*
G01*
X164150000Y-88950001D02*
X164150000Y-88049999D01*
G75*
G02*
X164399999Y-87800000I249999J0D01*
G01*
X165050001Y-87800000D01*
G75*
G02*
X165300000Y-88049999I0J-249999D01*
G01*
X165300000Y-88950001D01*
G75*
G02*
X165050001Y-89200000I-249999J0D01*
G01*
X164399999Y-89200000D01*
G75*
G02*
X164150000Y-88950001I0J249999D01*
G01*
G37*
G04 #@! TD.AperFunction*
G04 #@! TA.AperFunction,SMDPad,CuDef*
G36*
G01*
X166205000Y-75750001D02*
X166205000Y-74849999D01*
G75*
G02*
X166454999Y-74600000I249999J0D01*
G01*
X167105001Y-74600000D01*
G75*
G02*
X167355000Y-74849999I0J-249999D01*
G01*
X167355000Y-75750001D01*
G75*
G02*
X167105001Y-76000000I-249999J0D01*
G01*
X166454999Y-76000000D01*
G75*
G02*
X166205000Y-75750001I0J249999D01*
G01*
G37*
G04 #@! TD.AperFunction*
G04 #@! TA.AperFunction,SMDPad,CuDef*
G36*
G01*
X164155000Y-75750001D02*
X164155000Y-74849999D01*
G75*
G02*
X164404999Y-74600000I249999J0D01*
G01*
X165055001Y-74600000D01*
G75*
G02*
X165305000Y-74849999I0J-249999D01*
G01*
X165305000Y-75750001D01*
G75*
G02*
X165055001Y-76000000I-249999J0D01*
G01*
X164404999Y-76000000D01*
G75*
G02*
X164155000Y-75750001I0J249999D01*
G01*
G37*
G04 #@! TD.AperFunction*
G04 #@! TA.AperFunction,SMDPad,CuDef*
G36*
G01*
X166195000Y-77950001D02*
X166195000Y-77049999D01*
G75*
G02*
X166444999Y-76800000I249999J0D01*
G01*
X167095001Y-76800000D01*
G75*
G02*
X167345000Y-77049999I0J-249999D01*
G01*
X167345000Y-77950001D01*
G75*
G02*
X167095001Y-78200000I-249999J0D01*
G01*
X166444999Y-78200000D01*
G75*
G02*
X166195000Y-77950001I0J249999D01*
G01*
G37*
G04 #@! TD.AperFunction*
G04 #@! TA.AperFunction,SMDPad,CuDef*
G36*
G01*
X164145000Y-77950001D02*
X164145000Y-77049999D01*
G75*
G02*
X164394999Y-76800000I249999J0D01*
G01*
X165045001Y-76800000D01*
G75*
G02*
X165295000Y-77049999I0J-249999D01*
G01*
X165295000Y-77950001D01*
G75*
G02*
X165045001Y-78200000I-249999J0D01*
G01*
X164394999Y-78200000D01*
G75*
G02*
X164145000Y-77950001I0J249999D01*
G01*
G37*
G04 #@! TD.AperFunction*
G04 #@! TA.AperFunction,SMDPad,CuDef*
G36*
G01*
X166205000Y-80150001D02*
X166205000Y-79249999D01*
G75*
G02*
X166454999Y-79000000I249999J0D01*
G01*
X167105001Y-79000000D01*
G75*
G02*
X167355000Y-79249999I0J-249999D01*
G01*
X167355000Y-80150001D01*
G75*
G02*
X167105001Y-80400000I-249999J0D01*
G01*
X166454999Y-80400000D01*
G75*
G02*
X166205000Y-80150001I0J249999D01*
G01*
G37*
G04 #@! TD.AperFunction*
G04 #@! TA.AperFunction,SMDPad,CuDef*
G36*
G01*
X164155000Y-80150001D02*
X164155000Y-79249999D01*
G75*
G02*
X164404999Y-79000000I249999J0D01*
G01*
X165055001Y-79000000D01*
G75*
G02*
X165305000Y-79249999I0J-249999D01*
G01*
X165305000Y-80150001D01*
G75*
G02*
X165055001Y-80400000I-249999J0D01*
G01*
X164404999Y-80400000D01*
G75*
G02*
X164155000Y-80150001I0J249999D01*
G01*
G37*
G04 #@! TD.AperFunction*
G04 #@! TA.AperFunction,SMDPad,CuDef*
G36*
G01*
X166195000Y-82350001D02*
X166195000Y-81449999D01*
G75*
G02*
X166444999Y-81200000I249999J0D01*
G01*
X167095001Y-81200000D01*
G75*
G02*
X167345000Y-81449999I0J-249999D01*
G01*
X167345000Y-82350001D01*
G75*
G02*
X167095001Y-82600000I-249999J0D01*
G01*
X166444999Y-82600000D01*
G75*
G02*
X166195000Y-82350001I0J249999D01*
G01*
G37*
G04 #@! TD.AperFunction*
G04 #@! TA.AperFunction,SMDPad,CuDef*
G36*
G01*
X164145000Y-82350001D02*
X164145000Y-81449999D01*
G75*
G02*
X164394999Y-81200000I249999J0D01*
G01*
X165045001Y-81200000D01*
G75*
G02*
X165295000Y-81449999I0J-249999D01*
G01*
X165295000Y-82350001D01*
G75*
G02*
X165045001Y-82600000I-249999J0D01*
G01*
X164394999Y-82600000D01*
G75*
G02*
X164145000Y-82350001I0J249999D01*
G01*
G37*
G04 #@! TD.AperFunction*
G04 #@! TA.AperFunction,SMDPad,CuDef*
G36*
G01*
X166205000Y-73550001D02*
X166205000Y-72649999D01*
G75*
G02*
X166454999Y-72400000I249999J0D01*
G01*
X167105001Y-72400000D01*
G75*
G02*
X167355000Y-72649999I0J-249999D01*
G01*
X167355000Y-73550001D01*
G75*
G02*
X167105001Y-73800000I-249999J0D01*
G01*
X166454999Y-73800000D01*
G75*
G02*
X166205000Y-73550001I0J249999D01*
G01*
G37*
G04 #@! TD.AperFunction*
G04 #@! TA.AperFunction,SMDPad,CuDef*
G36*
G01*
X164155000Y-73550001D02*
X164155000Y-72649999D01*
G75*
G02*
X164404999Y-72400000I249999J0D01*
G01*
X165055001Y-72400000D01*
G75*
G02*
X165305000Y-72649999I0J-249999D01*
G01*
X165305000Y-73550001D01*
G75*
G02*
X165055001Y-73800000I-249999J0D01*
G01*
X164404999Y-73800000D01*
G75*
G02*
X164155000Y-73550001I0J249999D01*
G01*
G37*
G04 #@! TD.AperFunction*
G04 #@! TA.AperFunction,SMDPad,CuDef*
G36*
G01*
X164145000Y-84550001D02*
X164145000Y-83649999D01*
G75*
G02*
X164394999Y-83400000I249999J0D01*
G01*
X165045001Y-83400000D01*
G75*
G02*
X165295000Y-83649999I0J-249999D01*
G01*
X165295000Y-84550001D01*
G75*
G02*
X165045001Y-84800000I-249999J0D01*
G01*
X164394999Y-84800000D01*
G75*
G02*
X164145000Y-84550001I0J249999D01*
G01*
G37*
G04 #@! TD.AperFunction*
G04 #@! TA.AperFunction,SMDPad,CuDef*
G36*
G01*
X166195000Y-84550001D02*
X166195000Y-83649999D01*
G75*
G02*
X166444999Y-83400000I249999J0D01*
G01*
X167095001Y-83400000D01*
G75*
G02*
X167345000Y-83649999I0J-249999D01*
G01*
X167345000Y-84550001D01*
G75*
G02*
X167095001Y-84800000I-249999J0D01*
G01*
X166444999Y-84800000D01*
G75*
G02*
X166195000Y-84550001I0J249999D01*
G01*
G37*
G04 #@! TD.AperFunction*
G04 #@! TA.AperFunction,SMDPad,CuDef*
G36*
G01*
X166195000Y-86750001D02*
X166195000Y-85849999D01*
G75*
G02*
X166444999Y-85600000I249999J0D01*
G01*
X167095001Y-85600000D01*
G75*
G02*
X167345000Y-85849999I0J-249999D01*
G01*
X167345000Y-86750001D01*
G75*
G02*
X167095001Y-87000000I-249999J0D01*
G01*
X166444999Y-87000000D01*
G75*
G02*
X166195000Y-86750001I0J249999D01*
G01*
G37*
G04 #@! TD.AperFunction*
G04 #@! TA.AperFunction,SMDPad,CuDef*
G36*
G01*
X164145000Y-86750001D02*
X164145000Y-85849999D01*
G75*
G02*
X164394999Y-85600000I249999J0D01*
G01*
X165045001Y-85600000D01*
G75*
G02*
X165295000Y-85849999I0J-249999D01*
G01*
X165295000Y-86750001D01*
G75*
G02*
X165045001Y-87000000I-249999J0D01*
G01*
X164394999Y-87000000D01*
G75*
G02*
X164145000Y-86750001I0J249999D01*
G01*
G37*
G04 #@! TD.AperFunction*
G04 #@! TA.AperFunction,SMDPad,CuDef*
G36*
G01*
X175875000Y-92655000D02*
X175875000Y-92355000D01*
G75*
G02*
X176025000Y-92205000I150000J0D01*
G01*
X177675000Y-92205000D01*
G75*
G02*
X177825000Y-92355000I0J-150000D01*
G01*
X177825000Y-92655000D01*
G75*
G02*
X177675000Y-92805000I-150000J0D01*
G01*
X176025000Y-92805000D01*
G75*
G02*
X175875000Y-92655000I0J150000D01*
G01*
G37*
G04 #@! TD.AperFunction*
G04 #@! TA.AperFunction,SMDPad,CuDef*
G36*
G01*
X175875000Y-93925000D02*
X175875000Y-93625000D01*
G75*
G02*
X176025000Y-93475000I150000J0D01*
G01*
X177675000Y-93475000D01*
G75*
G02*
X177825000Y-93625000I0J-150000D01*
G01*
X177825000Y-93925000D01*
G75*
G02*
X177675000Y-94075000I-150000J0D01*
G01*
X176025000Y-94075000D01*
G75*
G02*
X175875000Y-93925000I0J150000D01*
G01*
G37*
G04 #@! TD.AperFunction*
G04 #@! TA.AperFunction,SMDPad,CuDef*
G36*
G01*
X175875000Y-95195000D02*
X175875000Y-94895000D01*
G75*
G02*
X176025000Y-94745000I150000J0D01*
G01*
X177675000Y-94745000D01*
G75*
G02*
X177825000Y-94895000I0J-150000D01*
G01*
X177825000Y-95195000D01*
G75*
G02*
X177675000Y-95345000I-150000J0D01*
G01*
X176025000Y-95345000D01*
G75*
G02*
X175875000Y-95195000I0J150000D01*
G01*
G37*
G04 #@! TD.AperFunction*
G04 #@! TA.AperFunction,SMDPad,CuDef*
G36*
G01*
X175875000Y-96465000D02*
X175875000Y-96165000D01*
G75*
G02*
X176025000Y-96015000I150000J0D01*
G01*
X177675000Y-96015000D01*
G75*
G02*
X177825000Y-96165000I0J-150000D01*
G01*
X177825000Y-96465000D01*
G75*
G02*
X177675000Y-96615000I-150000J0D01*
G01*
X176025000Y-96615000D01*
G75*
G02*
X175875000Y-96465000I0J150000D01*
G01*
G37*
G04 #@! TD.AperFunction*
G04 #@! TA.AperFunction,SMDPad,CuDef*
G36*
G01*
X175875000Y-97735000D02*
X175875000Y-97435000D01*
G75*
G02*
X176025000Y-97285000I150000J0D01*
G01*
X177675000Y-97285000D01*
G75*
G02*
X177825000Y-97435000I0J-150000D01*
G01*
X177825000Y-97735000D01*
G75*
G02*
X177675000Y-97885000I-150000J0D01*
G01*
X176025000Y-97885000D01*
G75*
G02*
X175875000Y-97735000I0J150000D01*
G01*
G37*
G04 #@! TD.AperFunction*
G04 #@! TA.AperFunction,SMDPad,CuDef*
G36*
G01*
X175875000Y-99005000D02*
X175875000Y-98705000D01*
G75*
G02*
X176025000Y-98555000I150000J0D01*
G01*
X177675000Y-98555000D01*
G75*
G02*
X177825000Y-98705000I0J-150000D01*
G01*
X177825000Y-99005000D01*
G75*
G02*
X177675000Y-99155000I-150000J0D01*
G01*
X176025000Y-99155000D01*
G75*
G02*
X175875000Y-99005000I0J150000D01*
G01*
G37*
G04 #@! TD.AperFunction*
G04 #@! TA.AperFunction,SMDPad,CuDef*
G36*
G01*
X175875000Y-100275000D02*
X175875000Y-99975000D01*
G75*
G02*
X176025000Y-99825000I150000J0D01*
G01*
X177675000Y-99825000D01*
G75*
G02*
X177825000Y-99975000I0J-150000D01*
G01*
X177825000Y-100275000D01*
G75*
G02*
X177675000Y-100425000I-150000J0D01*
G01*
X176025000Y-100425000D01*
G75*
G02*
X175875000Y-100275000I0J150000D01*
G01*
G37*
G04 #@! TD.AperFunction*
G04 #@! TA.AperFunction,SMDPad,CuDef*
G36*
G01*
X175875000Y-101545000D02*
X175875000Y-101245000D01*
G75*
G02*
X176025000Y-101095000I150000J0D01*
G01*
X177675000Y-101095000D01*
G75*
G02*
X177825000Y-101245000I0J-150000D01*
G01*
X177825000Y-101545000D01*
G75*
G02*
X177675000Y-101695000I-150000J0D01*
G01*
X176025000Y-101695000D01*
G75*
G02*
X175875000Y-101545000I0J150000D01*
G01*
G37*
G04 #@! TD.AperFunction*
G04 #@! TA.AperFunction,SMDPad,CuDef*
G36*
G01*
X170925000Y-101545000D02*
X170925000Y-101245000D01*
G75*
G02*
X171075000Y-101095000I150000J0D01*
G01*
X172725000Y-101095000D01*
G75*
G02*
X172875000Y-101245000I0J-150000D01*
G01*
X172875000Y-101545000D01*
G75*
G02*
X172725000Y-101695000I-150000J0D01*
G01*
X171075000Y-101695000D01*
G75*
G02*
X170925000Y-101545000I0J150000D01*
G01*
G37*
G04 #@! TD.AperFunction*
G04 #@! TA.AperFunction,SMDPad,CuDef*
G36*
G01*
X170925000Y-100275000D02*
X170925000Y-99975000D01*
G75*
G02*
X171075000Y-99825000I150000J0D01*
G01*
X172725000Y-99825000D01*
G75*
G02*
X172875000Y-99975000I0J-150000D01*
G01*
X172875000Y-100275000D01*
G75*
G02*
X172725000Y-100425000I-150000J0D01*
G01*
X171075000Y-100425000D01*
G75*
G02*
X170925000Y-100275000I0J150000D01*
G01*
G37*
G04 #@! TD.AperFunction*
G04 #@! TA.AperFunction,SMDPad,CuDef*
G36*
G01*
X170925000Y-99005000D02*
X170925000Y-98705000D01*
G75*
G02*
X171075000Y-98555000I150000J0D01*
G01*
X172725000Y-98555000D01*
G75*
G02*
X172875000Y-98705000I0J-150000D01*
G01*
X172875000Y-99005000D01*
G75*
G02*
X172725000Y-99155000I-150000J0D01*
G01*
X171075000Y-99155000D01*
G75*
G02*
X170925000Y-99005000I0J150000D01*
G01*
G37*
G04 #@! TD.AperFunction*
G04 #@! TA.AperFunction,SMDPad,CuDef*
G36*
G01*
X170925000Y-97735000D02*
X170925000Y-97435000D01*
G75*
G02*
X171075000Y-97285000I150000J0D01*
G01*
X172725000Y-97285000D01*
G75*
G02*
X172875000Y-97435000I0J-150000D01*
G01*
X172875000Y-97735000D01*
G75*
G02*
X172725000Y-97885000I-150000J0D01*
G01*
X171075000Y-97885000D01*
G75*
G02*
X170925000Y-97735000I0J150000D01*
G01*
G37*
G04 #@! TD.AperFunction*
G04 #@! TA.AperFunction,SMDPad,CuDef*
G36*
G01*
X170925000Y-96465000D02*
X170925000Y-96165000D01*
G75*
G02*
X171075000Y-96015000I150000J0D01*
G01*
X172725000Y-96015000D01*
G75*
G02*
X172875000Y-96165000I0J-150000D01*
G01*
X172875000Y-96465000D01*
G75*
G02*
X172725000Y-96615000I-150000J0D01*
G01*
X171075000Y-96615000D01*
G75*
G02*
X170925000Y-96465000I0J150000D01*
G01*
G37*
G04 #@! TD.AperFunction*
G04 #@! TA.AperFunction,SMDPad,CuDef*
G36*
G01*
X170925000Y-95195000D02*
X170925000Y-94895000D01*
G75*
G02*
X171075000Y-94745000I150000J0D01*
G01*
X172725000Y-94745000D01*
G75*
G02*
X172875000Y-94895000I0J-150000D01*
G01*
X172875000Y-95195000D01*
G75*
G02*
X172725000Y-95345000I-150000J0D01*
G01*
X171075000Y-95345000D01*
G75*
G02*
X170925000Y-95195000I0J150000D01*
G01*
G37*
G04 #@! TD.AperFunction*
G04 #@! TA.AperFunction,SMDPad,CuDef*
G36*
G01*
X170925000Y-93925000D02*
X170925000Y-93625000D01*
G75*
G02*
X171075000Y-93475000I150000J0D01*
G01*
X172725000Y-93475000D01*
G75*
G02*
X172875000Y-93625000I0J-150000D01*
G01*
X172875000Y-93925000D01*
G75*
G02*
X172725000Y-94075000I-150000J0D01*
G01*
X171075000Y-94075000D01*
G75*
G02*
X170925000Y-93925000I0J150000D01*
G01*
G37*
G04 #@! TD.AperFunction*
G04 #@! TA.AperFunction,SMDPad,CuDef*
G36*
G01*
X170925000Y-92655000D02*
X170925000Y-92355000D01*
G75*
G02*
X171075000Y-92205000I150000J0D01*
G01*
X172725000Y-92205000D01*
G75*
G02*
X172875000Y-92355000I0J-150000D01*
G01*
X172875000Y-92655000D01*
G75*
G02*
X172725000Y-92805000I-150000J0D01*
G01*
X171075000Y-92805000D01*
G75*
G02*
X170925000Y-92655000I0J150000D01*
G01*
G37*
G04 #@! TD.AperFunction*
G04 #@! TA.AperFunction,SMDPad,CuDef*
G36*
G01*
X175850000Y-77455000D02*
X175850000Y-77155000D01*
G75*
G02*
X176000000Y-77005000I150000J0D01*
G01*
X177650000Y-77005000D01*
G75*
G02*
X177800000Y-77155000I0J-150000D01*
G01*
X177800000Y-77455000D01*
G75*
G02*
X177650000Y-77605000I-150000J0D01*
G01*
X176000000Y-77605000D01*
G75*
G02*
X175850000Y-77455000I0J150000D01*
G01*
G37*
G04 #@! TD.AperFunction*
G04 #@! TA.AperFunction,SMDPad,CuDef*
G36*
G01*
X175850000Y-78725000D02*
X175850000Y-78425000D01*
G75*
G02*
X176000000Y-78275000I150000J0D01*
G01*
X177650000Y-78275000D01*
G75*
G02*
X177800000Y-78425000I0J-150000D01*
G01*
X177800000Y-78725000D01*
G75*
G02*
X177650000Y-78875000I-150000J0D01*
G01*
X176000000Y-78875000D01*
G75*
G02*
X175850000Y-78725000I0J150000D01*
G01*
G37*
G04 #@! TD.AperFunction*
G04 #@! TA.AperFunction,SMDPad,CuDef*
G36*
G01*
X175850000Y-79995000D02*
X175850000Y-79695000D01*
G75*
G02*
X176000000Y-79545000I150000J0D01*
G01*
X177650000Y-79545000D01*
G75*
G02*
X177800000Y-79695000I0J-150000D01*
G01*
X177800000Y-79995000D01*
G75*
G02*
X177650000Y-80145000I-150000J0D01*
G01*
X176000000Y-80145000D01*
G75*
G02*
X175850000Y-79995000I0J150000D01*
G01*
G37*
G04 #@! TD.AperFunction*
G04 #@! TA.AperFunction,SMDPad,CuDef*
G36*
G01*
X175850000Y-81265000D02*
X175850000Y-80965000D01*
G75*
G02*
X176000000Y-80815000I150000J0D01*
G01*
X177650000Y-80815000D01*
G75*
G02*
X177800000Y-80965000I0J-150000D01*
G01*
X177800000Y-81265000D01*
G75*
G02*
X177650000Y-81415000I-150000J0D01*
G01*
X176000000Y-81415000D01*
G75*
G02*
X175850000Y-81265000I0J150000D01*
G01*
G37*
G04 #@! TD.AperFunction*
G04 #@! TA.AperFunction,SMDPad,CuDef*
G36*
G01*
X175850000Y-82535000D02*
X175850000Y-82235000D01*
G75*
G02*
X176000000Y-82085000I150000J0D01*
G01*
X177650000Y-82085000D01*
G75*
G02*
X177800000Y-82235000I0J-150000D01*
G01*
X177800000Y-82535000D01*
G75*
G02*
X177650000Y-82685000I-150000J0D01*
G01*
X176000000Y-82685000D01*
G75*
G02*
X175850000Y-82535000I0J150000D01*
G01*
G37*
G04 #@! TD.AperFunction*
G04 #@! TA.AperFunction,SMDPad,CuDef*
G36*
G01*
X175850000Y-83805000D02*
X175850000Y-83505000D01*
G75*
G02*
X176000000Y-83355000I150000J0D01*
G01*
X177650000Y-83355000D01*
G75*
G02*
X177800000Y-83505000I0J-150000D01*
G01*
X177800000Y-83805000D01*
G75*
G02*
X177650000Y-83955000I-150000J0D01*
G01*
X176000000Y-83955000D01*
G75*
G02*
X175850000Y-83805000I0J150000D01*
G01*
G37*
G04 #@! TD.AperFunction*
G04 #@! TA.AperFunction,SMDPad,CuDef*
G36*
G01*
X175850000Y-85075000D02*
X175850000Y-84775000D01*
G75*
G02*
X176000000Y-84625000I150000J0D01*
G01*
X177650000Y-84625000D01*
G75*
G02*
X177800000Y-84775000I0J-150000D01*
G01*
X177800000Y-85075000D01*
G75*
G02*
X177650000Y-85225000I-150000J0D01*
G01*
X176000000Y-85225000D01*
G75*
G02*
X175850000Y-85075000I0J150000D01*
G01*
G37*
G04 #@! TD.AperFunction*
G04 #@! TA.AperFunction,SMDPad,CuDef*
G36*
G01*
X175850000Y-86345000D02*
X175850000Y-86045000D01*
G75*
G02*
X176000000Y-85895000I150000J0D01*
G01*
X177650000Y-85895000D01*
G75*
G02*
X177800000Y-86045000I0J-150000D01*
G01*
X177800000Y-86345000D01*
G75*
G02*
X177650000Y-86495000I-150000J0D01*
G01*
X176000000Y-86495000D01*
G75*
G02*
X175850000Y-86345000I0J150000D01*
G01*
G37*
G04 #@! TD.AperFunction*
G04 #@! TA.AperFunction,SMDPad,CuDef*
G36*
G01*
X170900000Y-86345000D02*
X170900000Y-86045000D01*
G75*
G02*
X171050000Y-85895000I150000J0D01*
G01*
X172700000Y-85895000D01*
G75*
G02*
X172850000Y-86045000I0J-150000D01*
G01*
X172850000Y-86345000D01*
G75*
G02*
X172700000Y-86495000I-150000J0D01*
G01*
X171050000Y-86495000D01*
G75*
G02*
X170900000Y-86345000I0J150000D01*
G01*
G37*
G04 #@! TD.AperFunction*
G04 #@! TA.AperFunction,SMDPad,CuDef*
G36*
G01*
X170900000Y-85075000D02*
X170900000Y-84775000D01*
G75*
G02*
X171050000Y-84625000I150000J0D01*
G01*
X172700000Y-84625000D01*
G75*
G02*
X172850000Y-84775000I0J-150000D01*
G01*
X172850000Y-85075000D01*
G75*
G02*
X172700000Y-85225000I-150000J0D01*
G01*
X171050000Y-85225000D01*
G75*
G02*
X170900000Y-85075000I0J150000D01*
G01*
G37*
G04 #@! TD.AperFunction*
G04 #@! TA.AperFunction,SMDPad,CuDef*
G36*
G01*
X170900000Y-83805000D02*
X170900000Y-83505000D01*
G75*
G02*
X171050000Y-83355000I150000J0D01*
G01*
X172700000Y-83355000D01*
G75*
G02*
X172850000Y-83505000I0J-150000D01*
G01*
X172850000Y-83805000D01*
G75*
G02*
X172700000Y-83955000I-150000J0D01*
G01*
X171050000Y-83955000D01*
G75*
G02*
X170900000Y-83805000I0J150000D01*
G01*
G37*
G04 #@! TD.AperFunction*
G04 #@! TA.AperFunction,SMDPad,CuDef*
G36*
G01*
X170900000Y-82535000D02*
X170900000Y-82235000D01*
G75*
G02*
X171050000Y-82085000I150000J0D01*
G01*
X172700000Y-82085000D01*
G75*
G02*
X172850000Y-82235000I0J-150000D01*
G01*
X172850000Y-82535000D01*
G75*
G02*
X172700000Y-82685000I-150000J0D01*
G01*
X171050000Y-82685000D01*
G75*
G02*
X170900000Y-82535000I0J150000D01*
G01*
G37*
G04 #@! TD.AperFunction*
G04 #@! TA.AperFunction,SMDPad,CuDef*
G36*
G01*
X170900000Y-81265000D02*
X170900000Y-80965000D01*
G75*
G02*
X171050000Y-80815000I150000J0D01*
G01*
X172700000Y-80815000D01*
G75*
G02*
X172850000Y-80965000I0J-150000D01*
G01*
X172850000Y-81265000D01*
G75*
G02*
X172700000Y-81415000I-150000J0D01*
G01*
X171050000Y-81415000D01*
G75*
G02*
X170900000Y-81265000I0J150000D01*
G01*
G37*
G04 #@! TD.AperFunction*
G04 #@! TA.AperFunction,SMDPad,CuDef*
G36*
G01*
X170900000Y-79995000D02*
X170900000Y-79695000D01*
G75*
G02*
X171050000Y-79545000I150000J0D01*
G01*
X172700000Y-79545000D01*
G75*
G02*
X172850000Y-79695000I0J-150000D01*
G01*
X172850000Y-79995000D01*
G75*
G02*
X172700000Y-80145000I-150000J0D01*
G01*
X171050000Y-80145000D01*
G75*
G02*
X170900000Y-79995000I0J150000D01*
G01*
G37*
G04 #@! TD.AperFunction*
G04 #@! TA.AperFunction,SMDPad,CuDef*
G36*
G01*
X170900000Y-78725000D02*
X170900000Y-78425000D01*
G75*
G02*
X171050000Y-78275000I150000J0D01*
G01*
X172700000Y-78275000D01*
G75*
G02*
X172850000Y-78425000I0J-150000D01*
G01*
X172850000Y-78725000D01*
G75*
G02*
X172700000Y-78875000I-150000J0D01*
G01*
X171050000Y-78875000D01*
G75*
G02*
X170900000Y-78725000I0J150000D01*
G01*
G37*
G04 #@! TD.AperFunction*
G04 #@! TA.AperFunction,SMDPad,CuDef*
G36*
G01*
X170900000Y-77455000D02*
X170900000Y-77155000D01*
G75*
G02*
X171050000Y-77005000I150000J0D01*
G01*
X172700000Y-77005000D01*
G75*
G02*
X172850000Y-77155000I0J-150000D01*
G01*
X172850000Y-77455000D01*
G75*
G02*
X172700000Y-77605000I-150000J0D01*
G01*
X171050000Y-77605000D01*
G75*
G02*
X170900000Y-77455000I0J150000D01*
G01*
G37*
G04 #@! TD.AperFunction*
D19*
X193540000Y-92100000D03*
D20*
X191000000Y-92100000D03*
X193540000Y-94640000D03*
X191000000Y-94640000D03*
X193540000Y-97180000D03*
X191000000Y-97180000D03*
X193540000Y-99720000D03*
X191000000Y-99720000D03*
X193540000Y-102260000D03*
X191000000Y-102260000D03*
X193540000Y-104800000D03*
X191000000Y-104800000D03*
D16*
X158800000Y-97450000D03*
D15*
X161340000Y-97450000D03*
D21*
X159950000Y-86300000D03*
X145650000Y-110650000D03*
X163475010Y-76300000D03*
X162150000Y-92000011D03*
X163300000Y-92900000D03*
X162771759Y-102803241D03*
X173800000Y-97750000D03*
X178450000Y-93770000D03*
D22*
X183610000Y-109700000D03*
D21*
X178450000Y-96310000D03*
X179198952Y-109801048D03*
X170300000Y-86200000D03*
X174900000Y-109700000D03*
X178410000Y-81110000D03*
D22*
X179390000Y-103400000D03*
D21*
X166007542Y-109848061D03*
X170353241Y-109896759D03*
X170314953Y-101414953D03*
D22*
X187680000Y-90790000D03*
D21*
X120850000Y-97850000D03*
X120857976Y-99250000D03*
X119900000Y-101600000D03*
X156093735Y-109699990D03*
D23*
X192400000Y-71650000D03*
X189000000Y-71650000D03*
X190700000Y-71650000D03*
X190700000Y-73350000D03*
X189000000Y-73350000D03*
X187300000Y-73350000D03*
X190700000Y-75050000D03*
X192400000Y-75050000D03*
X189000000Y-75050000D03*
X187300000Y-75050000D03*
X190700000Y-76750000D03*
X192400000Y-76750000D03*
X189000000Y-76750000D03*
X187300000Y-76750000D03*
X190700000Y-78450000D03*
X192400000Y-78450000D03*
X189000000Y-78450000D03*
X187300000Y-78450000D03*
X195800000Y-76750000D03*
X194100000Y-76750000D03*
X195800000Y-78500000D03*
X194100000Y-78500000D03*
X197500000Y-78500000D03*
X187300000Y-71650000D03*
X194100000Y-75050000D03*
X192400000Y-73350000D03*
X197500000Y-76750000D03*
D24*
X191350000Y-83700000D03*
X188350000Y-83700000D03*
D22*
X186790000Y-92500000D03*
X186800000Y-96000010D03*
D21*
X178450000Y-95040000D03*
X174800000Y-101750000D03*
X178410000Y-83660000D03*
X178545000Y-98855000D03*
X175020000Y-111580000D03*
D25*
X160150001Y-72549999D02*
X158800000Y-73900000D01*
X164730000Y-73100000D02*
X164179999Y-72549999D01*
X164179999Y-72549999D02*
X160150001Y-72549999D01*
X158800000Y-73900000D02*
X157200000Y-75500000D01*
X140400000Y-75500000D02*
X137400000Y-72500000D01*
X157200000Y-75500000D02*
X140400000Y-75500000D01*
X127240000Y-79014612D02*
X127240000Y-72500000D01*
X122587988Y-83666624D02*
X127240000Y-79014612D01*
X122587988Y-86733376D02*
X122587988Y-83666624D01*
X125754624Y-89900010D02*
X122587988Y-86733376D01*
X156200000Y-86300000D02*
X152599990Y-89900010D01*
X164720000Y-86300000D02*
X156200000Y-86300000D01*
X152599990Y-89900010D02*
X125754624Y-89900010D01*
X160150001Y-88249999D02*
X158800000Y-89600000D01*
X164474999Y-88249999D02*
X160150001Y-88249999D01*
X164725000Y-88500000D02*
X164474999Y-88249999D01*
X162474999Y-103849999D02*
X164725000Y-106100000D01*
X159999999Y-103849999D02*
X162474999Y-103849999D01*
X158800000Y-105049998D02*
X159999999Y-103849999D01*
X158800000Y-105300000D02*
X158800000Y-105049998D01*
X151306788Y-110650000D02*
X145650000Y-110650000D01*
X156656788Y-105300000D02*
X151306788Y-110650000D01*
X158800000Y-105300000D02*
X156656788Y-105300000D01*
X160900000Y-79700000D02*
X158800000Y-81800000D01*
X164730000Y-79700000D02*
X160900000Y-79700000D01*
X143873148Y-81800000D02*
X138361135Y-87312011D01*
X138361135Y-87312011D02*
X129352011Y-87312011D01*
X158800000Y-81800000D02*
X143873148Y-81800000D01*
X129352011Y-87312011D02*
X127240000Y-85200000D01*
X164730000Y-75300000D02*
X163730000Y-76300000D01*
X163730000Y-76300000D02*
X163475010Y-76300000D01*
X132320000Y-85200000D02*
X141220000Y-76300000D01*
X141220000Y-76300000D02*
X163475010Y-76300000D01*
X142749229Y-105387999D02*
X156187238Y-91949990D01*
X132340000Y-106700000D02*
X133652001Y-105387999D01*
X133652001Y-105387999D02*
X142749229Y-105387999D01*
X163480010Y-91949990D02*
X164730000Y-90700000D01*
X156187238Y-91949990D02*
X163480010Y-91949990D01*
X164730000Y-92900000D02*
X163300000Y-92900000D01*
X155968612Y-93299999D02*
X141256610Y-108012001D01*
X162900001Y-93299999D02*
X155968612Y-93299999D01*
X163300000Y-92900000D02*
X162900001Y-93299999D01*
X131112001Y-108012001D02*
X129800000Y-106700000D01*
X141256610Y-108012001D02*
X131112001Y-108012001D01*
X163868518Y-103900000D02*
X162771759Y-102803241D01*
X164730000Y-103900000D02*
X163868518Y-103900000D01*
X121807978Y-94907978D02*
X121807978Y-108607977D01*
X135307987Y-91887987D02*
X123812014Y-91887987D01*
X123812014Y-91887987D02*
X121800000Y-93900000D01*
X137420000Y-94000000D02*
X135307987Y-91887987D01*
X121800000Y-94900000D02*
X121807978Y-94907978D01*
X151325542Y-103600000D02*
X159118612Y-103600000D01*
X159118612Y-103600000D02*
X159918623Y-102799989D01*
X159918623Y-102799989D02*
X162768507Y-102799989D01*
X125212052Y-112012052D02*
X142913488Y-112012052D01*
X162771759Y-102803241D02*
X162768507Y-102799989D01*
X121807978Y-108607977D02*
X125212052Y-112012052D01*
X142913488Y-112012052D02*
X151325542Y-103600000D01*
X121800000Y-93900000D02*
X121800000Y-94900000D01*
X160150001Y-96099999D02*
X158800000Y-97450000D01*
X163529999Y-96099999D02*
X160150001Y-96099999D01*
X164730000Y-97300000D02*
X163529999Y-96099999D01*
X141919366Y-109612018D02*
X154081384Y-97450000D01*
X154081384Y-97450000D02*
X158800000Y-97450000D01*
X127632018Y-109612018D02*
X141919366Y-109612018D01*
X124720000Y-106700000D02*
X127632018Y-109612018D01*
D26*
X169150000Y-111600000D02*
X171450022Y-113900022D01*
X189274978Y-113900022D02*
X193350000Y-109825000D01*
X171450022Y-113900022D02*
X189274978Y-113900022D01*
X173550000Y-111600000D02*
X175150000Y-113200000D01*
X187775000Y-113200000D02*
X191150000Y-109825000D01*
X175150000Y-113200000D02*
X187775000Y-113200000D01*
D25*
X168145000Y-84925000D02*
X166770000Y-86300000D01*
X171875000Y-84925000D02*
X168145000Y-84925000D01*
X167215000Y-83655000D02*
X166770000Y-84100000D01*
X171875000Y-83655000D02*
X167215000Y-83655000D01*
X171875000Y-82385000D02*
X172850000Y-82385000D01*
X169493544Y-73100000D02*
X166780000Y-73100000D01*
X173300010Y-76906466D02*
X169493544Y-73100000D01*
X173300010Y-81934990D02*
X173300010Y-76906466D01*
X172850000Y-82385000D02*
X173300010Y-81934990D01*
X167555000Y-81115000D02*
X171875000Y-81115000D01*
X166770000Y-81900000D02*
X167555000Y-81115000D01*
X166925000Y-79845000D02*
X166780000Y-79700000D01*
X171875000Y-79845000D02*
X166925000Y-79845000D01*
X167845000Y-78575000D02*
X166770000Y-77500000D01*
X171875000Y-78575000D02*
X167845000Y-78575000D01*
X168785000Y-77305000D02*
X166780000Y-75300000D01*
X171875000Y-77305000D02*
X168785000Y-77305000D01*
X174699979Y-81976548D02*
X173499978Y-83176548D01*
X176825000Y-78575000D02*
X175850000Y-78575000D01*
X174699979Y-79725021D02*
X174699979Y-81976548D01*
X173499978Y-86393566D02*
X171393544Y-88500000D01*
X175850000Y-78575000D02*
X174699979Y-79725021D01*
X173499978Y-83176548D02*
X173499978Y-86393566D01*
X171393544Y-88500000D02*
X166775000Y-88500000D01*
X170261388Y-100125000D02*
X166780000Y-103606388D01*
X171900000Y-100125000D02*
X170261388Y-100125000D01*
X166780000Y-103606388D02*
X166780000Y-103900000D01*
X169625000Y-98855000D02*
X166780000Y-101700000D01*
X171900000Y-98855000D02*
X169625000Y-98855000D01*
X168695000Y-97585000D02*
X166780000Y-99500000D01*
X171900000Y-97585000D02*
X168695000Y-97585000D01*
X167765000Y-96315000D02*
X166780000Y-97300000D01*
X171900000Y-96315000D02*
X167765000Y-96315000D01*
X166835000Y-95045000D02*
X166780000Y-95100000D01*
X171900000Y-95045000D02*
X166835000Y-95045000D01*
X167655000Y-93775000D02*
X166780000Y-92900000D01*
X171900000Y-93775000D02*
X167655000Y-93775000D01*
X166780000Y-90780003D02*
X166780000Y-90700000D01*
X168585000Y-92505000D02*
X166780000Y-90700000D01*
X171900000Y-92505000D02*
X168585000Y-92505000D01*
X176850000Y-93775000D02*
X178445000Y-93775000D01*
X178445000Y-93775000D02*
X178450000Y-93770000D01*
X173800000Y-102500000D02*
X170200000Y-106100000D01*
X173800000Y-97750000D02*
X173800000Y-102500000D01*
X166775000Y-106100000D02*
X170200000Y-106100000D01*
X176850000Y-96315000D02*
X178445000Y-96315000D01*
X173550000Y-109700000D02*
X174900000Y-109700000D01*
X171870000Y-86200000D02*
X171875000Y-86195000D01*
X170300000Y-86200000D02*
X171870000Y-86200000D01*
X178405000Y-81115000D02*
X178410000Y-81110000D01*
X176825000Y-81115000D02*
X178405000Y-81115000D01*
X171885000Y-101410000D02*
X171900000Y-101395000D01*
X179097904Y-109700000D02*
X179198952Y-109801048D01*
X177950000Y-109700000D02*
X179097904Y-109700000D01*
X164750000Y-109700000D02*
X165859481Y-109700000D01*
X165859481Y-109700000D02*
X166007542Y-109848061D01*
X170156482Y-109700000D02*
X170353241Y-109896759D01*
X169150000Y-109700000D02*
X170156482Y-109700000D01*
D27*
X182000000Y-109700000D02*
X179390000Y-107090000D01*
X183610000Y-109700000D02*
X182000000Y-109700000D01*
D25*
X171900000Y-101395000D02*
X170334906Y-101395000D01*
X170334906Y-101395000D02*
X170314953Y-101414953D01*
D27*
X187680000Y-89170000D02*
X187680000Y-86980000D01*
X187680000Y-90790000D02*
X187680000Y-89170000D01*
X179390000Y-107090000D02*
X179390000Y-103400000D01*
D25*
X123918625Y-114250011D02*
X124037243Y-114250011D01*
X124037243Y-114250011D02*
X124199314Y-114412082D01*
X118949999Y-109281385D02*
X123918625Y-114250011D01*
X120850000Y-97850000D02*
X118949999Y-99750001D01*
X124199314Y-114412082D02*
X153769302Y-114412082D01*
X118949999Y-99750001D02*
X118949999Y-109281385D01*
X157531384Y-110650000D02*
X153769302Y-114412082D01*
X162750000Y-110650000D02*
X157531384Y-110650000D01*
X180350000Y-109750000D02*
X180350000Y-110650000D01*
X178049978Y-107449978D02*
X180350000Y-109750000D01*
X156960405Y-107449978D02*
X178049978Y-107449978D01*
X151598321Y-112812062D02*
X156960405Y-107449978D01*
X124862062Y-112812062D02*
X151598321Y-112812062D01*
X120857976Y-108807976D02*
X124862062Y-112812062D01*
X120857976Y-99250000D02*
X120857976Y-108807976D01*
X167150000Y-109550000D02*
X167150000Y-110439998D01*
X167150000Y-110439998D02*
X167150000Y-110650000D01*
X124530688Y-113612072D02*
X153437928Y-113612072D01*
X158200000Y-108850000D02*
X166450000Y-108850000D01*
X119900000Y-101600000D02*
X119900000Y-108981384D01*
X119900000Y-108981384D02*
X124530688Y-113612072D01*
X153437928Y-113612072D02*
X158200000Y-108850000D01*
X166450000Y-108850000D02*
X167150000Y-109550000D01*
X171550000Y-110650000D02*
X171550000Y-109750000D01*
X157643736Y-108149989D02*
X156093735Y-109699990D01*
X169949989Y-108149989D02*
X171550000Y-109750000D01*
X157643736Y-108149989D02*
X169949989Y-108149989D01*
X163369999Y-83250001D02*
X156987227Y-83250001D01*
X164720000Y-81900000D02*
X163369999Y-83250001D01*
X156987227Y-83250001D02*
X151937239Y-88299989D01*
X151937239Y-88299989D02*
X127799989Y-88299989D01*
X127799989Y-88299989D02*
X124700000Y-85200000D01*
X176850000Y-92505000D02*
X177495000Y-92505000D01*
D27*
X176825000Y-84925000D02*
X179495000Y-84925000D01*
X177873518Y-77305000D02*
X179625000Y-79056482D01*
X176825000Y-77305000D02*
X177873518Y-77305000D01*
X185255002Y-100125000D02*
X186800000Y-98580002D01*
X176850000Y-100125000D02*
X185255002Y-100125000D01*
X186800000Y-98580002D02*
X186800000Y-96000010D01*
X179625000Y-79056482D02*
X179625000Y-84905000D01*
X179625000Y-84905000D02*
X179625000Y-92500000D01*
X189730000Y-86970000D02*
X189850000Y-86850000D01*
X189730000Y-89170000D02*
X189730000Y-86970000D01*
X189730000Y-90650000D02*
X189730000Y-89170000D01*
X187875000Y-92505000D02*
X189730000Y-90650000D01*
X176850000Y-92505000D02*
X187875000Y-92505000D01*
D25*
X191150000Y-108025000D02*
X191150000Y-108125000D01*
D26*
X191000000Y-107875000D02*
X191150000Y-108025000D01*
X191000000Y-107625000D02*
X191150000Y-107775000D01*
X191000000Y-104800000D02*
X191000000Y-107625000D01*
D25*
X193540000Y-107685000D02*
X193350000Y-107875000D01*
D26*
X193540000Y-107835000D02*
X193350000Y-108025000D01*
X193540000Y-107585000D02*
X193350000Y-107775000D01*
X193540000Y-104800000D02*
X193540000Y-107585000D01*
X188950000Y-104310000D02*
X191000000Y-102260000D01*
X188950000Y-104310000D02*
X188950000Y-107775000D01*
X197500000Y-106220000D02*
X197500000Y-107900000D01*
X193540000Y-102260000D02*
X197500000Y-106220000D01*
X186750000Y-103970000D02*
X191000000Y-99720000D01*
X186750000Y-103970000D02*
X186750000Y-107775000D01*
D25*
X176850000Y-95045000D02*
X178445000Y-95045000D01*
X178445000Y-95045000D02*
X178450000Y-95040000D01*
X191000000Y-97180000D02*
X185730011Y-102449989D01*
X185730011Y-102449989D02*
X175499989Y-102449989D01*
X175499989Y-102449989D02*
X174800000Y-101750000D01*
X178405000Y-83655000D02*
X178410000Y-83660000D01*
X176825000Y-83655000D02*
X178405000Y-83655000D01*
X191000000Y-94900677D02*
X191000000Y-94640000D01*
X176850000Y-98855000D02*
X178545000Y-98855000D01*
X190790000Y-94850000D02*
X191000000Y-94640000D01*
X178598998Y-98855000D02*
X182813998Y-94640000D01*
X182813998Y-94640000D02*
X191000000Y-94640000D01*
X178545000Y-98855000D02*
X178598998Y-98855000D01*
X176825000Y-82385000D02*
X176271456Y-82385000D01*
X176271456Y-82385000D02*
X175399990Y-83256466D01*
D26*
X192270000Y-93370000D02*
X193540000Y-94640000D01*
X190270000Y-93370000D02*
X192270000Y-93370000D01*
D25*
X176850000Y-97585000D02*
X178737612Y-97585000D01*
X182482623Y-93839989D02*
X189800011Y-93839989D01*
X178737612Y-97585000D02*
X182482623Y-93839989D01*
X175399990Y-97109990D02*
X175399990Y-83256466D01*
X175875000Y-97585000D02*
X175399990Y-97109990D01*
X176850000Y-97585000D02*
X175875000Y-97585000D01*
D26*
X189800011Y-93839989D02*
X190270000Y-93370000D01*
D25*
X175399990Y-80295010D02*
X175850000Y-79845000D01*
X175875000Y-101395000D02*
X174699979Y-100219979D01*
X175399990Y-82266501D02*
X175399990Y-80295010D01*
X175850000Y-79845000D02*
X176825000Y-79845000D01*
X174699979Y-82966512D02*
X175399990Y-82266501D01*
X176850000Y-101395000D02*
X175875000Y-101395000D01*
X174699979Y-82966512D02*
X174699979Y-100219979D01*
X129780000Y-77605998D02*
X129780000Y-72500000D01*
X164720000Y-84100000D02*
X157268614Y-84100000D01*
X152268615Y-89099999D02*
X126085998Y-89100000D01*
X123387999Y-86402001D02*
X123387999Y-83997999D01*
X126085998Y-89100000D02*
X123387999Y-86402001D01*
X157268614Y-84100000D02*
X152268615Y-89099999D01*
X123387999Y-83997999D02*
X129780000Y-77605998D01*
X164730000Y-101700000D02*
X152094158Y-101700000D01*
X125586650Y-111212038D02*
X122607989Y-108233377D01*
X128487999Y-92687999D02*
X129800000Y-94000000D01*
X152094158Y-101700000D02*
X142582120Y-111212038D01*
X142582120Y-111212038D02*
X125586650Y-111212038D01*
X124143387Y-92687999D02*
X128487999Y-92687999D01*
X122607989Y-108233377D02*
X122607989Y-94223397D01*
X122607989Y-94223397D02*
X124143387Y-92687999D01*
X155299997Y-95100000D02*
X164730000Y-95100000D01*
X141587990Y-108812007D02*
X155299997Y-95100000D01*
X129372007Y-108812007D02*
X141587990Y-108812007D01*
X127260000Y-106700000D02*
X129372007Y-108812007D01*
D26*
X184975000Y-111600000D02*
X186750000Y-109825000D01*
X182350000Y-111600000D02*
X184975000Y-111600000D01*
X190399968Y-114600032D02*
X195450000Y-109550000D01*
X167750032Y-114600032D02*
X190399968Y-114600032D01*
X164750000Y-111600000D02*
X167750032Y-114600032D01*
X195450000Y-109550000D02*
X195450000Y-107900000D01*
D25*
X125918026Y-110412028D02*
X142250744Y-110412028D01*
X142250744Y-110412028D02*
X153162772Y-99500000D01*
X123407999Y-97852001D02*
X123407999Y-107902001D01*
X153162772Y-99500000D02*
X164730000Y-99500000D01*
X123407999Y-107902001D02*
X125918026Y-110412028D01*
X127260000Y-94000000D02*
X123407999Y-97852001D01*
D27*
X175950000Y-110650000D02*
X175020000Y-111580000D01*
D26*
X177950000Y-111600000D02*
X178850001Y-112500001D01*
X186274999Y-112500001D02*
X188950000Y-109825000D01*
X178850001Y-112500001D02*
X186274999Y-112500001D01*
D25*
X131092001Y-86512001D02*
X129780000Y-85200000D01*
X138029761Y-86512001D02*
X131092001Y-86512001D01*
X164720000Y-77500000D02*
X147041762Y-77500000D01*
X147041762Y-77500000D02*
X138029761Y-86512001D01*
D27*
X192150000Y-90710000D02*
X193540000Y-92100000D01*
X192150000Y-86850000D02*
X192150000Y-90710000D01*
D28*
G36*
X194365288Y-70666019D02*
G01*
X194050435Y-71137229D01*
X193833561Y-71660810D01*
X193723000Y-72216640D01*
X193723000Y-72783360D01*
X193833561Y-73339190D01*
X194050435Y-73862771D01*
X194365288Y-74333981D01*
X194766019Y-74734712D01*
X195237229Y-75049565D01*
X195760810Y-75266439D01*
X196316640Y-75377000D01*
X196883360Y-75377000D01*
X197439190Y-75266439D01*
X197962771Y-75049565D01*
X198433981Y-74734712D01*
X198440000Y-74728693D01*
X198440001Y-80050000D01*
X196567581Y-80050000D01*
X196565287Y-80050226D01*
X196553512Y-80050308D01*
X196523691Y-80053442D01*
X196493708Y-80053442D01*
X196484543Y-80054405D01*
X195902695Y-80119670D01*
X195844192Y-80132106D01*
X195785504Y-80143726D01*
X195776701Y-80146451D01*
X195218610Y-80323488D01*
X195163602Y-80347065D01*
X195108322Y-80369849D01*
X195100216Y-80374232D01*
X194587141Y-80656298D01*
X194537795Y-80690086D01*
X194487960Y-80723196D01*
X194480859Y-80729070D01*
X194032342Y-81105420D01*
X193990479Y-81148170D01*
X193948043Y-81190310D01*
X193942219Y-81197451D01*
X193575344Y-81653751D01*
X193542596Y-81703796D01*
X193509139Y-81753397D01*
X193504813Y-81761534D01*
X193233554Y-82280404D01*
X193211158Y-82335836D01*
X193187964Y-82391012D01*
X193185301Y-82399834D01*
X193019991Y-82961511D01*
X193008790Y-83020230D01*
X192996753Y-83078867D01*
X192995854Y-83088038D01*
X192942789Y-83671127D01*
X192943207Y-83730944D01*
X192942789Y-83790761D01*
X192943689Y-83799933D01*
X193004889Y-84382222D01*
X193016921Y-84440832D01*
X193028127Y-84499580D01*
X193030791Y-84508402D01*
X193171735Y-84963718D01*
X193081724Y-84936413D01*
X192900000Y-84918515D01*
X191400000Y-84918515D01*
X191218276Y-84936413D01*
X191043536Y-84989420D01*
X190882495Y-85075499D01*
X190741341Y-85191341D01*
X190625499Y-85332495D01*
X190539420Y-85493536D01*
X190486413Y-85668276D01*
X190468515Y-85850000D01*
X190468515Y-86973000D01*
X189231485Y-86973000D01*
X189231485Y-85850000D01*
X189213587Y-85668276D01*
X189160580Y-85493536D01*
X189074501Y-85332495D01*
X188958659Y-85191341D01*
X188817505Y-85075499D01*
X188656464Y-84989420D01*
X188481724Y-84936413D01*
X188300000Y-84918515D01*
X186800000Y-84918515D01*
X186618276Y-84936413D01*
X186443536Y-84989420D01*
X186282495Y-85075499D01*
X186277000Y-85080009D01*
X186277000Y-70660000D01*
X194371307Y-70660000D01*
X194365288Y-70666019D01*
G37*
X194365288Y-70666019D02*
X194050435Y-71137229D01*
X193833561Y-71660810D01*
X193723000Y-72216640D01*
X193723000Y-72783360D01*
X193833561Y-73339190D01*
X194050435Y-73862771D01*
X194365288Y-74333981D01*
X194766019Y-74734712D01*
X195237229Y-75049565D01*
X195760810Y-75266439D01*
X196316640Y-75377000D01*
X196883360Y-75377000D01*
X197439190Y-75266439D01*
X197962771Y-75049565D01*
X198433981Y-74734712D01*
X198440000Y-74728693D01*
X198440001Y-80050000D01*
X196567581Y-80050000D01*
X196565287Y-80050226D01*
X196553512Y-80050308D01*
X196523691Y-80053442D01*
X196493708Y-80053442D01*
X196484543Y-80054405D01*
X195902695Y-80119670D01*
X195844192Y-80132106D01*
X195785504Y-80143726D01*
X195776701Y-80146451D01*
X195218610Y-80323488D01*
X195163602Y-80347065D01*
X195108322Y-80369849D01*
X195100216Y-80374232D01*
X194587141Y-80656298D01*
X194537795Y-80690086D01*
X194487960Y-80723196D01*
X194480859Y-80729070D01*
X194032342Y-81105420D01*
X193990479Y-81148170D01*
X193948043Y-81190310D01*
X193942219Y-81197451D01*
X193575344Y-81653751D01*
X193542596Y-81703796D01*
X193509139Y-81753397D01*
X193504813Y-81761534D01*
X193233554Y-82280404D01*
X193211158Y-82335836D01*
X193187964Y-82391012D01*
X193185301Y-82399834D01*
X193019991Y-82961511D01*
X193008790Y-83020230D01*
X192996753Y-83078867D01*
X192995854Y-83088038D01*
X192942789Y-83671127D01*
X192943207Y-83730944D01*
X192942789Y-83790761D01*
X192943689Y-83799933D01*
X193004889Y-84382222D01*
X193016921Y-84440832D01*
X193028127Y-84499580D01*
X193030791Y-84508402D01*
X193171735Y-84963718D01*
X193081724Y-84936413D01*
X192900000Y-84918515D01*
X191400000Y-84918515D01*
X191218276Y-84936413D01*
X191043536Y-84989420D01*
X190882495Y-85075499D01*
X190741341Y-85191341D01*
X190625499Y-85332495D01*
X190539420Y-85493536D01*
X190486413Y-85668276D01*
X190468515Y-85850000D01*
X190468515Y-86973000D01*
X189231485Y-86973000D01*
X189231485Y-85850000D01*
X189213587Y-85668276D01*
X189160580Y-85493536D01*
X189074501Y-85332495D01*
X188958659Y-85191341D01*
X188817505Y-85075499D01*
X188656464Y-84989420D01*
X188481724Y-84936413D01*
X188300000Y-84918515D01*
X186800000Y-84918515D01*
X186618276Y-84936413D01*
X186443536Y-84989420D01*
X186282495Y-85075499D01*
X186277000Y-85080009D01*
X186277000Y-70660000D01*
X194371307Y-70660000D01*
X194365288Y-70666019D01*
M02*
