M48
; DRILL file {KiCad (5.1.6-0-10_14)} date Saturday, October 10, 2020 at 12:55:17 AM
; FORMAT={-:-/ absolute / inch / decimal}
; #@! TF.CreationDate,2020-10-10T00:55:17+02:00
; #@! TF.GenerationSoftware,Kicad,Pcbnew,(5.1.6-0-10_14)
; #@! TF.FileFunction,Plated,1,2,PTH
FMAT,2
INCH
T1C0.0157
T2C0.0197
T3C0.0300
T4C0.0315
T5C0.0354
T6C0.0394
T7C0.0591
%
G90
G05
T1
X4.7205Y-4.0
X4.7579Y-3.8524
X4.7582Y-3.9075
X5.7343Y-4.3563
X6.1454Y-4.3189
X6.2972Y-3.3976
X6.3839Y-3.622
X6.4083Y-4.0474
X6.4291Y-3.6575
X6.436Y-3.0039
X6.5357Y-4.3247
X6.7047Y-3.3937
X6.7053Y-3.9927
X6.7068Y-4.3266
X6.8425Y-3.8484
X6.8819Y-4.0059
X6.8858Y-4.3189
X6.8906Y-4.3929
X7.024Y-3.1933
X7.024Y-3.2937
X7.0256Y-3.6917
X7.0256Y-3.7417
X7.0256Y-3.7917
X7.0293Y-3.8919
X7.0551Y-4.3229
T2
X7.0626Y-4.0709
X7.2287Y-4.3189
X7.3539Y-3.6417
X7.3543Y-3.7795
X7.389Y-3.5744
T3
X4.9094Y-2.8543
X4.9094Y-3.3543
X5.0094Y-2.8543
X5.0094Y-3.3543
X5.1094Y-2.8543
X5.1094Y-3.3543
X5.2094Y-2.8543
X5.2094Y-3.3543
X5.3094Y-2.8543
X5.3094Y-3.3543
X5.4094Y-2.8543
X5.4094Y-3.3543
X4.9102Y-3.7008
X4.9102Y-4.2008
X5.0102Y-3.7008
X5.0102Y-4.2008
X5.1102Y-3.7008
X5.1102Y-4.2008
X5.2102Y-3.7008
X5.2102Y-4.2008
X5.3102Y-3.7008
X5.3102Y-4.2008
X5.4102Y-3.7008
X5.4102Y-4.2008
T4
X7.374Y-2.8209
X7.374Y-2.8878
X7.374Y-2.9547
X7.374Y-3.0217
X7.374Y-3.0886
X7.4409Y-2.8209
X7.4409Y-2.8878
X7.4409Y-2.9547
X7.4409Y-3.0217
X7.4409Y-3.0886
X7.5079Y-2.8209
X7.5079Y-2.8878
X7.5079Y-2.9547
X7.5079Y-3.0217
X7.5079Y-3.0886
X7.5748Y-2.8209
X7.5748Y-2.8878
X7.5748Y-2.9547
X7.5748Y-3.0217
X7.5748Y-3.0886
X7.6417Y-2.9547
X7.6417Y-3.0217
X7.6417Y-3.0906
X7.7087Y-3.0217
X7.7087Y-3.0906
X7.7756Y-3.0217
X7.7756Y-3.0906
T5
X6.252Y-2.9094
X6.352Y-2.9094
X7.1693Y-2.8996
X7.2693Y-2.8996
X7.1693Y-3.2205
X7.2693Y-3.2205
X6.252Y-3.8366
X6.352Y-3.8366
X7.1693Y-3.8386
X7.2693Y-3.8386
X7.1693Y-4.1457
X7.2693Y-4.1457
X7.1693Y-3.5276
X7.2693Y-3.5276
X6.252Y-3.5276
X6.352Y-3.5276
X6.252Y-4.1457
X6.352Y-4.1457
X6.252Y-3.2205
X6.352Y-3.2205
T6
X7.5197Y-3.626
X7.5197Y-3.726
X7.5197Y-3.826
X7.5197Y-3.926
X7.5197Y-4.026
X7.5197Y-4.126
X7.6197Y-3.626
X7.6197Y-3.726
X7.6197Y-3.826
X7.6197Y-3.926
X7.6197Y-4.026
X7.6197Y-4.126
T7
X7.4154Y-3.2953
X7.5335Y-3.2953
T0
M30
