G04 #@! TF.GenerationSoftware,KiCad,Pcbnew,(5.1.6-0-10_14)*
G04 #@! TF.CreationDate,2020-10-10T00:55:13+02:00*
G04 #@! TF.ProjectId,ka3005p_displaydriver,6b613330-3035-4705-9f64-6973706c6179,rev?*
G04 #@! TF.SameCoordinates,Original*
G04 #@! TF.FileFunction,Legend,Top*
G04 #@! TF.FilePolarity,Positive*
%FSLAX46Y46*%
G04 Gerber Fmt 4.6, Leading zero omitted, Abs format (unit mm)*
G04 Created by KiCad (PCBNEW (5.1.6-0-10_14)) date 2020-10-10 00:55:13*
%MOMM*%
%LPD*%
G01*
G04 APERTURE LIST*
%ADD10C,0.150000*%
%ADD11C,0.120000*%
G04 APERTURE END LIST*
D10*
X126430952Y-78302380D02*
X126430952Y-79016666D01*
X126383333Y-79159523D01*
X126288095Y-79254761D01*
X126145238Y-79302380D01*
X126050000Y-79302380D01*
X127383333Y-79302380D02*
X126907142Y-79302380D01*
X126907142Y-78302380D01*
X128288095Y-79207142D02*
X128240476Y-79254761D01*
X128097619Y-79302380D01*
X128002380Y-79302380D01*
X127859523Y-79254761D01*
X127764285Y-79159523D01*
X127716666Y-79064285D01*
X127669047Y-78873809D01*
X127669047Y-78730952D01*
X127716666Y-78540476D01*
X127764285Y-78445238D01*
X127859523Y-78350000D01*
X128002380Y-78302380D01*
X128097619Y-78302380D01*
X128240476Y-78350000D01*
X128288095Y-78397619D01*
X129002380Y-78302380D02*
X129002380Y-79016666D01*
X128954761Y-79159523D01*
X128859523Y-79254761D01*
X128716666Y-79302380D01*
X128621428Y-79302380D01*
X129954761Y-79302380D02*
X129478571Y-79302380D01*
X129478571Y-78302380D01*
X130859523Y-79207142D02*
X130811904Y-79254761D01*
X130669047Y-79302380D01*
X130573809Y-79302380D01*
X130430952Y-79254761D01*
X130335714Y-79159523D01*
X130288095Y-79064285D01*
X130240476Y-78873809D01*
X130240476Y-78730952D01*
X130288095Y-78540476D01*
X130335714Y-78445238D01*
X130430952Y-78350000D01*
X130573809Y-78302380D01*
X130669047Y-78302380D01*
X130811904Y-78350000D01*
X130859523Y-78397619D01*
X131573809Y-78302380D02*
X131573809Y-79016666D01*
X131526190Y-79159523D01*
X131430952Y-79254761D01*
X131288095Y-79302380D01*
X131192857Y-79302380D01*
X132526190Y-79302380D02*
X132050000Y-79302380D01*
X132050000Y-78302380D01*
X133430952Y-79207142D02*
X133383333Y-79254761D01*
X133240476Y-79302380D01*
X133145238Y-79302380D01*
X133002380Y-79254761D01*
X132907142Y-79159523D01*
X132859523Y-79064285D01*
X132811904Y-78873809D01*
X132811904Y-78730952D01*
X132859523Y-78540476D01*
X132907142Y-78445238D01*
X133002380Y-78350000D01*
X133145238Y-78302380D01*
X133240476Y-78302380D01*
X133383333Y-78350000D01*
X133430952Y-78397619D01*
X134145238Y-78302380D02*
X134145238Y-79016666D01*
X134097619Y-79159523D01*
X134002380Y-79254761D01*
X133859523Y-79302380D01*
X133764285Y-79302380D01*
X135097619Y-79302380D02*
X134621428Y-79302380D01*
X134621428Y-78302380D01*
X136002380Y-79207142D02*
X135954761Y-79254761D01*
X135811904Y-79302380D01*
X135716666Y-79302380D01*
X135573809Y-79254761D01*
X135478571Y-79159523D01*
X135430952Y-79064285D01*
X135383333Y-78873809D01*
X135383333Y-78730952D01*
X135430952Y-78540476D01*
X135478571Y-78445238D01*
X135573809Y-78350000D01*
X135716666Y-78302380D01*
X135811904Y-78302380D01*
X135954761Y-78350000D01*
X136002380Y-78397619D01*
X192319047Y-80521428D02*
X193080952Y-80521428D01*
X192700000Y-80902380D02*
X192700000Y-80140476D01*
X104052380Y-107223809D02*
X103052380Y-107223809D01*
X104052380Y-106652380D02*
X103480952Y-107080952D01*
X103052380Y-106652380D02*
X103623809Y-107223809D01*
X103766666Y-106271428D02*
X103766666Y-105795238D01*
X104052380Y-106366666D02*
X103052380Y-106033333D01*
X104052380Y-105700000D01*
X103052380Y-105461904D02*
X103052380Y-104842857D01*
X103433333Y-105176190D01*
X103433333Y-105033333D01*
X103480952Y-104938095D01*
X103528571Y-104890476D01*
X103623809Y-104842857D01*
X103861904Y-104842857D01*
X103957142Y-104890476D01*
X104004761Y-104938095D01*
X104052380Y-105033333D01*
X104052380Y-105319047D01*
X104004761Y-105414285D01*
X103957142Y-105461904D01*
X103052380Y-104223809D02*
X103052380Y-104128571D01*
X103100000Y-104033333D01*
X103147619Y-103985714D01*
X103242857Y-103938095D01*
X103433333Y-103890476D01*
X103671428Y-103890476D01*
X103861904Y-103938095D01*
X103957142Y-103985714D01*
X104004761Y-104033333D01*
X104052380Y-104128571D01*
X104052380Y-104223809D01*
X104004761Y-104319047D01*
X103957142Y-104366666D01*
X103861904Y-104414285D01*
X103671428Y-104461904D01*
X103433333Y-104461904D01*
X103242857Y-104414285D01*
X103147619Y-104366666D01*
X103100000Y-104319047D01*
X103052380Y-104223809D01*
X103052380Y-103271428D02*
X103052380Y-103176190D01*
X103100000Y-103080952D01*
X103147619Y-103033333D01*
X103242857Y-102985714D01*
X103433333Y-102938095D01*
X103671428Y-102938095D01*
X103861904Y-102985714D01*
X103957142Y-103033333D01*
X104004761Y-103080952D01*
X104052380Y-103176190D01*
X104052380Y-103271428D01*
X104004761Y-103366666D01*
X103957142Y-103414285D01*
X103861904Y-103461904D01*
X103671428Y-103509523D01*
X103433333Y-103509523D01*
X103242857Y-103461904D01*
X103147619Y-103414285D01*
X103100000Y-103366666D01*
X103052380Y-103271428D01*
X103052380Y-102033333D02*
X103052380Y-102509523D01*
X103528571Y-102557142D01*
X103480952Y-102509523D01*
X103433333Y-102414285D01*
X103433333Y-102176190D01*
X103480952Y-102080952D01*
X103528571Y-102033333D01*
X103623809Y-101985714D01*
X103861904Y-101985714D01*
X103957142Y-102033333D01*
X104004761Y-102080952D01*
X104052380Y-102176190D01*
X104052380Y-102414285D01*
X104004761Y-102509523D01*
X103957142Y-102557142D01*
X104052380Y-101652380D02*
X103385714Y-101128571D01*
X103385714Y-101652380D02*
X104052380Y-101128571D01*
X104052380Y-99557142D02*
X103052380Y-99557142D01*
X104004761Y-99557142D02*
X104052380Y-99652380D01*
X104052380Y-99842857D01*
X104004761Y-99938095D01*
X103957142Y-99985714D01*
X103861904Y-100033333D01*
X103576190Y-100033333D01*
X103480952Y-99985714D01*
X103433333Y-99938095D01*
X103385714Y-99842857D01*
X103385714Y-99652380D01*
X103433333Y-99557142D01*
X104052380Y-99080952D02*
X103385714Y-99080952D01*
X103052380Y-99080952D02*
X103100000Y-99128571D01*
X103147619Y-99080952D01*
X103100000Y-99033333D01*
X103052380Y-99080952D01*
X103147619Y-99080952D01*
X104004761Y-98652380D02*
X104052380Y-98557142D01*
X104052380Y-98366666D01*
X104004761Y-98271428D01*
X103909523Y-98223809D01*
X103861904Y-98223809D01*
X103766666Y-98271428D01*
X103719047Y-98366666D01*
X103719047Y-98509523D01*
X103671428Y-98604761D01*
X103576190Y-98652380D01*
X103528571Y-98652380D01*
X103433333Y-98604761D01*
X103385714Y-98509523D01*
X103385714Y-98366666D01*
X103433333Y-98271428D01*
X103385714Y-97795238D02*
X104385714Y-97795238D01*
X103433333Y-97795238D02*
X103385714Y-97700000D01*
X103385714Y-97509523D01*
X103433333Y-97414285D01*
X103480952Y-97366666D01*
X103576190Y-97319047D01*
X103861904Y-97319047D01*
X103957142Y-97366666D01*
X104004761Y-97414285D01*
X104052380Y-97509523D01*
X104052380Y-97700000D01*
X104004761Y-97795238D01*
X104052380Y-96747619D02*
X104004761Y-96842857D01*
X103909523Y-96890476D01*
X103052380Y-96890476D01*
X104052380Y-95938095D02*
X103528571Y-95938095D01*
X103433333Y-95985714D01*
X103385714Y-96080952D01*
X103385714Y-96271428D01*
X103433333Y-96366666D01*
X104004761Y-95938095D02*
X104052380Y-96033333D01*
X104052380Y-96271428D01*
X104004761Y-96366666D01*
X103909523Y-96414285D01*
X103814285Y-96414285D01*
X103719047Y-96366666D01*
X103671428Y-96271428D01*
X103671428Y-96033333D01*
X103623809Y-95938095D01*
X103385714Y-95557142D02*
X104052380Y-95319047D01*
X103385714Y-95080952D02*
X104052380Y-95319047D01*
X104290476Y-95414285D01*
X104338095Y-95461904D01*
X104385714Y-95557142D01*
X104052380Y-93509523D02*
X103052380Y-93509523D01*
X104004761Y-93509523D02*
X104052380Y-93604761D01*
X104052380Y-93795238D01*
X104004761Y-93890476D01*
X103957142Y-93938095D01*
X103861904Y-93985714D01*
X103576190Y-93985714D01*
X103480952Y-93938095D01*
X103433333Y-93890476D01*
X103385714Y-93795238D01*
X103385714Y-93604761D01*
X103433333Y-93509523D01*
X104052380Y-93033333D02*
X103385714Y-93033333D01*
X103576190Y-93033333D02*
X103480952Y-92985714D01*
X103433333Y-92938095D01*
X103385714Y-92842857D01*
X103385714Y-92747619D01*
X104052380Y-92414285D02*
X103385714Y-92414285D01*
X103052380Y-92414285D02*
X103100000Y-92461904D01*
X103147619Y-92414285D01*
X103100000Y-92366666D01*
X103052380Y-92414285D01*
X103147619Y-92414285D01*
X103385714Y-92033333D02*
X104052380Y-91795238D01*
X103385714Y-91557142D01*
X104004761Y-90795238D02*
X104052380Y-90890476D01*
X104052380Y-91080952D01*
X104004761Y-91176190D01*
X103909523Y-91223809D01*
X103528571Y-91223809D01*
X103433333Y-91176190D01*
X103385714Y-91080952D01*
X103385714Y-90890476D01*
X103433333Y-90795238D01*
X103528571Y-90747619D01*
X103623809Y-90747619D01*
X103719047Y-91223809D01*
X104052380Y-90319047D02*
X103385714Y-90319047D01*
X103576190Y-90319047D02*
X103480952Y-90271428D01*
X103433333Y-90223809D01*
X103385714Y-90128571D01*
X103385714Y-90033333D01*
X105702380Y-105866666D02*
X105035714Y-105866666D01*
X105226190Y-105866666D02*
X105130952Y-105819047D01*
X105083333Y-105771428D01*
X105035714Y-105676190D01*
X105035714Y-105580952D01*
X105654761Y-104866666D02*
X105702380Y-104961904D01*
X105702380Y-105152380D01*
X105654761Y-105247619D01*
X105559523Y-105295238D01*
X105178571Y-105295238D01*
X105083333Y-105247619D01*
X105035714Y-105152380D01*
X105035714Y-104961904D01*
X105083333Y-104866666D01*
X105178571Y-104819047D01*
X105273809Y-104819047D01*
X105369047Y-105295238D01*
X105035714Y-104390476D02*
X106035714Y-104390476D01*
X105083333Y-104390476D02*
X105035714Y-104295238D01*
X105035714Y-104104761D01*
X105083333Y-104009523D01*
X105130952Y-103961904D01*
X105226190Y-103914285D01*
X105511904Y-103914285D01*
X105607142Y-103961904D01*
X105654761Y-104009523D01*
X105702380Y-104104761D01*
X105702380Y-104295238D01*
X105654761Y-104390476D01*
X105702380Y-103342857D02*
X105654761Y-103438095D01*
X105559523Y-103485714D01*
X104702380Y-103485714D01*
X105702380Y-102533333D02*
X105178571Y-102533333D01*
X105083333Y-102580952D01*
X105035714Y-102676190D01*
X105035714Y-102866666D01*
X105083333Y-102961904D01*
X105654761Y-102533333D02*
X105702380Y-102628571D01*
X105702380Y-102866666D01*
X105654761Y-102961904D01*
X105559523Y-103009523D01*
X105464285Y-103009523D01*
X105369047Y-102961904D01*
X105321428Y-102866666D01*
X105321428Y-102628571D01*
X105273809Y-102533333D01*
X105654761Y-101628571D02*
X105702380Y-101723809D01*
X105702380Y-101914285D01*
X105654761Y-102009523D01*
X105607142Y-102057142D01*
X105511904Y-102104761D01*
X105226190Y-102104761D01*
X105130952Y-102057142D01*
X105083333Y-102009523D01*
X105035714Y-101914285D01*
X105035714Y-101723809D01*
X105083333Y-101628571D01*
X105654761Y-100819047D02*
X105702380Y-100914285D01*
X105702380Y-101104761D01*
X105654761Y-101200000D01*
X105559523Y-101247619D01*
X105178571Y-101247619D01*
X105083333Y-101200000D01*
X105035714Y-101104761D01*
X105035714Y-100914285D01*
X105083333Y-100819047D01*
X105178571Y-100771428D01*
X105273809Y-100771428D01*
X105369047Y-101247619D01*
X105654761Y-100390476D02*
X105702380Y-100295238D01*
X105702380Y-100104761D01*
X105654761Y-100009523D01*
X105559523Y-99961904D01*
X105511904Y-99961904D01*
X105416666Y-100009523D01*
X105369047Y-100104761D01*
X105369047Y-100247619D01*
X105321428Y-100342857D01*
X105226190Y-100390476D01*
X105178571Y-100390476D01*
X105083333Y-100342857D01*
X105035714Y-100247619D01*
X105035714Y-100104761D01*
X105083333Y-100009523D01*
X105702380Y-98771428D02*
X104702380Y-98771428D01*
X105702380Y-98200000D02*
X105130952Y-98628571D01*
X104702380Y-98200000D02*
X105273809Y-98771428D01*
X104702380Y-97580952D02*
X104702380Y-97485714D01*
X104750000Y-97390476D01*
X104797619Y-97342857D01*
X104892857Y-97295238D01*
X105083333Y-97247619D01*
X105321428Y-97247619D01*
X105511904Y-97295238D01*
X105607142Y-97342857D01*
X105654761Y-97390476D01*
X105702380Y-97485714D01*
X105702380Y-97580952D01*
X105654761Y-97676190D01*
X105607142Y-97723809D01*
X105511904Y-97771428D01*
X105321428Y-97819047D01*
X105083333Y-97819047D01*
X104892857Y-97771428D01*
X104797619Y-97723809D01*
X104750000Y-97676190D01*
X104702380Y-97580952D01*
X104702380Y-96628571D02*
X104702380Y-96533333D01*
X104750000Y-96438095D01*
X104797619Y-96390476D01*
X104892857Y-96342857D01*
X105083333Y-96295238D01*
X105321428Y-96295238D01*
X105511904Y-96342857D01*
X105607142Y-96390476D01*
X105654761Y-96438095D01*
X105702380Y-96533333D01*
X105702380Y-96628571D01*
X105654761Y-96723809D01*
X105607142Y-96771428D01*
X105511904Y-96819047D01*
X105321428Y-96866666D01*
X105083333Y-96866666D01*
X104892857Y-96819047D01*
X104797619Y-96771428D01*
X104750000Y-96723809D01*
X104702380Y-96628571D01*
X104797619Y-95914285D02*
X104750000Y-95866666D01*
X104702380Y-95771428D01*
X104702380Y-95533333D01*
X104750000Y-95438095D01*
X104797619Y-95390476D01*
X104892857Y-95342857D01*
X104988095Y-95342857D01*
X105130952Y-95390476D01*
X105702380Y-95961904D01*
X105702380Y-95342857D01*
X105797619Y-95152380D02*
X105797619Y-94390476D01*
X104702380Y-94295238D02*
X105702380Y-93961904D01*
X104702380Y-93628571D01*
X104702380Y-93390476D02*
X104702380Y-92771428D01*
X105083333Y-93104761D01*
X105083333Y-92961904D01*
X105130952Y-92866666D01*
X105178571Y-92819047D01*
X105273809Y-92771428D01*
X105511904Y-92771428D01*
X105607142Y-92819047D01*
X105654761Y-92866666D01*
X105702380Y-92961904D01*
X105702380Y-93247619D01*
X105654761Y-93342857D01*
X105607142Y-93390476D01*
X105607142Y-92342857D02*
X105654761Y-92295238D01*
X105702380Y-92342857D01*
X105654761Y-92390476D01*
X105607142Y-92342857D01*
X105702380Y-92342857D01*
X105702380Y-91961904D02*
X105035714Y-91438095D01*
X105035714Y-91961904D02*
X105702380Y-91438095D01*
X106685714Y-105509523D02*
X107495238Y-105509523D01*
X107590476Y-105557142D01*
X107638095Y-105604761D01*
X107685714Y-105700000D01*
X107685714Y-105842857D01*
X107638095Y-105938095D01*
X107304761Y-105509523D02*
X107352380Y-105604761D01*
X107352380Y-105795238D01*
X107304761Y-105890476D01*
X107257142Y-105938095D01*
X107161904Y-105985714D01*
X106876190Y-105985714D01*
X106780952Y-105938095D01*
X106733333Y-105890476D01*
X106685714Y-105795238D01*
X106685714Y-105604761D01*
X106733333Y-105509523D01*
X107352380Y-105033333D02*
X106685714Y-105033333D01*
X106352380Y-105033333D02*
X106400000Y-105080952D01*
X106447619Y-105033333D01*
X106400000Y-104985714D01*
X106352380Y-105033333D01*
X106447619Y-105033333D01*
X106685714Y-104700000D02*
X106685714Y-104319047D01*
X106352380Y-104557142D02*
X107209523Y-104557142D01*
X107304761Y-104509523D01*
X107352380Y-104414285D01*
X107352380Y-104319047D01*
X107352380Y-103985714D02*
X106352380Y-103985714D01*
X107352380Y-103557142D02*
X106828571Y-103557142D01*
X106733333Y-103604761D01*
X106685714Y-103700000D01*
X106685714Y-103842857D01*
X106733333Y-103938095D01*
X106780952Y-103985714D01*
X106685714Y-102652380D02*
X107352380Y-102652380D01*
X106685714Y-103080952D02*
X107209523Y-103080952D01*
X107304761Y-103033333D01*
X107352380Y-102938095D01*
X107352380Y-102795238D01*
X107304761Y-102700000D01*
X107257142Y-102652380D01*
X107352380Y-102176190D02*
X106352380Y-102176190D01*
X106733333Y-102176190D02*
X106685714Y-102080952D01*
X106685714Y-101890476D01*
X106733333Y-101795238D01*
X106780952Y-101747619D01*
X106876190Y-101700000D01*
X107161904Y-101700000D01*
X107257142Y-101747619D01*
X107304761Y-101795238D01*
X107352380Y-101890476D01*
X107352380Y-102080952D01*
X107304761Y-102176190D01*
X107257142Y-101271428D02*
X107304761Y-101223809D01*
X107352380Y-101271428D01*
X107304761Y-101319047D01*
X107257142Y-101271428D01*
X107352380Y-101271428D01*
X107304761Y-100366666D02*
X107352380Y-100461904D01*
X107352380Y-100652380D01*
X107304761Y-100747619D01*
X107257142Y-100795238D01*
X107161904Y-100842857D01*
X106876190Y-100842857D01*
X106780952Y-100795238D01*
X106733333Y-100747619D01*
X106685714Y-100652380D01*
X106685714Y-100461904D01*
X106733333Y-100366666D01*
X107352380Y-99795238D02*
X107304761Y-99890476D01*
X107257142Y-99938095D01*
X107161904Y-99985714D01*
X106876190Y-99985714D01*
X106780952Y-99938095D01*
X106733333Y-99890476D01*
X106685714Y-99795238D01*
X106685714Y-99652380D01*
X106733333Y-99557142D01*
X106780952Y-99509523D01*
X106876190Y-99461904D01*
X107161904Y-99461904D01*
X107257142Y-99509523D01*
X107304761Y-99557142D01*
X107352380Y-99652380D01*
X107352380Y-99795238D01*
X107352380Y-99033333D02*
X106685714Y-99033333D01*
X106780952Y-99033333D02*
X106733333Y-98985714D01*
X106685714Y-98890476D01*
X106685714Y-98747619D01*
X106733333Y-98652380D01*
X106828571Y-98604761D01*
X107352380Y-98604761D01*
X106828571Y-98604761D02*
X106733333Y-98557142D01*
X106685714Y-98461904D01*
X106685714Y-98319047D01*
X106733333Y-98223809D01*
X106828571Y-98176190D01*
X107352380Y-98176190D01*
X106304761Y-96985714D02*
X107590476Y-97842857D01*
X107352380Y-96223809D02*
X106352380Y-96223809D01*
X107304761Y-96223809D02*
X107352380Y-96319047D01*
X107352380Y-96509523D01*
X107304761Y-96604761D01*
X107257142Y-96652380D01*
X107161904Y-96700000D01*
X106876190Y-96700000D01*
X106780952Y-96652380D01*
X106733333Y-96604761D01*
X106685714Y-96509523D01*
X106685714Y-96319047D01*
X106733333Y-96223809D01*
X106685714Y-95747619D02*
X107542857Y-95747619D01*
X107638095Y-95795238D01*
X107685714Y-95890476D01*
X107685714Y-95938095D01*
X106352380Y-95747619D02*
X106400000Y-95795238D01*
X106447619Y-95747619D01*
X106400000Y-95700000D01*
X106352380Y-95747619D01*
X106447619Y-95747619D01*
X107304761Y-94890476D02*
X107352380Y-94985714D01*
X107352380Y-95176190D01*
X107304761Y-95271428D01*
X107209523Y-95319047D01*
X106828571Y-95319047D01*
X106733333Y-95271428D01*
X106685714Y-95176190D01*
X106685714Y-94985714D01*
X106733333Y-94890476D01*
X106828571Y-94842857D01*
X106923809Y-94842857D01*
X107019047Y-95319047D01*
X107352380Y-93985714D02*
X106352380Y-93985714D01*
X107304761Y-93985714D02*
X107352380Y-94080952D01*
X107352380Y-94271428D01*
X107304761Y-94366666D01*
X107257142Y-94414285D01*
X107161904Y-94461904D01*
X106876190Y-94461904D01*
X106780952Y-94414285D01*
X106733333Y-94366666D01*
X106685714Y-94271428D01*
X106685714Y-94080952D01*
X106733333Y-93985714D01*
X107352380Y-93080952D02*
X106352380Y-93080952D01*
X107304761Y-93080952D02*
X107352380Y-93176190D01*
X107352380Y-93366666D01*
X107304761Y-93461904D01*
X107257142Y-93509523D01*
X107161904Y-93557142D01*
X106876190Y-93557142D01*
X106780952Y-93509523D01*
X106733333Y-93461904D01*
X106685714Y-93366666D01*
X106685714Y-93176190D01*
X106733333Y-93080952D01*
X107352380Y-92604761D02*
X106685714Y-92604761D01*
X106352380Y-92604761D02*
X106400000Y-92652380D01*
X106447619Y-92604761D01*
X106400000Y-92557142D01*
X106352380Y-92604761D01*
X106447619Y-92604761D01*
X106685714Y-92271428D02*
X106685714Y-91890476D01*
X106352380Y-92128571D02*
X107209523Y-92128571D01*
X107304761Y-92080952D01*
X107352380Y-91985714D01*
X107352380Y-91890476D01*
X106685714Y-91700000D02*
X106685714Y-91319047D01*
X106352380Y-91557142D02*
X107209523Y-91557142D01*
X107304761Y-91509523D01*
X107352380Y-91414285D01*
X107352380Y-91319047D01*
D11*
X188443748Y-88460000D02*
X188966252Y-88460000D01*
X188443748Y-89880000D02*
X188966252Y-89880000D01*
X151350000Y-86950000D02*
X110750000Y-86950000D01*
X151350000Y-86950000D02*
X151350000Y-70750000D01*
X110750000Y-70750000D02*
X110750000Y-86950000D01*
X110750000Y-70750000D02*
X151350000Y-70750000D01*
X188240000Y-108538748D02*
X188240000Y-109061252D01*
X189660000Y-108538748D02*
X189660000Y-109061252D01*
X190440000Y-108538748D02*
X190440000Y-109061252D01*
X191860000Y-108538748D02*
X191860000Y-109061252D01*
X192640000Y-108538748D02*
X192640000Y-109061252D01*
X194060000Y-108538748D02*
X194060000Y-109061252D01*
X176190000Y-109070000D02*
X177650000Y-109070000D01*
X176190000Y-112230000D02*
X178350000Y-112230000D01*
X176190000Y-112230000D02*
X176190000Y-111300000D01*
X176190000Y-109070000D02*
X176190000Y-110000000D01*
X151370000Y-108450000D02*
X110770000Y-108450000D01*
X151370000Y-108450000D02*
X151370000Y-92250000D01*
X110770000Y-92250000D02*
X110770000Y-108450000D01*
X110770000Y-92250000D02*
X151370000Y-92250000D01*
X180590000Y-109070000D02*
X182050000Y-109070000D01*
X180590000Y-112230000D02*
X182750000Y-112230000D01*
X180590000Y-112230000D02*
X180590000Y-111300000D01*
X180590000Y-109070000D02*
X180590000Y-110000000D01*
X162130000Y-80720000D02*
X162130000Y-80401000D01*
X162130000Y-83199000D02*
X162130000Y-82880000D01*
X157826758Y-82880724D02*
G75*
G03*
X162130000Y-83198749I2243242J1080724D01*
G01*
X157826758Y-80719276D02*
G75*
G02*
X162130000Y-80401251I2243242J-1080724D01*
G01*
X158387287Y-82880961D02*
G75*
G03*
X161753330Y-82880000I1682713J1080961D01*
G01*
X158387287Y-80719039D02*
G75*
G02*
X161753330Y-80720000I1682713J-1080961D01*
G01*
X185430000Y-72570000D02*
X185430000Y-72251000D01*
X185430000Y-75049000D02*
X185430000Y-74730000D01*
X181126758Y-74730724D02*
G75*
G03*
X185430000Y-75048749I2243242J1080724D01*
G01*
X181126758Y-72569276D02*
G75*
G02*
X185430000Y-72251251I2243242J-1080724D01*
G01*
X181687287Y-74730961D02*
G75*
G03*
X185053330Y-74730000I1682713J1080961D01*
G01*
X181687287Y-72569039D02*
G75*
G02*
X185053330Y-72570000I1682713J-1080961D01*
G01*
X185430000Y-96420000D02*
X185430000Y-96101000D01*
X185430000Y-98899000D02*
X185430000Y-98580000D01*
X181126758Y-98580724D02*
G75*
G03*
X185430000Y-98898749I2243242J1080724D01*
G01*
X181126758Y-96419276D02*
G75*
G02*
X185430000Y-96101251I2243242J-1080724D01*
G01*
X181687287Y-98580961D02*
G75*
G03*
X185053330Y-98580000I1682713J1080961D01*
G01*
X181687287Y-96419039D02*
G75*
G02*
X185053330Y-96420000I1682713J-1080961D01*
G01*
X162130000Y-104220000D02*
X162130000Y-103901000D01*
X162130000Y-106699000D02*
X162130000Y-106380000D01*
X157826758Y-106380724D02*
G75*
G03*
X162130000Y-106698749I2243242J1080724D01*
G01*
X157826758Y-104219276D02*
G75*
G02*
X162130000Y-103901251I2243242J-1080724D01*
G01*
X158387287Y-106380961D02*
G75*
G03*
X161753330Y-106380000I1682713J1080961D01*
G01*
X158387287Y-104219039D02*
G75*
G02*
X161753330Y-104220000I1682713J-1080961D01*
G01*
X185430000Y-88520000D02*
X185430000Y-88201000D01*
X185430000Y-90999000D02*
X185430000Y-90680000D01*
X181126758Y-90680724D02*
G75*
G03*
X185430000Y-90998749I2243242J1080724D01*
G01*
X181126758Y-88519276D02*
G75*
G02*
X185430000Y-88201251I2243242J-1080724D01*
G01*
X181687287Y-90680961D02*
G75*
G03*
X185053330Y-90680000I1682713J1080961D01*
G01*
X181687287Y-88519039D02*
G75*
G02*
X185053330Y-88520000I1682713J-1080961D01*
G01*
X162130000Y-88520000D02*
X162130000Y-88201000D01*
X162130000Y-90999000D02*
X162130000Y-90680000D01*
X157826758Y-90680724D02*
G75*
G03*
X162130000Y-90998749I2243242J1080724D01*
G01*
X157826758Y-88519276D02*
G75*
G02*
X162130000Y-88201251I2243242J-1080724D01*
G01*
X158387287Y-90680961D02*
G75*
G03*
X161753330Y-90680000I1682713J1080961D01*
G01*
X158387287Y-88519039D02*
G75*
G02*
X161753330Y-88520000I1682713J-1080961D01*
G01*
X162130000Y-72820000D02*
X162130000Y-72501000D01*
X162130000Y-75299000D02*
X162130000Y-74980000D01*
X157826758Y-74980724D02*
G75*
G03*
X162130000Y-75298749I2243242J1080724D01*
G01*
X157826758Y-72819276D02*
G75*
G02*
X162130000Y-72501251I2243242J-1080724D01*
G01*
X158387287Y-74980961D02*
G75*
G03*
X161753330Y-74980000I1682713J1080961D01*
G01*
X158387287Y-72819039D02*
G75*
G02*
X161753330Y-72820000I1682713J-1080961D01*
G01*
X185430000Y-80720000D02*
X185430000Y-80401000D01*
X185430000Y-83199000D02*
X185430000Y-82880000D01*
X181126758Y-82880724D02*
G75*
G03*
X185430000Y-83198749I2243242J1080724D01*
G01*
X181126758Y-80719276D02*
G75*
G02*
X185430000Y-80401251I2243242J-1080724D01*
G01*
X181687287Y-82880961D02*
G75*
G03*
X185053330Y-82880000I1682713J1080961D01*
G01*
X181687287Y-80719039D02*
G75*
G02*
X185053330Y-80720000I1682713J-1080961D01*
G01*
X185430000Y-104220000D02*
X185430000Y-103901000D01*
X185430000Y-106699000D02*
X185430000Y-106380000D01*
X181126758Y-106380724D02*
G75*
G03*
X185430000Y-106698749I2243242J1080724D01*
G01*
X181126758Y-104219276D02*
G75*
G02*
X185430000Y-103901251I2243242J-1080724D01*
G01*
X181687287Y-106380961D02*
G75*
G03*
X185053330Y-106380000I1682713J1080961D01*
G01*
X181687287Y-104219039D02*
G75*
G02*
X185053330Y-104220000I1682713J-1080961D01*
G01*
X196736252Y-107190000D02*
X196213748Y-107190000D01*
X196736252Y-108610000D02*
X196213748Y-108610000D01*
X186040000Y-108538748D02*
X186040000Y-109061252D01*
X187460000Y-108538748D02*
X187460000Y-109061252D01*
X162990000Y-109070000D02*
X164450000Y-109070000D01*
X162990000Y-112230000D02*
X165150000Y-112230000D01*
X162990000Y-112230000D02*
X162990000Y-111300000D01*
X162990000Y-109070000D02*
X162990000Y-110000000D01*
X171790000Y-109070000D02*
X173250000Y-109070000D01*
X171790000Y-112230000D02*
X173950000Y-112230000D01*
X171790000Y-112230000D02*
X171790000Y-111300000D01*
X171790000Y-109070000D02*
X171790000Y-110000000D01*
X167390000Y-109070000D02*
X168850000Y-109070000D01*
X167390000Y-112230000D02*
X169550000Y-112230000D01*
X167390000Y-112230000D02*
X167390000Y-111300000D01*
X167390000Y-109070000D02*
X167390000Y-110000000D01*
X193260000Y-81790000D02*
X192000000Y-81790000D01*
X186440000Y-81790000D02*
X187700000Y-81790000D01*
X193260000Y-85550000D02*
X193260000Y-81790000D01*
X186440000Y-87800000D02*
X186440000Y-81790000D01*
X165488748Y-105390000D02*
X166011252Y-105390000D01*
X165488748Y-106810000D02*
X166011252Y-106810000D01*
X165493748Y-89990000D02*
X166016252Y-89990000D01*
X165493748Y-91410000D02*
X166016252Y-91410000D01*
X165493748Y-92190000D02*
X166016252Y-92190000D01*
X165493748Y-93610000D02*
X166016252Y-93610000D01*
X165493748Y-94390000D02*
X166016252Y-94390000D01*
X165493748Y-95810000D02*
X166016252Y-95810000D01*
X165493748Y-96590000D02*
X166016252Y-96590000D01*
X165493748Y-98010000D02*
X166016252Y-98010000D01*
X165493748Y-98790000D02*
X166016252Y-98790000D01*
X165493748Y-100210000D02*
X166016252Y-100210000D01*
X165493748Y-100990000D02*
X166016252Y-100990000D01*
X165493748Y-102410000D02*
X166016252Y-102410000D01*
X165493748Y-103190000D02*
X166016252Y-103190000D01*
X165493748Y-104610000D02*
X166016252Y-104610000D01*
X165488748Y-87790000D02*
X166011252Y-87790000D01*
X165488748Y-89210000D02*
X166011252Y-89210000D01*
X165493748Y-74590000D02*
X166016252Y-74590000D01*
X165493748Y-76010000D02*
X166016252Y-76010000D01*
X165483748Y-76790000D02*
X166006252Y-76790000D01*
X165483748Y-78210000D02*
X166006252Y-78210000D01*
X165493748Y-78990000D02*
X166016252Y-78990000D01*
X165493748Y-80410000D02*
X166016252Y-80410000D01*
X165483748Y-81190000D02*
X166006252Y-81190000D01*
X165483748Y-82610000D02*
X166006252Y-82610000D01*
X165493748Y-72390000D02*
X166016252Y-72390000D01*
X165493748Y-73810000D02*
X166016252Y-73810000D01*
X165483748Y-84810000D02*
X166006252Y-84810000D01*
X165483748Y-83390000D02*
X166006252Y-83390000D01*
X165483748Y-85590000D02*
X166006252Y-85590000D01*
X165483748Y-87010000D02*
X166006252Y-87010000D01*
X174375000Y-102010000D02*
X176325000Y-102010000D01*
X174375000Y-102010000D02*
X172425000Y-102010000D01*
X174375000Y-91890000D02*
X176325000Y-91890000D01*
X174375000Y-91890000D02*
X170925000Y-91890000D01*
X174350000Y-86810000D02*
X176300000Y-86810000D01*
X174350000Y-86810000D02*
X172400000Y-86810000D01*
X174350000Y-76690000D02*
X176300000Y-76690000D01*
X174350000Y-76690000D02*
X170900000Y-76690000D01*
X189670000Y-90770000D02*
X192270000Y-90770000D01*
X189670000Y-90770000D02*
X189670000Y-106130000D01*
X189670000Y-106130000D02*
X194870000Y-106130000D01*
X194870000Y-93370000D02*
X194870000Y-106130000D01*
X192270000Y-93370000D02*
X194870000Y-93370000D01*
X192270000Y-90770000D02*
X192270000Y-93370000D01*
X194870000Y-90770000D02*
X194870000Y-92100000D01*
X193540000Y-90770000D02*
X194870000Y-90770000D01*
X162130000Y-96370000D02*
X162130000Y-96051000D01*
X162130000Y-98849000D02*
X162130000Y-98530000D01*
X158387287Y-96369039D02*
G75*
G02*
X161753330Y-96370000I1682713J-1080961D01*
G01*
X158387287Y-98530961D02*
G75*
G03*
X161753330Y-98530000I1682713J1080961D01*
G01*
X157826758Y-96369276D02*
G75*
G02*
X162130000Y-96051251I2243242J-1080724D01*
G01*
X157826758Y-98530724D02*
G75*
G03*
X162130000Y-98848749I2243242J1080724D01*
G01*
D10*
X191333333Y-89557142D02*
X191285714Y-89604761D01*
X191142857Y-89652380D01*
X191047619Y-89652380D01*
X190904761Y-89604761D01*
X190809523Y-89509523D01*
X190761904Y-89414285D01*
X190714285Y-89223809D01*
X190714285Y-89080952D01*
X190761904Y-88890476D01*
X190809523Y-88795238D01*
X190904761Y-88700000D01*
X191047619Y-88652380D01*
X191142857Y-88652380D01*
X191285714Y-88700000D01*
X191333333Y-88747619D01*
X192285714Y-89652380D02*
X191714285Y-89652380D01*
X192000000Y-89652380D02*
X192000000Y-88652380D01*
X191904761Y-88795238D01*
X191809523Y-88890476D01*
X191714285Y-88938095D01*
X129930952Y-88952380D02*
X129454761Y-88952380D01*
X129454761Y-87952380D01*
X130264285Y-88428571D02*
X130597619Y-88428571D01*
X130740476Y-88952380D02*
X130264285Y-88952380D01*
X130264285Y-87952380D01*
X130740476Y-87952380D01*
X131169047Y-88952380D02*
X131169047Y-87952380D01*
X131407142Y-87952380D01*
X131550000Y-88000000D01*
X131645238Y-88095238D01*
X131692857Y-88190476D01*
X131740476Y-88380952D01*
X131740476Y-88523809D01*
X131692857Y-88714285D01*
X131645238Y-88809523D01*
X131550000Y-88904761D01*
X131407142Y-88952380D01*
X131169047Y-88952380D01*
X132692857Y-88952380D02*
X132121428Y-88952380D01*
X132407142Y-88952380D02*
X132407142Y-87952380D01*
X132311904Y-88095238D01*
X132216666Y-88190476D01*
X132121428Y-88238095D01*
X189402380Y-112842857D02*
X188926190Y-113176190D01*
X189402380Y-113414285D02*
X188402380Y-113414285D01*
X188402380Y-113033333D01*
X188450000Y-112938095D01*
X188497619Y-112890476D01*
X188592857Y-112842857D01*
X188735714Y-112842857D01*
X188830952Y-112890476D01*
X188878571Y-112938095D01*
X188926190Y-113033333D01*
X188926190Y-113414285D01*
X188497619Y-112461904D02*
X188450000Y-112414285D01*
X188402380Y-112319047D01*
X188402380Y-112080952D01*
X188450000Y-111985714D01*
X188497619Y-111938095D01*
X188592857Y-111890476D01*
X188688095Y-111890476D01*
X188830952Y-111938095D01*
X189402380Y-112509523D01*
X189402380Y-111890476D01*
X188402380Y-111271428D02*
X188402380Y-111176190D01*
X188450000Y-111080952D01*
X188497619Y-111033333D01*
X188592857Y-110985714D01*
X188783333Y-110938095D01*
X189021428Y-110938095D01*
X189211904Y-110985714D01*
X189307142Y-111033333D01*
X189354761Y-111080952D01*
X189402380Y-111176190D01*
X189402380Y-111271428D01*
X189354761Y-111366666D01*
X189307142Y-111414285D01*
X189211904Y-111461904D01*
X189021428Y-111509523D01*
X188783333Y-111509523D01*
X188592857Y-111461904D01*
X188497619Y-111414285D01*
X188450000Y-111366666D01*
X188402380Y-111271428D01*
X191552380Y-112867857D02*
X191076190Y-113201190D01*
X191552380Y-113439285D02*
X190552380Y-113439285D01*
X190552380Y-113058333D01*
X190600000Y-112963095D01*
X190647619Y-112915476D01*
X190742857Y-112867857D01*
X190885714Y-112867857D01*
X190980952Y-112915476D01*
X191028571Y-112963095D01*
X191076190Y-113058333D01*
X191076190Y-113439285D01*
X191552380Y-111915476D02*
X191552380Y-112486904D01*
X191552380Y-112201190D02*
X190552380Y-112201190D01*
X190695238Y-112296428D01*
X190790476Y-112391666D01*
X190838095Y-112486904D01*
X190980952Y-111344047D02*
X190933333Y-111439285D01*
X190885714Y-111486904D01*
X190790476Y-111534523D01*
X190742857Y-111534523D01*
X190647619Y-111486904D01*
X190600000Y-111439285D01*
X190552380Y-111344047D01*
X190552380Y-111153571D01*
X190600000Y-111058333D01*
X190647619Y-111010714D01*
X190742857Y-110963095D01*
X190790476Y-110963095D01*
X190885714Y-111010714D01*
X190933333Y-111058333D01*
X190980952Y-111153571D01*
X190980952Y-111344047D01*
X191028571Y-111439285D01*
X191076190Y-111486904D01*
X191171428Y-111534523D01*
X191361904Y-111534523D01*
X191457142Y-111486904D01*
X191504761Y-111439285D01*
X191552380Y-111344047D01*
X191552380Y-111153571D01*
X191504761Y-111058333D01*
X191457142Y-111010714D01*
X191361904Y-110963095D01*
X191171428Y-110963095D01*
X191076190Y-111010714D01*
X191028571Y-111058333D01*
X190980952Y-111153571D01*
X193827380Y-112867857D02*
X193351190Y-113201190D01*
X193827380Y-113439285D02*
X192827380Y-113439285D01*
X192827380Y-113058333D01*
X192875000Y-112963095D01*
X192922619Y-112915476D01*
X193017857Y-112867857D01*
X193160714Y-112867857D01*
X193255952Y-112915476D01*
X193303571Y-112963095D01*
X193351190Y-113058333D01*
X193351190Y-113439285D01*
X193827380Y-111915476D02*
X193827380Y-112486904D01*
X193827380Y-112201190D02*
X192827380Y-112201190D01*
X192970238Y-112296428D01*
X193065476Y-112391666D01*
X193113095Y-112486904D01*
X193827380Y-111439285D02*
X193827380Y-111248809D01*
X193779761Y-111153571D01*
X193732142Y-111105952D01*
X193589285Y-111010714D01*
X193398809Y-110963095D01*
X193017857Y-110963095D01*
X192922619Y-111010714D01*
X192875000Y-111058333D01*
X192827380Y-111153571D01*
X192827380Y-111344047D01*
X192875000Y-111439285D01*
X192922619Y-111486904D01*
X193017857Y-111534523D01*
X193255952Y-111534523D01*
X193351190Y-111486904D01*
X193398809Y-111439285D01*
X193446428Y-111344047D01*
X193446428Y-111153571D01*
X193398809Y-111058333D01*
X193351190Y-111010714D01*
X193255952Y-110963095D01*
X176854761Y-113697619D02*
X176759523Y-113650000D01*
X176664285Y-113554761D01*
X176521428Y-113411904D01*
X176426190Y-113364285D01*
X176330952Y-113364285D01*
X176378571Y-113602380D02*
X176283333Y-113554761D01*
X176188095Y-113459523D01*
X176140476Y-113269047D01*
X176140476Y-112935714D01*
X176188095Y-112745238D01*
X176283333Y-112650000D01*
X176378571Y-112602380D01*
X176569047Y-112602380D01*
X176664285Y-112650000D01*
X176759523Y-112745238D01*
X176807142Y-112935714D01*
X176807142Y-113269047D01*
X176759523Y-113459523D01*
X176664285Y-113554761D01*
X176569047Y-113602380D01*
X176378571Y-113602380D01*
X177140476Y-112602380D02*
X177807142Y-112602380D01*
X177378571Y-113602380D01*
X129950952Y-110452380D02*
X129474761Y-110452380D01*
X129474761Y-109452380D01*
X130284285Y-109928571D02*
X130617619Y-109928571D01*
X130760476Y-110452380D02*
X130284285Y-110452380D01*
X130284285Y-109452380D01*
X130760476Y-109452380D01*
X131189047Y-110452380D02*
X131189047Y-109452380D01*
X131427142Y-109452380D01*
X131570000Y-109500000D01*
X131665238Y-109595238D01*
X131712857Y-109690476D01*
X131760476Y-109880952D01*
X131760476Y-110023809D01*
X131712857Y-110214285D01*
X131665238Y-110309523D01*
X131570000Y-110404761D01*
X131427142Y-110452380D01*
X131189047Y-110452380D01*
X132141428Y-109547619D02*
X132189047Y-109500000D01*
X132284285Y-109452380D01*
X132522380Y-109452380D01*
X132617619Y-109500000D01*
X132665238Y-109547619D01*
X132712857Y-109642857D01*
X132712857Y-109738095D01*
X132665238Y-109880952D01*
X132093809Y-110452380D01*
X132712857Y-110452380D01*
X181254761Y-113697619D02*
X181159523Y-113650000D01*
X181064285Y-113554761D01*
X180921428Y-113411904D01*
X180826190Y-113364285D01*
X180730952Y-113364285D01*
X180778571Y-113602380D02*
X180683333Y-113554761D01*
X180588095Y-113459523D01*
X180540476Y-113269047D01*
X180540476Y-112935714D01*
X180588095Y-112745238D01*
X180683333Y-112650000D01*
X180778571Y-112602380D01*
X180969047Y-112602380D01*
X181064285Y-112650000D01*
X181159523Y-112745238D01*
X181207142Y-112935714D01*
X181207142Y-113269047D01*
X181159523Y-113459523D01*
X181064285Y-113554761D01*
X180969047Y-113602380D01*
X180778571Y-113602380D01*
X182064285Y-112602380D02*
X181873809Y-112602380D01*
X181778571Y-112650000D01*
X181730952Y-112697619D01*
X181635714Y-112840476D01*
X181588095Y-113030952D01*
X181588095Y-113411904D01*
X181635714Y-113507142D01*
X181683333Y-113554761D01*
X181778571Y-113602380D01*
X181969047Y-113602380D01*
X182064285Y-113554761D01*
X182111904Y-113507142D01*
X182159523Y-113411904D01*
X182159523Y-113173809D01*
X182111904Y-113078571D01*
X182064285Y-113030952D01*
X181969047Y-112983333D01*
X181778571Y-112983333D01*
X181683333Y-113030952D01*
X181635714Y-113078571D01*
X181588095Y-113173809D01*
X159331904Y-85712380D02*
X159331904Y-84712380D01*
X159570000Y-84712380D01*
X159712857Y-84760000D01*
X159808095Y-84855238D01*
X159855714Y-84950476D01*
X159903333Y-85140952D01*
X159903333Y-85283809D01*
X159855714Y-85474285D01*
X159808095Y-85569523D01*
X159712857Y-85664761D01*
X159570000Y-85712380D01*
X159331904Y-85712380D01*
X160808095Y-84712380D02*
X160331904Y-84712380D01*
X160284285Y-85188571D01*
X160331904Y-85140952D01*
X160427142Y-85093333D01*
X160665238Y-85093333D01*
X160760476Y-85140952D01*
X160808095Y-85188571D01*
X160855714Y-85283809D01*
X160855714Y-85521904D01*
X160808095Y-85617142D01*
X160760476Y-85664761D01*
X160665238Y-85712380D01*
X160427142Y-85712380D01*
X160331904Y-85664761D01*
X160284285Y-85617142D01*
X182631904Y-77562380D02*
X182631904Y-76562380D01*
X182870000Y-76562380D01*
X183012857Y-76610000D01*
X183108095Y-76705238D01*
X183155714Y-76800476D01*
X183203333Y-76990952D01*
X183203333Y-77133809D01*
X183155714Y-77324285D01*
X183108095Y-77419523D01*
X183012857Y-77514761D01*
X182870000Y-77562380D01*
X182631904Y-77562380D01*
X183584285Y-76657619D02*
X183631904Y-76610000D01*
X183727142Y-76562380D01*
X183965238Y-76562380D01*
X184060476Y-76610000D01*
X184108095Y-76657619D01*
X184155714Y-76752857D01*
X184155714Y-76848095D01*
X184108095Y-76990952D01*
X183536666Y-77562380D01*
X184155714Y-77562380D01*
X182631904Y-101412380D02*
X182631904Y-100412380D01*
X182870000Y-100412380D01*
X183012857Y-100460000D01*
X183108095Y-100555238D01*
X183155714Y-100650476D01*
X183203333Y-100840952D01*
X183203333Y-100983809D01*
X183155714Y-101174285D01*
X183108095Y-101269523D01*
X183012857Y-101364761D01*
X182870000Y-101412380D01*
X182631904Y-101412380D01*
X183774761Y-100840952D02*
X183679523Y-100793333D01*
X183631904Y-100745714D01*
X183584285Y-100650476D01*
X183584285Y-100602857D01*
X183631904Y-100507619D01*
X183679523Y-100460000D01*
X183774761Y-100412380D01*
X183965238Y-100412380D01*
X184060476Y-100460000D01*
X184108095Y-100507619D01*
X184155714Y-100602857D01*
X184155714Y-100650476D01*
X184108095Y-100745714D01*
X184060476Y-100793333D01*
X183965238Y-100840952D01*
X183774761Y-100840952D01*
X183679523Y-100888571D01*
X183631904Y-100936190D01*
X183584285Y-101031428D01*
X183584285Y-101221904D01*
X183631904Y-101317142D01*
X183679523Y-101364761D01*
X183774761Y-101412380D01*
X183965238Y-101412380D01*
X184060476Y-101364761D01*
X184108095Y-101317142D01*
X184155714Y-101221904D01*
X184155714Y-101031428D01*
X184108095Y-100936190D01*
X184060476Y-100888571D01*
X183965238Y-100840952D01*
X159331904Y-109212380D02*
X159331904Y-108212380D01*
X159570000Y-108212380D01*
X159712857Y-108260000D01*
X159808095Y-108355238D01*
X159855714Y-108450476D01*
X159903333Y-108640952D01*
X159903333Y-108783809D01*
X159855714Y-108974285D01*
X159808095Y-109069523D01*
X159712857Y-109164761D01*
X159570000Y-109212380D01*
X159331904Y-109212380D01*
X160760476Y-108545714D02*
X160760476Y-109212380D01*
X160522380Y-108164761D02*
X160284285Y-108879047D01*
X160903333Y-108879047D01*
X182631904Y-93512380D02*
X182631904Y-92512380D01*
X182870000Y-92512380D01*
X183012857Y-92560000D01*
X183108095Y-92655238D01*
X183155714Y-92750476D01*
X183203333Y-92940952D01*
X183203333Y-93083809D01*
X183155714Y-93274285D01*
X183108095Y-93369523D01*
X183012857Y-93464761D01*
X182870000Y-93512380D01*
X182631904Y-93512380D01*
X184060476Y-92512380D02*
X183870000Y-92512380D01*
X183774761Y-92560000D01*
X183727142Y-92607619D01*
X183631904Y-92750476D01*
X183584285Y-92940952D01*
X183584285Y-93321904D01*
X183631904Y-93417142D01*
X183679523Y-93464761D01*
X183774761Y-93512380D01*
X183965238Y-93512380D01*
X184060476Y-93464761D01*
X184108095Y-93417142D01*
X184155714Y-93321904D01*
X184155714Y-93083809D01*
X184108095Y-92988571D01*
X184060476Y-92940952D01*
X183965238Y-92893333D01*
X183774761Y-92893333D01*
X183679523Y-92940952D01*
X183631904Y-92988571D01*
X183584285Y-93083809D01*
X159331904Y-93512380D02*
X159331904Y-92512380D01*
X159570000Y-92512380D01*
X159712857Y-92560000D01*
X159808095Y-92655238D01*
X159855714Y-92750476D01*
X159903333Y-92940952D01*
X159903333Y-93083809D01*
X159855714Y-93274285D01*
X159808095Y-93369523D01*
X159712857Y-93464761D01*
X159570000Y-93512380D01*
X159331904Y-93512380D01*
X160236666Y-92512380D02*
X160855714Y-92512380D01*
X160522380Y-92893333D01*
X160665238Y-92893333D01*
X160760476Y-92940952D01*
X160808095Y-92988571D01*
X160855714Y-93083809D01*
X160855714Y-93321904D01*
X160808095Y-93417142D01*
X160760476Y-93464761D01*
X160665238Y-93512380D01*
X160379523Y-93512380D01*
X160284285Y-93464761D01*
X160236666Y-93417142D01*
X159331904Y-77812380D02*
X159331904Y-76812380D01*
X159570000Y-76812380D01*
X159712857Y-76860000D01*
X159808095Y-76955238D01*
X159855714Y-77050476D01*
X159903333Y-77240952D01*
X159903333Y-77383809D01*
X159855714Y-77574285D01*
X159808095Y-77669523D01*
X159712857Y-77764761D01*
X159570000Y-77812380D01*
X159331904Y-77812380D01*
X160855714Y-77812380D02*
X160284285Y-77812380D01*
X160570000Y-77812380D02*
X160570000Y-76812380D01*
X160474761Y-76955238D01*
X160379523Y-77050476D01*
X160284285Y-77098095D01*
X182631904Y-85712380D02*
X182631904Y-84712380D01*
X182870000Y-84712380D01*
X183012857Y-84760000D01*
X183108095Y-84855238D01*
X183155714Y-84950476D01*
X183203333Y-85140952D01*
X183203333Y-85283809D01*
X183155714Y-85474285D01*
X183108095Y-85569523D01*
X183012857Y-85664761D01*
X182870000Y-85712380D01*
X182631904Y-85712380D01*
X183679523Y-85712380D02*
X183870000Y-85712380D01*
X183965238Y-85664761D01*
X184012857Y-85617142D01*
X184108095Y-85474285D01*
X184155714Y-85283809D01*
X184155714Y-84902857D01*
X184108095Y-84807619D01*
X184060476Y-84760000D01*
X183965238Y-84712380D01*
X183774761Y-84712380D01*
X183679523Y-84760000D01*
X183631904Y-84807619D01*
X183584285Y-84902857D01*
X183584285Y-85140952D01*
X183631904Y-85236190D01*
X183679523Y-85283809D01*
X183774761Y-85331428D01*
X183965238Y-85331428D01*
X184060476Y-85283809D01*
X184108095Y-85236190D01*
X184155714Y-85140952D01*
X186361904Y-105752380D02*
X186361904Y-104752380D01*
X186600000Y-104752380D01*
X186742857Y-104800000D01*
X186838095Y-104895238D01*
X186885714Y-104990476D01*
X186933333Y-105180952D01*
X186933333Y-105323809D01*
X186885714Y-105514285D01*
X186838095Y-105609523D01*
X186742857Y-105704761D01*
X186600000Y-105752380D01*
X186361904Y-105752380D01*
X187266666Y-104752380D02*
X187933333Y-104752380D01*
X187504761Y-105752380D01*
X195832142Y-110202380D02*
X195498809Y-109726190D01*
X195260714Y-110202380D02*
X195260714Y-109202380D01*
X195641666Y-109202380D01*
X195736904Y-109250000D01*
X195784523Y-109297619D01*
X195832142Y-109392857D01*
X195832142Y-109535714D01*
X195784523Y-109630952D01*
X195736904Y-109678571D01*
X195641666Y-109726190D01*
X195260714Y-109726190D01*
X196213095Y-109297619D02*
X196260714Y-109250000D01*
X196355952Y-109202380D01*
X196594047Y-109202380D01*
X196689285Y-109250000D01*
X196736904Y-109297619D01*
X196784523Y-109392857D01*
X196784523Y-109488095D01*
X196736904Y-109630952D01*
X196165476Y-110202380D01*
X196784523Y-110202380D01*
X197736904Y-110202380D02*
X197165476Y-110202380D01*
X197451190Y-110202380D02*
X197451190Y-109202380D01*
X197355952Y-109345238D01*
X197260714Y-109440476D01*
X197165476Y-109488095D01*
X187127380Y-112842857D02*
X186651190Y-113176190D01*
X187127380Y-113414285D02*
X186127380Y-113414285D01*
X186127380Y-113033333D01*
X186175000Y-112938095D01*
X186222619Y-112890476D01*
X186317857Y-112842857D01*
X186460714Y-112842857D01*
X186555952Y-112890476D01*
X186603571Y-112938095D01*
X186651190Y-113033333D01*
X186651190Y-113414285D01*
X187127380Y-111890476D02*
X187127380Y-112461904D01*
X187127380Y-112176190D02*
X186127380Y-112176190D01*
X186270238Y-112271428D01*
X186365476Y-112366666D01*
X186413095Y-112461904D01*
X186127380Y-111557142D02*
X186127380Y-110890476D01*
X187127380Y-111319047D01*
X163654761Y-113697619D02*
X163559523Y-113650000D01*
X163464285Y-113554761D01*
X163321428Y-113411904D01*
X163226190Y-113364285D01*
X163130952Y-113364285D01*
X163178571Y-113602380D02*
X163083333Y-113554761D01*
X162988095Y-113459523D01*
X162940476Y-113269047D01*
X162940476Y-112935714D01*
X162988095Y-112745238D01*
X163083333Y-112650000D01*
X163178571Y-112602380D01*
X163369047Y-112602380D01*
X163464285Y-112650000D01*
X163559523Y-112745238D01*
X163607142Y-112935714D01*
X163607142Y-113269047D01*
X163559523Y-113459523D01*
X163464285Y-113554761D01*
X163369047Y-113602380D01*
X163178571Y-113602380D01*
X164178571Y-113030952D02*
X164083333Y-112983333D01*
X164035714Y-112935714D01*
X163988095Y-112840476D01*
X163988095Y-112792857D01*
X164035714Y-112697619D01*
X164083333Y-112650000D01*
X164178571Y-112602380D01*
X164369047Y-112602380D01*
X164464285Y-112650000D01*
X164511904Y-112697619D01*
X164559523Y-112792857D01*
X164559523Y-112840476D01*
X164511904Y-112935714D01*
X164464285Y-112983333D01*
X164369047Y-113030952D01*
X164178571Y-113030952D01*
X164083333Y-113078571D01*
X164035714Y-113126190D01*
X163988095Y-113221428D01*
X163988095Y-113411904D01*
X164035714Y-113507142D01*
X164083333Y-113554761D01*
X164178571Y-113602380D01*
X164369047Y-113602380D01*
X164464285Y-113554761D01*
X164511904Y-113507142D01*
X164559523Y-113411904D01*
X164559523Y-113221428D01*
X164511904Y-113126190D01*
X164464285Y-113078571D01*
X164369047Y-113030952D01*
X172454761Y-113697619D02*
X172359523Y-113650000D01*
X172264285Y-113554761D01*
X172121428Y-113411904D01*
X172026190Y-113364285D01*
X171930952Y-113364285D01*
X171978571Y-113602380D02*
X171883333Y-113554761D01*
X171788095Y-113459523D01*
X171740476Y-113269047D01*
X171740476Y-112935714D01*
X171788095Y-112745238D01*
X171883333Y-112650000D01*
X171978571Y-112602380D01*
X172169047Y-112602380D01*
X172264285Y-112650000D01*
X172359523Y-112745238D01*
X172407142Y-112935714D01*
X172407142Y-113269047D01*
X172359523Y-113459523D01*
X172264285Y-113554761D01*
X172169047Y-113602380D01*
X171978571Y-113602380D01*
X173311904Y-112602380D02*
X172835714Y-112602380D01*
X172788095Y-113078571D01*
X172835714Y-113030952D01*
X172930952Y-112983333D01*
X173169047Y-112983333D01*
X173264285Y-113030952D01*
X173311904Y-113078571D01*
X173359523Y-113173809D01*
X173359523Y-113411904D01*
X173311904Y-113507142D01*
X173264285Y-113554761D01*
X173169047Y-113602380D01*
X172930952Y-113602380D01*
X172835714Y-113554761D01*
X172788095Y-113507142D01*
X168054761Y-113697619D02*
X167959523Y-113650000D01*
X167864285Y-113554761D01*
X167721428Y-113411904D01*
X167626190Y-113364285D01*
X167530952Y-113364285D01*
X167578571Y-113602380D02*
X167483333Y-113554761D01*
X167388095Y-113459523D01*
X167340476Y-113269047D01*
X167340476Y-112935714D01*
X167388095Y-112745238D01*
X167483333Y-112650000D01*
X167578571Y-112602380D01*
X167769047Y-112602380D01*
X167864285Y-112650000D01*
X167959523Y-112745238D01*
X168007142Y-112935714D01*
X168007142Y-113269047D01*
X167959523Y-113459523D01*
X167864285Y-113554761D01*
X167769047Y-113602380D01*
X167578571Y-113602380D01*
X168864285Y-112935714D02*
X168864285Y-113602380D01*
X168626190Y-112554761D02*
X168388095Y-113269047D01*
X169007142Y-113269047D01*
X193601904Y-87322380D02*
X193601904Y-88131904D01*
X193649523Y-88227142D01*
X193697142Y-88274761D01*
X193792380Y-88322380D01*
X193982857Y-88322380D01*
X194078095Y-88274761D01*
X194125714Y-88227142D01*
X194173333Y-88131904D01*
X194173333Y-87322380D01*
X195173333Y-88322380D02*
X194601904Y-88322380D01*
X194887619Y-88322380D02*
X194887619Y-87322380D01*
X194792380Y-87465238D01*
X194697142Y-87560476D01*
X194601904Y-87608095D01*
X195744761Y-87750952D02*
X195649523Y-87703333D01*
X195601904Y-87655714D01*
X195554285Y-87560476D01*
X195554285Y-87512857D01*
X195601904Y-87417619D01*
X195649523Y-87370000D01*
X195744761Y-87322380D01*
X195935238Y-87322380D01*
X196030476Y-87370000D01*
X196078095Y-87417619D01*
X196125714Y-87512857D01*
X196125714Y-87560476D01*
X196078095Y-87655714D01*
X196030476Y-87703333D01*
X195935238Y-87750952D01*
X195744761Y-87750952D01*
X195649523Y-87798571D01*
X195601904Y-87846190D01*
X195554285Y-87941428D01*
X195554285Y-88131904D01*
X195601904Y-88227142D01*
X195649523Y-88274761D01*
X195744761Y-88322380D01*
X195935238Y-88322380D01*
X196030476Y-88274761D01*
X196078095Y-88227142D01*
X196125714Y-88131904D01*
X196125714Y-87941428D01*
X196078095Y-87846190D01*
X196030476Y-87798571D01*
X195935238Y-87750952D01*
X168557142Y-106552380D02*
X168223809Y-106076190D01*
X167985714Y-106552380D02*
X167985714Y-105552380D01*
X168366666Y-105552380D01*
X168461904Y-105600000D01*
X168509523Y-105647619D01*
X168557142Y-105742857D01*
X168557142Y-105885714D01*
X168509523Y-105980952D01*
X168461904Y-106028571D01*
X168366666Y-106076190D01*
X167985714Y-106076190D01*
X169509523Y-106552380D02*
X168938095Y-106552380D01*
X169223809Y-106552380D02*
X169223809Y-105552380D01*
X169128571Y-105695238D01*
X169033333Y-105790476D01*
X168938095Y-105838095D01*
X170366666Y-105552380D02*
X170176190Y-105552380D01*
X170080952Y-105600000D01*
X170033333Y-105647619D01*
X169938095Y-105790476D01*
X169890476Y-105980952D01*
X169890476Y-106361904D01*
X169938095Y-106457142D01*
X169985714Y-106504761D01*
X170080952Y-106552380D01*
X170271428Y-106552380D01*
X170366666Y-106504761D01*
X170414285Y-106457142D01*
X170461904Y-106361904D01*
X170461904Y-106123809D01*
X170414285Y-106028571D01*
X170366666Y-105980952D01*
X170271428Y-105933333D01*
X170080952Y-105933333D01*
X169985714Y-105980952D01*
X169938095Y-106028571D01*
X169890476Y-106123809D01*
X168557142Y-91152380D02*
X168223809Y-90676190D01*
X167985714Y-91152380D02*
X167985714Y-90152380D01*
X168366666Y-90152380D01*
X168461904Y-90200000D01*
X168509523Y-90247619D01*
X168557142Y-90342857D01*
X168557142Y-90485714D01*
X168509523Y-90580952D01*
X168461904Y-90628571D01*
X168366666Y-90676190D01*
X167985714Y-90676190D01*
X169509523Y-91152380D02*
X168938095Y-91152380D01*
X169223809Y-91152380D02*
X169223809Y-90152380D01*
X169128571Y-90295238D01*
X169033333Y-90390476D01*
X168938095Y-90438095D01*
X170414285Y-90152380D02*
X169938095Y-90152380D01*
X169890476Y-90628571D01*
X169938095Y-90580952D01*
X170033333Y-90533333D01*
X170271428Y-90533333D01*
X170366666Y-90580952D01*
X170414285Y-90628571D01*
X170461904Y-90723809D01*
X170461904Y-90961904D01*
X170414285Y-91057142D01*
X170366666Y-91104761D01*
X170271428Y-91152380D01*
X170033333Y-91152380D01*
X169938095Y-91104761D01*
X169890476Y-91057142D01*
X168557142Y-93352380D02*
X168223809Y-92876190D01*
X167985714Y-93352380D02*
X167985714Y-92352380D01*
X168366666Y-92352380D01*
X168461904Y-92400000D01*
X168509523Y-92447619D01*
X168557142Y-92542857D01*
X168557142Y-92685714D01*
X168509523Y-92780952D01*
X168461904Y-92828571D01*
X168366666Y-92876190D01*
X167985714Y-92876190D01*
X169509523Y-93352380D02*
X168938095Y-93352380D01*
X169223809Y-93352380D02*
X169223809Y-92352380D01*
X169128571Y-92495238D01*
X169033333Y-92590476D01*
X168938095Y-92638095D01*
X170366666Y-92685714D02*
X170366666Y-93352380D01*
X170128571Y-92304761D02*
X169890476Y-93019047D01*
X170509523Y-93019047D01*
X168557142Y-95552380D02*
X168223809Y-95076190D01*
X167985714Y-95552380D02*
X167985714Y-94552380D01*
X168366666Y-94552380D01*
X168461904Y-94600000D01*
X168509523Y-94647619D01*
X168557142Y-94742857D01*
X168557142Y-94885714D01*
X168509523Y-94980952D01*
X168461904Y-95028571D01*
X168366666Y-95076190D01*
X167985714Y-95076190D01*
X169509523Y-95552380D02*
X168938095Y-95552380D01*
X169223809Y-95552380D02*
X169223809Y-94552380D01*
X169128571Y-94695238D01*
X169033333Y-94790476D01*
X168938095Y-94838095D01*
X169842857Y-94552380D02*
X170461904Y-94552380D01*
X170128571Y-94933333D01*
X170271428Y-94933333D01*
X170366666Y-94980952D01*
X170414285Y-95028571D01*
X170461904Y-95123809D01*
X170461904Y-95361904D01*
X170414285Y-95457142D01*
X170366666Y-95504761D01*
X170271428Y-95552380D01*
X169985714Y-95552380D01*
X169890476Y-95504761D01*
X169842857Y-95457142D01*
X168557142Y-97752380D02*
X168223809Y-97276190D01*
X167985714Y-97752380D02*
X167985714Y-96752380D01*
X168366666Y-96752380D01*
X168461904Y-96800000D01*
X168509523Y-96847619D01*
X168557142Y-96942857D01*
X168557142Y-97085714D01*
X168509523Y-97180952D01*
X168461904Y-97228571D01*
X168366666Y-97276190D01*
X167985714Y-97276190D01*
X169509523Y-97752380D02*
X168938095Y-97752380D01*
X169223809Y-97752380D02*
X169223809Y-96752380D01*
X169128571Y-96895238D01*
X169033333Y-96990476D01*
X168938095Y-97038095D01*
X169890476Y-96847619D02*
X169938095Y-96800000D01*
X170033333Y-96752380D01*
X170271428Y-96752380D01*
X170366666Y-96800000D01*
X170414285Y-96847619D01*
X170461904Y-96942857D01*
X170461904Y-97038095D01*
X170414285Y-97180952D01*
X169842857Y-97752380D01*
X170461904Y-97752380D01*
X168557142Y-99952380D02*
X168223809Y-99476190D01*
X167985714Y-99952380D02*
X167985714Y-98952380D01*
X168366666Y-98952380D01*
X168461904Y-99000000D01*
X168509523Y-99047619D01*
X168557142Y-99142857D01*
X168557142Y-99285714D01*
X168509523Y-99380952D01*
X168461904Y-99428571D01*
X168366666Y-99476190D01*
X167985714Y-99476190D01*
X169509523Y-99952380D02*
X168938095Y-99952380D01*
X169223809Y-99952380D02*
X169223809Y-98952380D01*
X169128571Y-99095238D01*
X169033333Y-99190476D01*
X168938095Y-99238095D01*
X170461904Y-99952380D02*
X169890476Y-99952380D01*
X170176190Y-99952380D02*
X170176190Y-98952380D01*
X170080952Y-99095238D01*
X169985714Y-99190476D01*
X169890476Y-99238095D01*
X168557142Y-102152380D02*
X168223809Y-101676190D01*
X167985714Y-102152380D02*
X167985714Y-101152380D01*
X168366666Y-101152380D01*
X168461904Y-101200000D01*
X168509523Y-101247619D01*
X168557142Y-101342857D01*
X168557142Y-101485714D01*
X168509523Y-101580952D01*
X168461904Y-101628571D01*
X168366666Y-101676190D01*
X167985714Y-101676190D01*
X169509523Y-102152380D02*
X168938095Y-102152380D01*
X169223809Y-102152380D02*
X169223809Y-101152380D01*
X169128571Y-101295238D01*
X169033333Y-101390476D01*
X168938095Y-101438095D01*
X170128571Y-101152380D02*
X170223809Y-101152380D01*
X170319047Y-101200000D01*
X170366666Y-101247619D01*
X170414285Y-101342857D01*
X170461904Y-101533333D01*
X170461904Y-101771428D01*
X170414285Y-101961904D01*
X170366666Y-102057142D01*
X170319047Y-102104761D01*
X170223809Y-102152380D01*
X170128571Y-102152380D01*
X170033333Y-102104761D01*
X169985714Y-102057142D01*
X169938095Y-101961904D01*
X169890476Y-101771428D01*
X169890476Y-101533333D01*
X169938095Y-101342857D01*
X169985714Y-101247619D01*
X170033333Y-101200000D01*
X170128571Y-101152380D01*
X168533333Y-104352380D02*
X168200000Y-103876190D01*
X167961904Y-104352380D02*
X167961904Y-103352380D01*
X168342857Y-103352380D01*
X168438095Y-103400000D01*
X168485714Y-103447619D01*
X168533333Y-103542857D01*
X168533333Y-103685714D01*
X168485714Y-103780952D01*
X168438095Y-103828571D01*
X168342857Y-103876190D01*
X167961904Y-103876190D01*
X169009523Y-104352380D02*
X169200000Y-104352380D01*
X169295238Y-104304761D01*
X169342857Y-104257142D01*
X169438095Y-104114285D01*
X169485714Y-103923809D01*
X169485714Y-103542857D01*
X169438095Y-103447619D01*
X169390476Y-103400000D01*
X169295238Y-103352380D01*
X169104761Y-103352380D01*
X169009523Y-103400000D01*
X168961904Y-103447619D01*
X168914285Y-103542857D01*
X168914285Y-103780952D01*
X168961904Y-103876190D01*
X169009523Y-103923809D01*
X169104761Y-103971428D01*
X169295238Y-103971428D01*
X169390476Y-103923809D01*
X169438095Y-103876190D01*
X169485714Y-103780952D01*
X168533333Y-88952380D02*
X168200000Y-88476190D01*
X167961904Y-88952380D02*
X167961904Y-87952380D01*
X168342857Y-87952380D01*
X168438095Y-88000000D01*
X168485714Y-88047619D01*
X168533333Y-88142857D01*
X168533333Y-88285714D01*
X168485714Y-88380952D01*
X168438095Y-88428571D01*
X168342857Y-88476190D01*
X167961904Y-88476190D01*
X169104761Y-88380952D02*
X169009523Y-88333333D01*
X168961904Y-88285714D01*
X168914285Y-88190476D01*
X168914285Y-88142857D01*
X168961904Y-88047619D01*
X169009523Y-88000000D01*
X169104761Y-87952380D01*
X169295238Y-87952380D01*
X169390476Y-88000000D01*
X169438095Y-88047619D01*
X169485714Y-88142857D01*
X169485714Y-88190476D01*
X169438095Y-88285714D01*
X169390476Y-88333333D01*
X169295238Y-88380952D01*
X169104761Y-88380952D01*
X169009523Y-88428571D01*
X168961904Y-88476190D01*
X168914285Y-88571428D01*
X168914285Y-88761904D01*
X168961904Y-88857142D01*
X169009523Y-88904761D01*
X169104761Y-88952380D01*
X169295238Y-88952380D01*
X169390476Y-88904761D01*
X169438095Y-88857142D01*
X169485714Y-88761904D01*
X169485714Y-88571428D01*
X169438095Y-88476190D01*
X169390476Y-88428571D01*
X169295238Y-88380952D01*
X168533333Y-75752380D02*
X168200000Y-75276190D01*
X167961904Y-75752380D02*
X167961904Y-74752380D01*
X168342857Y-74752380D01*
X168438095Y-74800000D01*
X168485714Y-74847619D01*
X168533333Y-74942857D01*
X168533333Y-75085714D01*
X168485714Y-75180952D01*
X168438095Y-75228571D01*
X168342857Y-75276190D01*
X167961904Y-75276190D01*
X168866666Y-74752380D02*
X169533333Y-74752380D01*
X169104761Y-75752380D01*
X168533333Y-77952380D02*
X168200000Y-77476190D01*
X167961904Y-77952380D02*
X167961904Y-76952380D01*
X168342857Y-76952380D01*
X168438095Y-77000000D01*
X168485714Y-77047619D01*
X168533333Y-77142857D01*
X168533333Y-77285714D01*
X168485714Y-77380952D01*
X168438095Y-77428571D01*
X168342857Y-77476190D01*
X167961904Y-77476190D01*
X169390476Y-76952380D02*
X169200000Y-76952380D01*
X169104761Y-77000000D01*
X169057142Y-77047619D01*
X168961904Y-77190476D01*
X168914285Y-77380952D01*
X168914285Y-77761904D01*
X168961904Y-77857142D01*
X169009523Y-77904761D01*
X169104761Y-77952380D01*
X169295238Y-77952380D01*
X169390476Y-77904761D01*
X169438095Y-77857142D01*
X169485714Y-77761904D01*
X169485714Y-77523809D01*
X169438095Y-77428571D01*
X169390476Y-77380952D01*
X169295238Y-77333333D01*
X169104761Y-77333333D01*
X169009523Y-77380952D01*
X168961904Y-77428571D01*
X168914285Y-77523809D01*
X168533333Y-80152380D02*
X168200000Y-79676190D01*
X167961904Y-80152380D02*
X167961904Y-79152380D01*
X168342857Y-79152380D01*
X168438095Y-79200000D01*
X168485714Y-79247619D01*
X168533333Y-79342857D01*
X168533333Y-79485714D01*
X168485714Y-79580952D01*
X168438095Y-79628571D01*
X168342857Y-79676190D01*
X167961904Y-79676190D01*
X169438095Y-79152380D02*
X168961904Y-79152380D01*
X168914285Y-79628571D01*
X168961904Y-79580952D01*
X169057142Y-79533333D01*
X169295238Y-79533333D01*
X169390476Y-79580952D01*
X169438095Y-79628571D01*
X169485714Y-79723809D01*
X169485714Y-79961904D01*
X169438095Y-80057142D01*
X169390476Y-80104761D01*
X169295238Y-80152380D01*
X169057142Y-80152380D01*
X168961904Y-80104761D01*
X168914285Y-80057142D01*
X168533333Y-82352380D02*
X168200000Y-81876190D01*
X167961904Y-82352380D02*
X167961904Y-81352380D01*
X168342857Y-81352380D01*
X168438095Y-81400000D01*
X168485714Y-81447619D01*
X168533333Y-81542857D01*
X168533333Y-81685714D01*
X168485714Y-81780952D01*
X168438095Y-81828571D01*
X168342857Y-81876190D01*
X167961904Y-81876190D01*
X169390476Y-81685714D02*
X169390476Y-82352380D01*
X169152380Y-81304761D02*
X168914285Y-82019047D01*
X169533333Y-82019047D01*
X168533333Y-73552380D02*
X168200000Y-73076190D01*
X167961904Y-73552380D02*
X167961904Y-72552380D01*
X168342857Y-72552380D01*
X168438095Y-72600000D01*
X168485714Y-72647619D01*
X168533333Y-72742857D01*
X168533333Y-72885714D01*
X168485714Y-72980952D01*
X168438095Y-73028571D01*
X168342857Y-73076190D01*
X167961904Y-73076190D01*
X168866666Y-72552380D02*
X169485714Y-72552380D01*
X169152380Y-72933333D01*
X169295238Y-72933333D01*
X169390476Y-72980952D01*
X169438095Y-73028571D01*
X169485714Y-73123809D01*
X169485714Y-73361904D01*
X169438095Y-73457142D01*
X169390476Y-73504761D01*
X169295238Y-73552380D01*
X169009523Y-73552380D01*
X168914285Y-73504761D01*
X168866666Y-73457142D01*
X168533333Y-84552380D02*
X168200000Y-84076190D01*
X167961904Y-84552380D02*
X167961904Y-83552380D01*
X168342857Y-83552380D01*
X168438095Y-83600000D01*
X168485714Y-83647619D01*
X168533333Y-83742857D01*
X168533333Y-83885714D01*
X168485714Y-83980952D01*
X168438095Y-84028571D01*
X168342857Y-84076190D01*
X167961904Y-84076190D01*
X168914285Y-83647619D02*
X168961904Y-83600000D01*
X169057142Y-83552380D01*
X169295238Y-83552380D01*
X169390476Y-83600000D01*
X169438095Y-83647619D01*
X169485714Y-83742857D01*
X169485714Y-83838095D01*
X169438095Y-83980952D01*
X168866666Y-84552380D01*
X169485714Y-84552380D01*
X168533333Y-86752380D02*
X168200000Y-86276190D01*
X167961904Y-86752380D02*
X167961904Y-85752380D01*
X168342857Y-85752380D01*
X168438095Y-85800000D01*
X168485714Y-85847619D01*
X168533333Y-85942857D01*
X168533333Y-86085714D01*
X168485714Y-86180952D01*
X168438095Y-86228571D01*
X168342857Y-86276190D01*
X167961904Y-86276190D01*
X169485714Y-86752380D02*
X168914285Y-86752380D01*
X169200000Y-86752380D02*
X169200000Y-85752380D01*
X169104761Y-85895238D01*
X169009523Y-85990476D01*
X168914285Y-86038095D01*
X173613095Y-90502380D02*
X173613095Y-91311904D01*
X173660714Y-91407142D01*
X173708333Y-91454761D01*
X173803571Y-91502380D01*
X173994047Y-91502380D01*
X174089285Y-91454761D01*
X174136904Y-91407142D01*
X174184523Y-91311904D01*
X174184523Y-90502380D01*
X174565476Y-90502380D02*
X175184523Y-90502380D01*
X174851190Y-90883333D01*
X174994047Y-90883333D01*
X175089285Y-90930952D01*
X175136904Y-90978571D01*
X175184523Y-91073809D01*
X175184523Y-91311904D01*
X175136904Y-91407142D01*
X175089285Y-91454761D01*
X174994047Y-91502380D01*
X174708333Y-91502380D01*
X174613095Y-91454761D01*
X174565476Y-91407142D01*
X173588095Y-75302380D02*
X173588095Y-76111904D01*
X173635714Y-76207142D01*
X173683333Y-76254761D01*
X173778571Y-76302380D01*
X173969047Y-76302380D01*
X174064285Y-76254761D01*
X174111904Y-76207142D01*
X174159523Y-76111904D01*
X174159523Y-75302380D01*
X175159523Y-76302380D02*
X174588095Y-76302380D01*
X174873809Y-76302380D02*
X174873809Y-75302380D01*
X174778571Y-75445238D01*
X174683333Y-75540476D01*
X174588095Y-75588095D01*
X196657142Y-99614285D02*
X196704761Y-99661904D01*
X196752380Y-99804761D01*
X196752380Y-99900000D01*
X196704761Y-100042857D01*
X196609523Y-100138095D01*
X196514285Y-100185714D01*
X196323809Y-100233333D01*
X196180952Y-100233333D01*
X195990476Y-100185714D01*
X195895238Y-100138095D01*
X195800000Y-100042857D01*
X195752380Y-99900000D01*
X195752380Y-99804761D01*
X195800000Y-99661904D01*
X195847619Y-99614285D01*
X195752380Y-98995238D02*
X195752380Y-98804761D01*
X195800000Y-98709523D01*
X195895238Y-98614285D01*
X196085714Y-98566666D01*
X196419047Y-98566666D01*
X196609523Y-98614285D01*
X196704761Y-98709523D01*
X196752380Y-98804761D01*
X196752380Y-98995238D01*
X196704761Y-99090476D01*
X196609523Y-99185714D01*
X196419047Y-99233333D01*
X196085714Y-99233333D01*
X195895238Y-99185714D01*
X195800000Y-99090476D01*
X195752380Y-98995238D01*
X196752380Y-98138095D02*
X195752380Y-98138095D01*
X196752380Y-97566666D01*
X195752380Y-97566666D01*
X196752380Y-96566666D02*
X196752380Y-97138095D01*
X196752380Y-96852380D02*
X195752380Y-96852380D01*
X195895238Y-96947619D01*
X195990476Y-97042857D01*
X196038095Y-97138095D01*
X158855714Y-101362380D02*
X158855714Y-100362380D01*
X159093809Y-100362380D01*
X159236666Y-100410000D01*
X159331904Y-100505238D01*
X159379523Y-100600476D01*
X159427142Y-100790952D01*
X159427142Y-100933809D01*
X159379523Y-101124285D01*
X159331904Y-101219523D01*
X159236666Y-101314761D01*
X159093809Y-101362380D01*
X158855714Y-101362380D01*
X160379523Y-101362380D02*
X159808095Y-101362380D01*
X160093809Y-101362380D02*
X160093809Y-100362380D01*
X159998571Y-100505238D01*
X159903333Y-100600476D01*
X159808095Y-100648095D01*
X160998571Y-100362380D02*
X161093809Y-100362380D01*
X161189047Y-100410000D01*
X161236666Y-100457619D01*
X161284285Y-100552857D01*
X161331904Y-100743333D01*
X161331904Y-100981428D01*
X161284285Y-101171904D01*
X161236666Y-101267142D01*
X161189047Y-101314761D01*
X161093809Y-101362380D01*
X160998571Y-101362380D01*
X160903333Y-101314761D01*
X160855714Y-101267142D01*
X160808095Y-101171904D01*
X160760476Y-100981428D01*
X160760476Y-100743333D01*
X160808095Y-100552857D01*
X160855714Y-100457619D01*
X160903333Y-100410000D01*
X160998571Y-100362380D01*
M02*
